<ttFont>
          <CharString index="0">
            26 35 rmoveto
            13 5 rlineto
            -5 3 -2 5 5 vvcurveto
            53 hlineto
            -8 -5 -17 -12 vhcurveto
            -16 -8 7 -18 hhcurveto
            19 36 rmoveto
            7 vlineto
            3 44 10 3 vhcurveto
            0 66 callgsubr
            -11 -9 -13 -3 vhcurveto
            -19 30 rmoveto
            -2 -1 -4 -1 -4 hhcurveto
            -4 -4 1 2 -2 hvcurveto
            2 5 1 5 7 2 -2 -1 vhcurveto
            31 56 rmoveto
            -44 -45 vlineto
            14 42 28 3 2 vhcurveto
            -12 15 rmoveto
            -6 3 -14 5 -4 7 rrcurveto
            9 7 17 18 3 vvcurveto
            0 0 0 -1 vhcurveto
            0 -1 3 1 vvcurveto
            -7 -7 -14 -1 -4 hhcurveto
            13 8 1 10 13 7 0 -6 12 vhcurveto
            -18 -5 -14 -57 -30 hhcurveto
            -9 0 26 2 -1 hvcurveto
            -442 26 rmoveto
            10 -1 12 14 5 vhcurveto
            -6 3 -7 9 3 vvcurveto
            1 -1 0 11 6 6 rrcurveto
            103 callgsubr
            -2 hhcurveto
            -6 -1 6 5 21 2 5 16 7 hvcurveto
            -8 2 -10 3 12 vvcurveto
            36 38 rlineto
            -3 -25 -3 -21 -23 -16 7 1 -19 -19 -7 -19 -19 -12 8 -10 -12 vvcurveto
            -27 -6 13 25 hvcurveto
            451 48 rmoveto
            14 34 13 1 vvcurveto
            12 -1 -13 -6 -18 -12 0 -14 -7 -12 0 9 hvcurveto
            40 vmoveto
            14 8 -3 9 vhcurveto
            9 -17 6 9 vvcurveto
            6 34 26 10 7 vhcurveto
            -61 vlineto
            -1 -30 -25 -5 -7 -2 7 6 vhcurveto
            -444 87 rmoveto
            -1 3 -11 13 2 vvcurveto
            9 11 17 4 7 8 -28 -4 -14 -12 -20 -12 -9 vhcurveto
            1 -1 7 1 10 7 5 7 vvcurveto
            484 6 rmoveto
            -12 -23 -8 -11 -5 vhcurveto
            -1 1 0 7 1 vvcurveto
            18 22 -2 13 vhcurveto
            4 56 rmoveto
            -3 1 -11 -2 vvcurveto
            -18 -2 -4 -18 vhcurveto
            -1 -9 -50 callgsubr
            7 13 11 13 13 11 rrcurveto
            -15 24 rmoveto
            -17 hlineto
            13 20 25 5 11 vhcurveto
            9 -23 0 -17 vhcurveto
            11 17 14 5 3 vhcurveto
            -6 3 -8 2 5 vvcurveto
            7 8 3 6 95 callgsubr
            -12 -6 rlineto
            11 -3 20 -4 -6 vvcurveto
            6 -67 rlineto
            -22 -32 -41 -24 vhcurveto
            38 35 -17 23 vvcurveto
            -485 49 rmoveto
            6 7 -13 6 rlineto
            -1 0 21 2 10 1 10 13 hvcurveto
            0 19 -8 -5 vvcurveto
            -61 vlineto
            3 2 -8 -1 -16 -8 -26 -13 -12 hvcurveto
            -1 -8 3 5 hvcurveto
            469 67 rmoveto
            2 4 -5 -1 hvcurveto
            -18 -18 rlineto
            -1 1 0 7 1 vvcurveto
            9 0 6 13 vhcurveto
            return
          </CharString>
          <CharString index="1">
            -20 hstemhm
            52 30 50 23 -11 247 -33 33 31 43 -31 31 hintmask 0110001110101000
            357 53 rmoveto
            -5 -1 -12 -12 vvcurveto
            -26 6 -8 29 31 35 1 27 8 vhcurveto
            71 -18 361 -7 vhcurveto
            -69 hlineto
            -11 -6 rlineto
            1 callgsubr
            -48 -19 -73 9 -72 -72 -12 -1 -12 -12 vvcurveto
            -35 -20 -36 -3 -42 hhcurveto
            -99 -14 49 110 hvcurveto
            33 1 37 44 vvcurveto
            -6 6 rlineto
            1 11 1 16 17 vvcurveto
            20 -4 40 -10 vhcurveto
            -62 7 rlineto
            -20 -4 -34 -12 hvcurveto
            -3 0 -6 -1 -6 5 -55 -7 vvcurveto
            -7 -11 -55 -1 -5 vhcurveto
            -1 0 -9 -3 vvcurveto
            1 -6 5 -61 1 -7 rrcurveto
            hintmask 1010001101010000
            -99 7 44 -110 106 hhcurveto
            116 12 52 13 20 hvcurveto
            -188 -23 rmoveto
            5 6 31 20 6 hhcurveto
            92 hlineto
            7 12 7 0 12 2 8 -1 3 hhcurveto
            -18 -18 -7 6 rlineto
            -30 -17 -15 -3 -36 hhcurveto
            14 vlineto
            -13 -11 -9 1 -13 hhcurveto
            -16 -24 2 10 -13 hvcurveto
            217 -7 rmoveto
            42 7 rlineto
            -5 vlineto
            -33 -11 rlineto
            -270 35 rmoveto
            -30 43 rlineto
            0 23 callsubr
            17 40 2 10 6 vhcurveto
            -14 -6 -5 -12 vvcurveto
            18 13 rlineto
            2 -1 4 -10 -2 vvcurveto
            -10 -13 -2 -11 vhcurveto
            -6 -5 -50 callgsubr
            hintmask 1001001110110000
            -7 56 -13 12 vlineto
            hintmask 1010001101001000
            -6 vlineto
            -37 -18 -9 6 -12 3 -10 3 rlinecurve
            301 26 rmoveto
            8 0 -10 -8 -13 -14 -2 -12 hvcurveto
            -8 -7 -50 callgsubr
            14 1 20 18 14 hhcurveto
            -55 -9 rmoveto
            5 21 10 22 13 hvcurveto
            -4 1 -3 7 4 vvcurveto
            -1 12 15 11 2 6 -15 -4 -10 -2 -3 -3 vhcurveto
            -3 -5 4 -6 hhcurveto
            -16 vlineto
            -37 -25 rlineto
            -2 2 -5 1 8 vvcurveto
            -289 89 rmoveto
            21 17 -6 20 2 vhcurveto
            -3 -13 -14 -16 -7 -8 12 -6 rcurveline
            hintmask 1010001110110000
            6 12 16 18 3 1 rrcurveto
            hintmask 1001001101010000
            11 1 -5 -7 -19 -28 -7 -17 -19 2 19 14 hvcurveto
            314 -16 rmoveto
            4 -1 11 8 7 12 -6 -4 -2 -14 -14 -5 -5 vhcurveto
            -8 2 1 8 6 vvcurveto
            34 54 rmoveto
            -26 -4 -2 -24 vhcurveto
            14 14 14 14 vhcurveto
            hintmask 1000101110110000
            5 callgsubr
            -5 -4 -13 -2 vhcurveto
            -56 hlineto
            17 22 18 21 21 18 rrcurveto
            278 -11 rmoveto
            -11 -3 15 0 16 11 17 18 hvcurveto
            -6 2 -39 -12 -10 vhcurveto
            11 hlineto
            -20 -15 -19 -21 vhcurveto
            14 -1 32 21 vhcurveto
            -336 18 rmoveto
            40 -7 hlineto
            -32 -30 rlineto
            -8 0 23 14 hvcurveto
            8 18 rmoveto
            6 vlineto
            6 10 32 28 7 hhcurveto
            1 0 -1 -1 hvcurveto
            -37 vlineto
            -6 -6 -6 -6 hhcurveto
            5 hlineto
            265 27 rmoveto
            3 12 7 7 -6 -7 3 6 vhcurveto
            hintmask 1000011101010000
            0 1 2 0 vhcurveto
            30 30 rlineto
            3 4 -9 -2 -14 -17 -43 -17 -5 -5 11 6 hvcurveto
            -264 33 rmoveto
            -9 -28 -22 -16 -11 vhcurveto
            41 11 1 33 vhcurveto
            5 44 rmoveto
            1 -3 3 -10 -3 vvcurveto
            -22 -10 1 -24 vhcurveto
            3 14 20 17 7 6 rrcurveto
            260 -28 rmoveto
            15 17 8 6 vvcurveto
            3 -4 2 -13 3 vhcurveto
            6 46 rlineto
            2 8 1 5 hhcurveto
            14 2 -11 -12 -43 -1 -9 -30 -18 hvcurveto
            -5 -1 8 1 hvcurveto
            -303 13 rmoveto
            15 5 4 10 vvcurveto
            -5 23 rlineto
            38 vlineto
            6 32 0 -10 hvcurveto
            -3 -8 -1 -5 -2 -6 10 12 -29 vvcurveto
            -26 -30 -9 -8 -23 vhcurveto
            -7 1 1 8 7 vvcurveto
            return
          </CharString>
          <CharString index="2">
            248 hmoveto
            117 -12 rlineto
            70 130 9 84 47 hvcurveto
            82 callgsubr
            4 vvcurveto
            29 19 -1 5 27 vhcurveto
            12 63 19 60 71 vvcurveto
            126 -36 53 -94 95 vhcurveto
            -11 11 -13 2 -14 6 rrcurveto
            -19 7 -122 22 1 vvcurveto
            -4 -18 0 -4 -27 -79 -25 -19 -1 -1 -56 callgsubr
            -110 -70 -42 -62 -15 -134 rrcurveto
            -3 -25 -9 -31 -23 vvcurveto
            -3 4 -5 2 vhcurveto
            -1 -3 0 -4 -3 vvcurveto
            -51 41 -121 34 -27 vhcurveto
            -9 11 31 -22 2 hhcurveto
            5 hlineto
            235 -19 rmoveto
            24 hlineto
            -24 -12 rlineto
            -142 25 rmoveto
            7 2 12 1 8 3 2 -26 callgsubr
            -10 -13 -4 -8 -2 24 callsubr
            vhcurveto
            339 74 rmoveto
            -4 4 -15 14 3 vvcurveto
            1 16 25 -5 6 12 rrcurveto
            -20 hlineto
            22 17 10 22 vhcurveto
            -85 -82 -71 -80 vhcurveto
            26 7 36 15 19 21 25 29 -26 5 50 3 rrcurveto
            -380 -14 rmoveto
            2 -23 22 -4 9 vhcurveto
            7 -5 12 -5 vhcurveto
            -4 -6 -1 -3 hhcurveto
            -18 -21 169 17 94 82 128 107 hvcurveto
            10 1 -7 11 16 15 14 17 return
          </CharString>
          <CharString index="3">
            rmoveto
            -8 -3 -8 1 -7 hhcurveto
            8 3 7 -1 8 hhcurveto
            -24 -12 rmoveto
            -8 -3 -6 1 -17 hhcurveto
            8 9 6 -1 11 hhcurveto
            -38 -13 rmoveto
            2 1 -49 callsubr
            1 -2 -33 callsubr
            -2 -1 1 11 callgsubr
            88 34 rmoveto
            11 1 18 -12 vhcurveto
            0 -3 -28 callgsubr
            -160 -81 rlineto
            -6 -3 -3 -28 -18 vvcurveto
            21 hlineto
            43 19 43 20 44 17 rrcurveto
            25 10 7 7 29 vvcurveto
            endchar
          </CharString>
          <CharString index="4">
            -178 33 rmoveto
            -22 -16 -44 -26 -3 -1 rrcurveto
            11 4 4 32 17 hhcurveto
            37 -18 rmoveto
            -1 -44 callsubr
            -13 -20 -12 -13 vhcurveto
            18 18 4 14 7 vhcurveto
            160 44 rmoveto
            22 23 -8 8 15 vhcurveto
            -16 -13 -7 -14 hhcurveto
            13 7 6 14 103 callsubr
            -5 -2 hhcurveto
            -10 0 16 6 6 -1 9 8 1 hvcurveto
            -6 1 -13 6 8 vvcurveto
            1 1 -36 callsubr
            43 43 rlineto
            6 hlineto
            4 20 -52 -4 hvcurveto
            -24 -25 rlineto
            5 5 14 9 2 hhcurveto
            17 -1 -33 -11 -25 -19 -22 -18 -15 hvcurveto
            -8 8 1 8 10 vvcurveto
            -135 37 rmoveto
            6 hlineto
            -45 -10 -11 -7 -43 hhcurveto
            13 37 14 21 25 vhcurveto
            return
          </CharString>
          <CharString index="5">
            12 87 -33 9 hhcurveto
            1 83 callgsubr
            hvcurveto
            72 -63 -4 -120 -86 -11 -1 -54 -11 vvcurveto
            -111 -30 -53 -20 -118 -5 -28 1 -7 hhcurveto
            -24 14 -26 -9 -24 13 rrcurveto
            12 -21 12 11 -25 hhcurveto
            -40 -16 rmoveto
            13 hlineto
            -6 -2 -6 -2 -5 hhcurveto
            -50 44 rmoveto
            33 hlineto
            -7 0 -25 -11 -6 -16 24 8 vhcurveto
            7 38 rmoveto
            -1 -44 callsubr
            -8 -8 -2 -7 vhcurveto
            8 7 5 7 1 vhcurveto
            -43 5 rmoveto
            2 2 8 5 2 hhcurveto
            2 5 -5 -2 hvcurveto
            -12 -12 rlineto
            6 -1 3 -6 3 vhcurveto
            32 44 rmoveto
            -6 -13 vlineto
            5 3 4 1 6 hhcurveto
            481 12 rmoveto
            4 -8 0 9 vvcurveto
            18 31 -8 7 14 vhcurveto
            return
          </CharString>
          <CharString index="6">
            -1 0 -56 callgsubr
            7 2 6 0 4 hhcurveto
            69 88 rmoveto
            2 -8 8 -5 vhcurveto
            -56 -19 rlineto
            6 vlineto
            43 15 12 42 43 11 rrcurveto
            97 callgsubr
            -7 -1 7 5 14 5 27 7 16 hvcurveto
            24 10 27 57 1 hhcurveto
            19 hlineto
            -3 -1 -4 -9 -3 vvcurveto
            3 -3 4 -3 -5 vvcurveto
            -12 -9 -15 0 vhcurveto
            -5 -12 10 -4 hhcurveto
            -6 -2 -5 -3 vvcurveto
            -4 2 -2 11 -2 vhcurveto
            -33 -20 vlineto
            7 -5 0 -5 -3 vvcurveto
            -42 -16 -22 -39 -13 vhcurveto
            7 12 -5 -4 hvcurveto
            -58 -18 -2 -32 -67 hhcurveto
            68 68 rlineto
            0 1 -36 callsubr
            -50 -22 rmoveto
            -4 -8 -7 -4 -1 -25 callgsubr
            2 8 9 4 vhcurveto
            0 1 0 -1 vvcurveto
            -38 44 rmoveto
            6 10 29 13 2 hhcurveto
            -20 callsubr
            -9 -6 -21 -16 -10 hhcurveto
            -1 -6 4 2 hvcurveto
            44 51 rmoveto
            0 6 100 callsubr
            -12 -13 -5 -12 -2 rrcurveto
            12 14 8 11 vhcurveto
            -28 48 rmoveto
            7 3 -7 -6 -14 -21 2 -11 hvcurveto
            19 25 rlineto
            0 -47 callgsubr
            vhcurveto
            -59 -6 rmoveto
            6 9 7 0 9 hhcurveto
            -18 -19 rlineto
            30 74 rmoveto
            4 9 -11 -4 -10 -14 -2 -11 hvcurveto
            -6 -6 -56 callgsubr
            10 15 16 10 vhcurveto
            -39 7 rmoveto
            12 callgsubr
            hvcurveto
            -4 -14 -7 -6 -13 -5 rrcurveto
            6 7 19 15 vhcurveto
            9 54 rmoveto
            12 -5 6 -15 -13 vvcurveto
            -12 -43 -23 callgsubr
            18 19 11 7 15 vhcurveto
            -41 -11 rmoveto
            9 callgsubr
            -2 -6 -4 -7 -6 -5 rrcurveto
            5 -1 14 10 vhcurveto
            260 43 rmoveto
            1 7 -26 callgsubr
            -13 -13 rlineto
            20 hlineto
            return
          </CharString>
          <CharString index="7">
            19 29 -4 8 15 vhcurveto
            -1 -30 -5 28 callsubr
            -7 1 6 -3 hhcurveto
            11 5 37 21 -2 hhcurveto
            10 -1 -22 -7 -13 -19 -34 -14 -8 -3 7 7 hvcurveto
            -296 49 rmoveto
            2 5 -7 callgsubr
            -17 -12 -13 -8 -18 hhcurveto
            9 8 14 16 14 hhcurveto
            265 6 rmoveto
            17 7 23 10 10 13 rrcurveto
            -22 -17 -19 -23 -1 -9 -50 callgsubr
            12 22 34 35 9 11 rrcurveto
            6 -31 vlineto
            16 6 16 15 17 hhcurveto
            10 -33 8 -20 -31 vvcurveto
            return
          </CharString>
          <CharString index="8">
            -70 callgsubr
            -35 callsubr
            vhcurveto
            -95 callgsubr
            return
          </CharString>
          <CharString index="9">
            -99 callsubr
            -81 callgsubr
            return
          </CharString>
          <CharString index="10">
            -13 -6 -5 -19 -8 -5 7 4 vhcurveto
            -198 49 rmoveto
            15 43 18 0 38 hhcurveto
            7 19 -19 callsubr
            6 7 3 5 hhcurveto
            6 5 -4 -19 hvcurveto
            -25 -7 9 -23 -6 -6 -8 -3 hhcurveto
            0 -9 66 callgsubr
            -15 -10 -47 -10 -10 hhcurveto
            -3 3 -4 17 2 vvcurveto
            183 3 rmoveto
            8 19 0 -10 -11 -32 -5 -8 hvcurveto
            -2 -6 -50 callgsubr
            14 12 11 11 vhcurveto
            return
          </CharString>
          <CharString index="11">
            -12 -9 -5 -9 hhcurveto
            -5 -9 4 4 5 15 4 5 hvcurveto
            -23 22 66 15 rlineto
            -2 1 -10 -3 vvcurveto
            -22 -3 -67 -29 -2 24 callsubr
            vhcurveto
            -8 -2 -10 0 -7 hhcurveto
            8 8 5 7 vvcurveto
            -501 56 rmoveto
            7 0 -9 -4 -11 -9 -1 -10 hvcurveto
            -2 -9 -56 callgsubr
            5 3 10 19 11 hhcurveto
            -10 35 rmoveto
            -16 -9 -15 -18 vhcurveto
            19 5 11 22 1 vhcurveto
            504 15 rmoveto
            11 9 30 19 15 hhcurveto
            9 -1 -18 -8 return
          </CharString>
          <CharString index="12">
            3 -19 callgsubr
            -58 callgsubr
            3 2 -69 callsubr
            return
          </CharString>
          <CharString index="13">
            348 5 rmoveto
            -9 vlineto
            6 6 4 1 7 12 0 -8 13 hhcurveto
            -3 71 9 5 30 hvcurveto
            11 23 11 -20 16 22 2 2 8 8 9 -5 3 5 18 26 9 18 29 57 5 104 3 56 rrcurveto
            17 -6 16 17 17 7 11 17 vvcurveto
            14 0 8 -7 13 vhcurveto
            3 27 3 66 0 37 -6 33 40 vvcurveto
            -6 6 rlineto
            -24 -27 -1 9 -10 hvcurveto
            -22 -4 -40 -30 hvcurveto
            -89 8 -78 -95 vvcurveto
            -85 -5 -63 -63 -76 vhcurveto
            return
          </CharString>
          <CharString index="14">
            -1 -8 -2 -9 hhcurveto
            -12 -8 2 14 hvcurveto
            3 7 8 22 4 hhcurveto
            16 9 -26 -13 -7 -3 -24 -13 -4 -6 12 5 hvcurveto
            -202 46 rmoveto
            7 -3 0 -4 -6 vvcurveto
            -11 -10 -3 -12 vhcurveto
            11 8 9 7 7 vhcurveto
            -32 9 rmoveto
            17 25 2 11 vhcurveto
            -19 -15 -12 -14 -10 vhcurveto
            -1 3 -6 16 3 vvcurveto
            197 2 rmoveto
            16 14 0 13 vhcurveto
            -12 -3 -14 -11 -8 vhcurveto
            -10 5 -3 5 8 vvcurveto
            -24 42 rmoveto
            9 16 6 0 vhcurveto
            14 -8 8 -5 -12 vvcurveto
            -10 -11 -3 -9 -5 -13 4 19 vhcurveto
            -140 10 rmoveto
            -16 -11 -11 -17 vhcurveto
            14 15 13 13 vhcurveto
            -1 24 rmoveto
            -6 vlineto
            -5 -31 -17 -2 vhcurveto
            21 14 7 19 vhcurveto
            117 -1 rmoveto
            9 9 14 0 11 hhcurveto
            -12 -6 -16 -13 -4 -7 12 7 -4 vhcurveto
            258 19 rmoveto
            2 2 7 17 5 hhcurveto
            3 24 -3 -10 3 hvcurveto
            -30 -30 rlineto
            -7 hlineto
            -2 -5 17 7 hvcurveto
            -413 hmoveto
            62 vlineto
            9 8 27 10 2 vvcurveto
            0 -1 -26 callsubr
            -16 4 -18 5 -8 vhcurveto
            -17 -32 -25 -6 -4 vhcurveto
            143 36 rmoveto
            2 -1 5 0 vhcurveto
            -18 -25 rlineto
            -20 17 -1 10 24 vvcurveto
            -21 0 11 24 -14 hvcurveto
            12 8 14 10 6 1 30 -31 rcurveline
            15 -20 29 -41 -23 vvcurveto
            -9 -35 0 -4 vhcurveto
            15 8 9 13 vvcurveto
            283 3 rmoveto
            11 14 18 5 6 vhcurveto
            8 0 -34 -11 hvcurveto
            -5 -22 -1 11 hvcurveto
            -19 29 rmoveto
            38 36 rlineto
            7 hlineto
            -4 -37 -53 -8 vhcurveto
            -326 107 rmoveto
            6 6 -19 0 hvcurveto
            -99 -49 rlineto
            -5 hlineto
            21 16 56 47 20 hhcurveto
            326 -28 rmoveto
            19 hlineto
            -13 5 -6 18 11 vvcurveto
            return
          </CharString>
          <CharString index="15">
            36 callgsubr
            21 callsubr
            -69 callsubr
            return
          </CharString>
          <CharString index="16">
            47 42 -39 49 hhcurveto
            18 vlineto
            -8 4 -35 40 -11 3 rrcurveto
            3 -10 -35 50 -28 hhcurveto
            -52 -69 -81 -11 -17 14 -2 12 hvcurveto
            return
          </CharString>
          <CharString index="17">
            294 -5 rmoveto
            3 8 5 2 2 hvcurveto
            -1 8 -1 13 14 vvcurveto
            18 2 19 6 14 vhcurveto
            203 vlineto
            5 7 rlineto
            -3 1 callsubr
            2 vvcurveto
            47 40 26 22 36 vhcurveto
            11 27 61 96 45 68 rrcurveto
            7 10 30 7 10 vvcurveto
            5 -3 11 -3 vhcurveto
            -83 hlineto
            -21 17 6 9 -16 vhcurveto
            -14 -6 -8 -5 -13 hhcurveto
            -16 6 12 7 -11 hvcurveto
            -29 -34 -84 -181 -28 -62 -119 241 -21 hhcurveto
            -19 -60 -10 -8 hvcurveto
            -17 20 -10 -20 -11 -21 3 -13 vvcurveto
            33 hlineto
            2 31 -31 -12 10 hvcurveto
            -16 13 2 -32 23 hhcurveto
            -12 44 -63 11 -14 vhcurveto
            28 -35 22 -3 -45 return
          </CharString>
          <CharString index="18">
            3 -54 callgsubr
            -46 callgsubr
            3 2 -69 callsubr
            return
          </CharString>
          <CharString index="19">
            -11 -2 5 8 48 35 -13 15 27 hvcurveto
            -25 hlineto
            12 16 -10 61 25 10 20 -13 6 5 -10 callsubr
            hhcurveto
            -2 41 -32 -41 hvcurveto
            -74 -25 -16 -32 -31 -26 -34 -9 rlinecurve
            return
          </CharString>
          <CharString index="20">
            1 -1 6 2 vvcurveto
            19 16 -6 10 14 vhcurveto
            50 vmoveto
            1 3 -7 callgsubr
            -10 -6 -12 -10 -13 hhcurveto
            14 14 6 13 vhcurveto
            37 vmoveto
            -6 -11 -14 -6 -7 hhcurveto
            7 30 rlineto
            1 41 0 7 17 19 -1 -6 14 vhcurveto
            -7 -2 -68 -30 -10 hhcurveto
            return
          </CharString>
          <CharString index="21">
            7 hmoveto
            -10 28 13 -3 25 hhcurveto
            30 -7 47 22 10 hvcurveto
            30 68 3 15 11 40 rrcurveto
            48 36 -6 41 26 25 6 26 hhcurveto
            38 25 -76 -28 11 hvcurveto
            return
          </CharString>
          <CharString index="22">
            rmoveto
            -14 3 -10 27 51 23 109 2 6 vhcurveto
            9 -3 -13 1 -7 hhcurveto
            -5 -30 -4 -1 -1 hvcurveto
            -49 -84 rlineto
            -1 -1 -7 -1 hvcurveto
            32 8 rmoveto
            24 50 rlineto
            11 -5 7 7 vvcurveto
            5 13 0 3 9 5 -2 -14 vhcurveto
            -19 -13 -28 -51 -8 hhcurveto
            39 16 rmoveto
            -4 -2 -1 1 callgsubr
            0 1 2 2 3 1 1 -6 callsubr
            -4 50 rmoveto
            -3 -2 -3 -2 -3 2 -2 3 2 1 -49 callsubr
            -1 3 -2 hvcurveto
            endchar
          </CharString>
          <CharString index="23">
            3 1 -3 -4 -3 -1 -3 -3 -8 callsubr
            return
          </CharString>
          <CharString index="24">
            0 22 -14 -9 vvcurveto
            -10 -15 -5 -10 -4 -8 0 6 vhcurveto
            -303 12 rmoveto
            9 20 4 4 2 5 -26 callsubr
            -25 -25 rlineto
            -1 1 -5 9 2 vvcurveto
            420 43 rmoveto
            38 hlineto
            -4 -11 -15 -8 -5 vhcurveto
            24 hlineto
            -13 -8 -20 -13 -15 hhcurveto
            -376 75 rmoveto
            1 -1 1 -9 -1 vvcurveto
            -20 -16 -6 -17 vhcurveto
            4 14 20 17 7 6 rrcurveto
            -6 19 rmoveto
            -6 vlineto
            -32 -31 rlineto
            33 9 -2 23 6 vhcurveto
            389 -19 rmoveto
            -5 13 -9 -12 28 vvcurveto
            20 1 28 6 16 vhcurveto
            1 1 10 10 1 2 rrcurveto
            1 -1 3 1 vvcurveto
            -7 hlineto
            15 22 23 14 2 8 -8 -4 -17 -18 2 -7 -11 vhcurveto
            24 hlineto
            -24 -19 -23 -18 -15 vhcurveto
            -11 vlineto
            3 22 -3 28 21 hhcurveto
            -14 -24 -39 -9 -10 vhcurveto
            5 7 14 3 3 hhcurveto
            -25 -43 vlineto
            3 5 9 2 -1 hvcurveto
            -187 10 rmoveto
            7 15 1 5 6 vhcurveto
            return
          </CharString>
          <CharString index="25">
            -141 19 -146 -141 vvcurveto
            -1 -1 -5 -5 -1 hhcurveto
            11 -4 0 -37 1 -2 12 -37 19 -26 26 -30 rrcurveto
            -64 55 40 -2 78 11 13 1 13 hhcurveto
            -136 40 rmoveto
            1 -1 -36 callsubr
            return
          </CharString>
          <CharString index="26">
            16 callsubr
            hintmask 01110100
            2 2 3 9 2 vvcurveto
            332 vlineto
            11 -4 48 -1 10 vhcurveto
            13 5 5 12 vvcurveto
            hintmask 10101000
            -40 callsubr
            hintmask 10110100
            -34 callsubr
            hintmask 01101000
            -57 callsubr
            return
          </CharString>
          <CharString index="27">
            6 -27 -9 0 -23 hhcurveto
            -20 -9 0 -6 -23 hvcurveto
            -8 1 -8 -7 -44 -9 -34 -43 vvcurveto
            -29 8 -30 6 -25 vhcurveto
            -130 -13 -118 -122 vvcurveto
            -13 5 -56 2 -12 vhcurveto
            68 75 rmoveto
            -7 vlineto
            -32 -30 rlineto
            -16 hlineto
            34 19 3 29 vhcurveto
            389 -32 rmoveto
            12 vlineto
            30 13 rlineto
            -1 0 33 callsubr
            -3 0 -20 -6 2 vhcurveto
            67 vmoveto
            7 hlineto
            -21 -19 -10 -19 vhcurveto
            -7 19 rmoveto
            -13 -10 -3 -11 vhcurveto
            13 11 2 10 1 vhcurveto
            -419 41 rmoveto
            29 5 12 32 4 vhcurveto
            -6 -19 -40 -5 -7 1 -6 -6 vvcurveto
            -6 -1 -5 -6 -5 vhcurveto
            14 16 12 7 8 hvcurveto
            1 -1 1 -8 -1 vvcurveto
            -17 -19 1 -14 -17 -3 13 15 vhcurveto
            7 1 7 6 vvcurveto
            419 14 rmoveto
            0 1 -3 -1 vvcurveto
            -15 -31 -26 -16 vhcurveto
            24 28 15 18 6 vhcurveto
            return
          </CharString>
          <CharString index="28">
            3 -54 callgsubr
            -41 callsubr
            3 1 -69 callsubr
            return
          </CharString>
          <CharString index="29">
            rmoveto
            3 -19 callgsubr
            -3 -1 -3 -3 -4 -1 -54 callsubr
            1 3 4 hvcurveto
            return
          </CharString>
          <CharString index="30">
            35 -68 -7 20 vvcurveto
            -1 1 -5 10 0 3 1 3 3 12 -4 11 12 50 16 49 52 vvcurveto
            31 -9 101 -43 vhcurveto
            return
          </CharString>
          <CharString index="31">
            -25 callsubr
            -2 3 -49 callsubr
            -69 callsubr
            return
          </CharString>
          <CharString index="32">
            -2 -3 -14 -5 -2 hhcurveto
            -5 -22 5 2 -3 hvcurveto
            -28 9 rmoveto
            9 -9 -37 -5 rlineto
            108 54 rmoveto
            26 -6 return
          </CharString>
          <CharString index="33">
            -118 203 41 -28 28 28 30 hstemhm
            48 25 254 36 hintmask 10111000
            338 203 rmoveto
            20 5 20 5 23 -8 40 -22 11 hvcurveto
            -98 -91 -8 -96 hhcurveto
            hintmask 01111000
            -78 148 vlineto
            hintmask 10111000
            17 10 108 -30 24 hhcurveto
            -166 44 rmoveto
            -1 -8 -17 -2 -19 hhcurveto
            -20 -35 0 15 14 14 -1 14 hvcurveto
            9 31 -13 10 9 -1 13 26 hhcurveto
            5 5 -1 -6 1 hvcurveto
            6 31 16 31 callsubr
            0 10 -6 2 vhcurveto
            1 10 6 1 1 11 -6 1 hhcurveto
            6 4 1 1 23 hhcurveto
            8 8 -1 -12 -16 -20 2 -15 -8 -8 1 6 hvcurveto
            -6 -5 rlineto
            -74 hlineto
            -3 -10 -4 -2 -2 -9 4 3 -1 vhcurveto
            endchar
          </CharString>
          <CharString index="34">
            rmoveto
            5 -6 rlineto
            6 30 -2 6 hhcurveto
            18 23 1 7 16 hvcurveto
            -1 24 callsubr
            3 5 9 1 1 hvcurveto
            67 vlineto
            2 -4 4 -4 vhcurveto
            -4 -12 -3 -3 hhcurveto
            30 28 22 25 vvcurveto
            22 -18 3 -20 -18 -15 -43 -24 -16 vhcurveto
            -33 -8 1 -28 -28 vvcurveto
            -28 1 -18 25 -8 vhcurveto
            68 39 rmoveto
            -21 -31 vlineto
            7 return
          </CharString>
          <CharString index="35">
            -3 -4 0 -3 hhcurveto
            -8 -8 1 7 -6 hvcurveto
            37 46 rmoveto
            -49 15 rlineto
            14 17 30 17 15 hhcurveto
            2 -4 4 -22 -5 vvcurveto
            return
          </CharString>
          <CharString index="36">
            -3 -63 callsubr
            3 return
          </CharString>
          <CharString index="37">
            rmoveto
            -5 6 rlineto
            -6 -30 2 -6 hhcurveto
            -18 -23 -1 -7 -16 hvcurveto
            1 5 -5 -1 -3 -5 -9 -1 -1 hvcurveto
            -67 vlineto
            -2 4 -4 4 vhcurveto
            4 12 3 3 hhcurveto
            -30 -28 -22 -25 vvcurveto
            -22 18 -3 20 18 15 43 24 16 vhcurveto
            33 8 -1 28 28 vvcurveto
            28 -1 18 -25 8 vhcurveto
            return
          </CharString>
          <CharString index="38">
            3 3 hvcurveto
            return
          </CharString>
          <CharString index="39">
            -20 -93 callgsubr
            return
          </CharString>
          <CharString index="40">
            -1 -46 callsubr
            return
          </CharString>
          <CharString index="41">
            12 3 7 9 hhcurveto
            4 1 35 4 3 1 rrcurveto
            10 4 59 91 4 vvcurveto
            5 0 5 -6 2 vhcurveto
            5 10 20 8 6 vhcurveto
            -12 vlineto
            10 19 -11 -1 25 25 31 39 -32 51 57 52 rrcurveto
            18 59 35 68 59 vvcurveto
            11 2 1 4 hvcurveto
            4 -1 5 9 vvcurveto
            9 hlineto
            1 15 33 7 4 hvcurveto
            1 -5 9 -3 19 6 70 16 12 vhcurveto
            7 -6 rlineto
            42 -23 2 -33 -30 -7 -1 -31 -6 vhcurveto
            -18 -87 -60 -141 -40 -74 -5 30 -33 22 -11 35 -40 74 -41 87 -30 79 rrcurveto
            return
          </CharString>
          <CharString index="42">
            -1 -31 -6 -9 -2 vhcurveto
            -260 1 rlineto
            -6 -14 -20 -2 -19 -30 -14 8 -20 hhcurveto
            -4 -8 -4 -3 hvcurveto
            -49 vlineto
            -5 6 1 4 vhcurveto
            75 59 9 85 hhcurveto
            29 27 -7 -29 -14 -9 -29 -16 -30 hvcurveto
            -64 -123 -81 -110 -65 -119 rrcurveto
            -15 -27 -66 -74 -21 vvcurveto
            127 36 85 callgsubr
            4 hhcurveto
            -17 -12 -34 0 -16 hhcurveto
            11 15 11 7 20 hhcurveto
            38 hmoveto
            10 9 1 -8 7 hvcurveto
            -12 -9 -31 1 -13 -3 rrcurveto
            17 8 8 1 14 hhcurveto
            150 -1 rmoveto
            return
          </CharString>
          <CharString index="43">
            16 -12 3 -13 vhcurveto
            -8 -8 -1 -7 -24 -40 10 -25 hhcurveto
            -46 -58 -5 -54 -24 4 -29 22 hvcurveto
            return
          </CharString>
          <CharString index="44">
            -1 3 2 3 1 3 return
          </CharString>
          <CharString index="45">
            -96 callsubr
            hvcurveto
            return
          </CharString>
          <CharString index="46">
            1 -13 38 -24 24 -9 -21 160 30 -12 36 -36 129 -79 43 369 25 return
          </CharString>
          <CharString index="47">
            -62 -5 79 -65 -21 50 36 162 134 -5 103 -72 35 14 23 return
          </CharString>
          <CharString index="48">
            3 2 -3 -4 -41 callsubr
            return
          </CharString>
          <CharString index="49">
            12 21 11 11 vhcurveto
            -17 vlineto
            5 4 2 3 hhcurveto
            4 1 -3 -14 hvcurveto
            -6 -8 -17 -7 -6 hhcurveto
            -295 63 rmoveto
            2 -3 4 -13 -3 vvcurveto
            -19 -20 -3 -12 vhcurveto
            18 13 13 13 10 vhcurveto
            259 -19 rmoveto
            3 5 13 1 3 vhcurveto
            -5 -5 -9 -2 -2 hhcurveto
            -7 -2 4 5 hvcurveto
            6 3 8 4 vvcurveto
            -16 -6 6 17 10 2 22 14 2 1 -19 callsubr
            31 -62 rlineto
            0 1 1 2 vhcurveto
            return
          </CharString>
          <CharString index="50">
            -23 6 -204 -62 -8 -6 -59 -7 -3 6 -19 -3 -11 0 -53 -10 vvcurveto
            33 callgsubr
            50 hlineto
            return
          </CharString>
          <CharString index="51">
            1 -1 9 1 vvcurveto
            36 21 4 32 vhcurveto
            -2 -26 rmoveto
            1 -2 0 33 callsubr
            -13 -11 -3 -12 vhcurveto
            -6 -6 1 -5 hhcurveto
            10 11 15 8 14 6 rrcurveto
            67 vmoveto
            1 4 -5 -1 -27 -23 2 -21 hvcurveto
            15 12 19 16 8 hhcurveto
            18 vmoveto
            -6 vlineto
            -39 -24 rlineto
            0 0 7 1 vvcurveto
            5 0 17 7 vhcurveto
            56 43 rmoveto
            -1 0 callsubr
            -13 -10 -10 -13 return
          </CharString>
          <CharString index="52">
            -16 -63 -6 -51 hhcurveto
            -6 -5 -6 -1 -7 hhcurveto
            -23 -14 0 7 -19 hvcurveto
            -124 -265 hlineto
            return
          </CharString>
          <CharString index="53">
            3 3 3 return
          </CharString>
          <CharString index="54">
            3 1 3 3 4 -67 callsubr
            return
          </CharString>
          <CharString index="55">
            2 2 -3 -4 -3 -2 -3 -2 -8 callsubr
            return
          </CharString>
          <CharString index="56">
            -1 1 hhcurveto
            return
          </CharString>
          <CharString index="57">
            -18 19 -2 2 -65 12 -26 4 rlinecurve
            -48 -2 7 -20 hhcurveto
            -71 -93 -14 -61 -45 hvcurveto
            -18 -28 -24 -30 -37 vvcurveto
            -56 20 -54 54 -23 vhcurveto
            271 -118 rlineto
            26 -10 18 -47 -26 vvcurveto
            -79 -119 -16 -54 vhcurveto
            -10 1 8 -29 -10 -11 -1 -3 hhcurveto
            5 -1 -6 1 -6 hhcurveto
            -9 -9 -2 0 hvcurveto
            -86 50 rlineto
            return
          </CharString>
          <CharString index="58">
            2 3 2 return
          </CharString>
          <CharString index="59">
            99 -14 97 99 vvcurveto
            8 1 3 30 6 hhcurveto
            17 91 -135 -32 12 hvcurveto
            8 -22 22 -14 13 -20 rrcurveto
            -14 8 7 -35 22 hhcurveto
            -28 19 9 -57 35 hhcurveto
            -12 0 -1 12 vhcurveto
            -46 53 -15 21 -32 vhcurveto
            -3 9 43 -10 24 hhcurveto
            15 -9 17 5 vvcurveto
            -7 51 1 55 51 61 13 62 64 vvcurveto
            return
          </CharString>
          <CharString index="60">
            -7 34 71 -7 49 hhcurveto
            44 37 10 16 42 hvcurveto
            1 5 5 1 vhcurveto
            80 13 -1 16 21 76 rrcurveto
            5 28 13 17 30 vvcurveto
            72 -83 63 -66 13 vhcurveto
            -80 -13 44 18 -61 hvcurveto
            -1 -7 -1 -5 hhcurveto
            -25 -60 51 32 75 84 23 60 63 65 -47 -24 57 hvcurveto
            5 17 25 7 hvcurveto
            74 vlineto
            return
          </CharString>
          <CharString index="61">
            3 -3 hvcurveto
            return
          </CharString>
          <CharString index="62">
            -8 callgsubr
            2 2 3 3 3 84 callsubr
            return
          </CharString>
          <CharString index="63">
            1 -28 callsubr
            return
          </CharString>
          <CharString index="64">
            24 26 8 72 54 vvcurveto
            13 -1 12 -13 9 vhcurveto
            1 5 4 1 hvcurveto
            hintmask 100100111101110101100000
            17 -19 30 -12 vhcurveto
            hintmask 010001011101110101100000
            48 -79 10 -36 -72 -35 -83 -53 -31 vhcurveto
            0 -1 -14 -19 vvcurveto
            -54 8 -100 64 vhcurveto
            hintmask 001100111101110101100000
            -13 6 -4 11 5 6 0 2 6 vhcurveto
            return
          </CharString>
          <CharString index="65">
            -3 -2 -3 -3 -2 62 callsubr
            2 3 -67 callsubr
            return
          </CharString>
          <CharString index="66">
            65 callgsubr
            -1 3 3 return
          </CharString>
          <CharString index="67">
            67 -18 70 67 vvcurveto
            5 5 8 6 8 vvcurveto
            19 -29 -1 -8 vhcurveto
            return
          </CharString>
          <CharString index="68">
            -2 -3 -2 -4 -1 3 return
          </CharString>
          <CharString index="69">
            -33 callgsubr
            hvcurveto
            return
          </CharString>
          <CharString index="70">
            -40 -40 12 -41 hhcurveto
            -16 -1 -34 -28 hvcurveto
            -8 0 -8 -6 vvcurveto
            73 74 2 -16 72 hvcurveto
            -49 -29 -17 -21 -34 vhcurveto
            -28 -46 -27 -46 -25 -49 rrcurveto
            -18 -36 -62 -49 -34 vvcurveto
            -11 5 2 7 vhcurveto
            -8 vlineto
            -8 99 7 6 -11 vhcurveto
            80 hlineto
            return
          </CharString>
          <CharString index="71">
            3 0 vhcurveto
            return
          </CharString>
          <CharString index="72">
            7 17 -2 14 return
          </CharString>
          <CharString index="73">
            -14 -60 -3 -9 hvcurveto
            -58 13 -100 -12 -9 -1 -7 -6 vvcurveto
            return
          </CharString>
          <CharString index="74">
            -2 -2 -1 -1 -2 return
          </CharString>
          <CharString index="75">
            -16 43 2 62 40 vvcurveto
            25 3 23 17 10 vhcurveto
            26 45 24 6 27 hhcurveto
            64 -7 -20 -30 38 hvcurveto
            16 -62 5 -63 -63 vvcurveto
            -34 -2 -35 -1 -34 vhcurveto
            6 -8 3 -11 -10 vvcurveto
            72 110 rmoveto
            -43 vlineto
            return
          </CharString>
          <CharString index="76">
            -52 -39 -49 -41 -16 -2 42 -35 hhcurveto
            -8 -19 -4 -8 -10 hvcurveto
            -13 1 -38 -38 -94 -7 -27 -67 vvcurveto
            -45 4 -108 11 callgsubr
            19 -12 rlineto
            1 73 -6 9 hhcurveto
            4 5 0 6 hvcurveto
            129 vlineto
            return
          </CharString>
          <CharString index="77">
            18 callgsubr
            -3 -2 3 -49 callsubr
            -69 callsubr
            return
          </CharString>
          <CharString index="78">
            1 -1 1 1 vvcurveto
            return
          </CharString>
          <CharString index="79">
            -2 -1 vvcurveto
            return
          </CharString>
          <CharString index="80">
            105 4 71 -71 104 -92 -21 58 22 -9 30 30 86 return
          </CharString>
          <CharString index="81">
            0 0 vhcurveto
            return
          </CharString>
          <CharString index="82">
            -37 callgsubr
            -3 return
          </CharString>
          <CharString index="83">
            3 -12 callsubr
            -3 return
          </CharString>
          <CharString index="84">
            vhcurveto
            1 7 -51 callsubr
            return
          </CharString>
          <CharString index="85">
            12 -19 39 -39 65 3 32 372 43 return
          </CharString>
          <CharString index="86">
            22 callsubr
            19 18 rlineto
            -19 hlineto
            7 10 25 43 18 hhcurveto
            10 -27 -1 -22 -26 vvcurveto
            -37 -37 rlineto
            18 1 20 15 hhcurveto
            0 2 -40 callgsubr
            3 -3 3 -18 -4 vvcurveto
            return
          </CharString>
          <CharString index="87">
            0 3 -26 callsubr
            return
          </CharString>
          <CharString index="88">
            -1 0 hvcurveto
            return
          </CharString>
          <CharString index="89">
            19 9 14 16 10 vhcurveto
            -75 vlineto
            -13 -12 20 12 hvcurveto
            105 67 rmoveto
            37 26 -14 -38 hvcurveto
            return
          </CharString>
          <CharString index="90">
            -24 2 -16 -28 -7 -7 1 9 vhcurveto
            6 34 rmoveto
            -30 12 rlineto
            7 vlineto
            4 28 8 2 11 14 -6 -14 -3 -18 -24 -21 vhcurveto
            10 6 5 8 1 vhcurveto
            -33 56 rmoveto
            return
          </CharString>
          <CharString index="91">
            19 30 14 13 6 vhcurveto
            -11 -13 -3 -3 -13 hvcurveto
            10 18 20 19 14 13 rrcurveto
            -4 0 -19 -2 -49 -38 2 -22 vvcurveto
            8 13 15 18 16 hhcurveto
            -30 -11 -8 -27 return
          </CharString>
          <CharString index="92">
            -28 42 29 3 -70 hvcurveto
            6 vlineto
            3 4 24 24 10 hhcurveto
            -7 -1 -4 -6 -3 vhcurveto
            return
          </CharString>
          <CharString index="93">
            rmoveto
            -28 10 41 -5 33 18 16 2 6 hhcurveto
            12 12 rlineto
            -9 vlineto
            31 6 44 23 return
          </CharString>
          <CharString index="94">
            -2 -3 6 callgsubr
            return
          </CharString>
          <CharString index="95">
            1 -3 -2 -3 -1 -2 return
          </CharString>
          <CharString index="96">
            1 -1 2 1 vvcurveto
            return
          </CharString>
          <CharString index="97">
            4 1 3 return
          </CharString>
          <CharString index="98">
            -35 callsubr
            hvcurveto
            -95 callgsubr
            return
          </CharString>
          <CharString index="99">
            -3 -2 3 3 4 2 -69 callsubr
            return
          </CharString>
          <CharString index="100">
            -1 12 callsubr
            return
          </CharString>
          <CharString index="101">
            0 -3 callsubr
            return
          </CharString>
          <CharString index="102">
            rmoveto
            -3 -1 -3 82 callsubr
            3 74 callgsubr
            84 callsubr
            return
          </CharString>
          <CharString index="103">
            23 -64 4 -26 -18 -11 0 -7 -20 vhcurveto
            return
          </CharString>
          <CharString index="104">
            0 -40 callgsubr
            return
          </CharString>
          <CharString index="105">
            1 -2 2 return
          </CharString>
          <CharString index="106">
            -1 vvcurveto
            -2 -9 -6 -4 vhcurveto
            return
          </CharString>
          <CharString index="107">
            1 -1 -1 vvcurveto
            return
          </CharString>
          <CharString index="108">
            3 -2 3 return
          </CharString>
          <CharString index="109">
            96 -112 -3 -64 -210 -139 -181 -203 vhcurveto
            235 -234 rmoveto
            -3 -7 -5 -4 -6 hhcurveto
            0 -1 -26 callsubr
            return
          </CharString>
          <CharString index="110">
            150 -12 67 56 44 190 168 -7 24 -24 50 29 38 return
          </CharString>
          <CharString index="111">
            -56 7 -69 38 37 -9 26 30 3 vhcurveto
            7 69 18 74 72 vvcurveto
            return
          </CharString>
          <CharString index="112">
            hstemhm
            20 116 -37 37 284 24 return
          </CharString>
          <CharString index="113">
            rmoveto
            0 -44 callsubr
            return
          </CharString>
          <CharString index="114">
            19 12 -19 26 hhcurveto
            7 66 -45 -24 -27 -51 -29 -24 hvcurveto
            -117 26 rlineto
            -10 -9 14 4 -15 hvcurveto
            -9 -1 -19 -10 hvcurveto
            return
          </CharString>
          <CharString index="115">
            hstemhm
            75 35 -35 47 24 26 -22 22 -22 36 -36 219 -85 233 -73 73 -60 84 -54 30 -30 54 27 23 -23 37 return
          </CharString>
          <CharString index="116">
            -1 -5 -56 callgsubr
            return
          </CharString>
          <CharString index="117">
            0 6 hhcurveto
            return
          </CharString>
          <CharString index="118">
            24 18 rmoveto
            -20 -34 -27 -9 -13 hvcurveto
            -24 25 7 8 20 8 5 3 rlinecurve
            1 callsubr
            -4 -4 -1 1 callgsubr
            vvcurveto
            return
          </CharString>
          <CharString index="119">
            5 1 vvcurveto
            return
          </CharString>
          <CharString index="120">
            28 -42 -29 -3 70 hvcurveto
            -6 vlineto
            -3 -4 -24 -24 -10 hhcurveto
            return
          </CharString>
          <CharString index="121">
            64 callgsubr
            -3 -2 -3 -3 return
          </CharString>
          <CharString index="122">
            -3 -2 -3 -2 -3 -2 3 3 return
          </CharString>
          <CharString index="123">
            -8 rmoveto
            -10 7 11 -9 13 hhcurveto
            return
          </CharString>
          <CharString index="124">
            23 callgsubr
            1 -1 -1 return
          </CharString>
          <CharString index="125">
            hintmask 10000001011001000110101010100000
            return
          </CharString>
          <CharString index="126">
            21 12 4 23 22 vvcurveto
            return
          </CharString>
          <CharString index="127">
            1 0 1 1 1 vhcurveto
            return
          </CharString>
          <CharString index="128">
            -1 -49 callsubr
            1 return
          </CharString>
          <CharString index="129">
            85 callsubr
            vhcurveto
            return
          </CharString>
          <CharString index="130">
            -1 4 2 vvcurveto
            return
          </CharString>
          <CharString index="131">
            -5 5 1 return
          </CharString>
          <CharString index="132">
            4 19 12 3 20 hhcurveto
            5 5 -1 -6 1 hvcurveto
            -6 -9 -6 1 -9 hhcurveto
            -6 1 -26 3 -6 1 rrcurveto
            return
          </CharString>
          <CharString index="133">
            -5 -5 1 6 -3 hvcurveto
            105 6 rmoveto
            6 -6 -6 hlineto
            -153 126 rmoveto
            11 -37 18 -49 2 -6 rrcurveto
            return
          </CharString>
          <CharString index="134">
            4 1 vvcurveto
            return
          </CharString>
          <CharString index="135">
            -1 -2 hvcurveto
            return
          </CharString>
          <CharString index="136">
            31 240 50 hstemhm
            30 86 -30 30 161 20 6 49 109 32 -32 75 137 42 -42 81 return
          </CharString>
          <CharString index="137">
            -8 5 1 -2 return
          </CharString>
          <CharString index="138">
            0 3 hhcurveto
            return
          </CharString>
          <CharString index="139">
            1 -3 hhcurveto
            return
          </CharString>
          <CharString index="140">
            -7 -1 vvcurveto
            return
          </CharString>
          <CharString index="141">
            -104 23 -21 25 234 -203 203 -54 216 -197 35 -35 60 124 31 0 37 return
          </CharString>
          <CharString index="142">
            2 -54 callgsubr
            -2 -2 -3 -2 -3 return
          </CharString>
          <CharString index="143">
            hintmask 10001000100000100001010001110000
            return
          </CharString>
          <CharString index="144">
            2 -1 9 1 vvcurveto
            return
          </CharString>
          <CharString index="145">
            4 15 5 2 13 return
          </CharString>
          <CharString index="146">
            20 37 4 12 vhcurveto
            1 5 -26 callgsubr
            -3 -7 -4 -7 -5 -5 rrcurveto
            2 1 1 1 hhcurveto
            return
          </CharString>
          <CharString index="147">
            1 7 -1 1 1 10 6 2 hhcurveto
            1 5 -4 -2 hvcurveto
            hintmask 10100000
            12 10 7 1 14 return
          </CharString>
          <CharString index="148">
            2 16 0 9 hvcurveto
            66 vlineto
            23 -67 3 -43 -40 -171 -3 -106 -64 54 -79 64 vhcurveto
            return
          </CharString>
          <CharString index="149">
            hlineto
            10 callgsubr
            return
          </CharString>
          <CharString index="150">
            -7 -9 -21 -18 -4 hhcurveto
            -25 -15 59 18 hvcurveto
            241 71 rmoveto
            2 4 5 1 vhcurveto
            return
          </CharString>
          <CharString index="151">
            hstemhm
            68 27 -27 141 -67 22 -22 36 218 25 -25 39 21 51 -33 33 return
          </CharString>
          <CharString index="152">
            rmoveto
            21 31 vlineto
            -7 -10 -11 -10 -13 -1 rrcurveto
            return
          </CharString>
          <CharString index="153">
            13 41 4 9 vhcurveto
            -19 vlineto
            return
          </CharString>
          <CharString index="154">
            hmoveto
            3 -19 callgsubr
            -3 -1 -3 -3 -4 -1 -54 callsubr
            1 3 4 hvcurveto
            return
          </CharString>
          <CharString index="155">
            hmoveto
            35 callsubr
            -2 3 -49 callsubr
            -69 callsubr
            return
          </CharString>
          <CharString index="156">
            -13 -3 -10 -12 -2 -7 0 -23 callgsubr
            6 3 0 6 5 vvcurveto
            endchar
          </CharString>
          <CharString index="157">
            -17 -8 1 -22 hhcurveto
            -20 -26 -2 -11 hvcurveto
            3 -445 4 -109 rlineto
            return
          </CharString>
          <CharString index="158">
            11 14 -6 -12 0 -5 -1 -1 -9 -10 5 7 -5 hvcurveto
            -105 13 rmoveto
            return
          </CharString>
          <CharString index="159">
            72 callsubr
            -3 -2 3 -49 callsubr
            -69 callsubr
            return
          </CharString>
          <CharString index="160">
            3 1 -4 -3 -4 -1 -3 -3 -3 -2 3 4 3 2 4 3 hvcurveto
            return
          </CharString>
          <CharString index="161">
            3 5 6 4 5 hhcurveto
            14 2 -6 -12 return
          </CharString>
          <CharString index="162">
            0 101 callgsubr
            return
          </CharString>
          <CharString index="163">
            2 -7 callsubr
            return
          </CharString>
          <CharString index="164">
            -62 -7 30 -16 -21 35 -21 35 32 329 30 -30 66 -19 31 return
          </CharString>
          <CharString index="165">
            rmoveto
            -4 -1 -3 -3 -2 1 -3 4 return
          </CharString>
          <CharString index="166">
            2 2 46 callgsubr
            return
          </CharString>
          <CharString index="167">
            hintmask 0000000011010100100101011011000010101000
            return
          </CharString>
          <CharString index="168">
            hstemhm
            63 31 -18 30 18 32 return
          </CharString>
          <CharString index="169">
            2 -3 3 3 1 3 return
          </CharString>
          <CharString index="170">
            -15 31 16 -1 31 hhcurveto
            return
          </CharString>
          <CharString index="171">
            rmoveto
            94 callgsubr
            return
          </CharString>
          <CharString index="172">
            9 9 6 10 hhcurveto
            return
          </CharString>
          <CharString index="173">
            2 1 -3 -2 hvcurveto
            hintmask 000111100110011100001110
            -3 -1 -2 -2 -3 return
          </CharString>
          <CharString index="174">
            -14 0 -56 19 vhcurveto
            9 0 7 10 12 63 -26 10 hhcurveto
            return
          </CharString>
          <CharString index="175">
            23 275 rmoveto
            -140 116 -151 144 -11 vhcurveto
            return
          </CharString>
          <CharString index="176">
            16 -12 -47 1 -20 -16 -11 -6 -18 hhcurveto
            13 6 rlineto
            return
          </CharString>
          <CharString index="177">
            -4 -18 -8 0 vhcurveto
            15 -5 1 -21 -11 vvcurveto
            -37 hlineto
            return
          </CharString>
          <CharString index="178">
            91 callgsubr
            185 -143 143 return
          </CharString>
          <CharString index="179">
            2 -19 callgsubr
            -2 -1 -3 -2 return
          </CharString>
          <CharString index="180">
            hintmask 10000100100100111010101101100000
            return
          </CharString>
          <CharString index="181">
            1 callgsubr
            -2 hhcurveto
            return
          </CharString>
          <CharString index="182">
            rrcurveto
            0 -47 callgsubr
            return
          </CharString>
          <CharString index="183">
            18 -21 451 31 return
          </CharString>
          <CharString index="184">
            -2 0 -2 hhcurveto
            return
          </CharString>
          <CharString index="185">
            -20 1 30 -15 -21 55 32 516 50 -23 23 return
          </CharString>
          <CharString index="186">
            15 -14 44 -21 -21 32 -21 372 49 -12 61 return
          </CharString>
          <CharString index="187">
            -1 -1 1 callgsubr
            hhcurveto
            return
          </CharString>
          <CharString index="188">
            3 1 -2 -3 -2 -1 return
          </CharString>
          <CharString index="189">
            -2 -3 1 -2 return
          </CharString>
          <CharString index="190">
            2 2 2 1 return
          </CharString>
          <CharString index="191">
            -2 3 -2 hvcurveto
            return
          </CharString>
          <CharString index="192">
            0 -3 1 0 return
          </CharString>
          <CharString index="193">
            0 -3 -1 0 1 1 -47 callgsubr
            2 vhcurveto
            return
          </CharString>
          <CharString index="194">
            31 13 31 309 80 -32 32 -1 -20 hstemhm
            return
          </CharString>
          <CharString index="195">
            -3 -2 -1 -3 -3 -2 -2 3 -49 callsubr
            return
          </CharString>
          <CharString index="196">
            2 8 8 9 2 hhcurveto
            1 0 0 -2 hvcurveto
            return
          </CharString>
          <CharString index="197">
            rmoveto
            81 callsubr
            return
          </CharString>
          <CharString index="198">
            36 -18 80 -18 36 -23 23 return
          </CharString>
          <CharString index="199">
            hintmask 100000000001101010010000
            return
          </CharString>
          <CharString index="200">
            -1 -2 -7 callgsubr
            return
          </CharString>
          <CharString index="201">
            -2 -2 -2 -1 -2 return
          </CharString>
          <CharString index="202">
            vhcurveto
            1 1 0 1 return
          </CharString>
          <CharString index="203">
            0 1 29 callgsubr
            return
          </CharString>
          <CharString index="204">
            vvcurveto
            1 0 2 return
          </CharString>
          <CharString index="205">
            hstemhm
            39 48 -48 81 308 30 31 32 return
          </CharString>
          <CharString index="206">
            -3 3 3 2 3 3 4 -2 3 -3 return
          </CharString>
          <CharString index="207">
            -28 callgsubr
            -6 return
          </CharString>
          <CharString index="208">
            3 2 2 3 return
          </CharString>
          <CharString index="209">
            2 -2 -1 hvcurveto
            return
          </CharString>
          <CharString index="210">
            vvcurveto
            -3 -5 -9 return
          </CharString>
        <CharString name=".notdef">
          -346 176 144 -122 -21 82 61 -61 78 8 -20 hstemhm
          21 34 -34 165 hintmask 10001010
          21 274 rmoveto
          -22 7 -76 17 vhcurveto
          55 8 10 34 hhcurveto
          hintmask 01010010
          5 18 -9 11 hhcurveto
          6 4 2 7 hvcurveto
          59 vlineto
          1 5 7 13 4 vvcurveto
          3 -23 67 -8 vhcurveto
          -17 1 rlineto
          hintmask 10001010
          1 -22 -31 6 -18 hhcurveto
          -9 -37 -3 -8 hvcurveto
          -18 -8 -14 -28 vvcurveto
          hintmask 01101100
          34 -33 rmoveto
          23 13 -14 18 13 vhcurveto
          -1 1 7 -3 1 13 15 9 14 3 9 -17 callgsubr
          -15 -21 -52 -5 -29 vvcurveto
          -6 -16 -4 28 callsubr
          -4 14 -1 6 14 vvcurveto
          100 -13 rmoveto
          -12 vlineto
          -16 -15 -5 -16 hhcurveto
          15 3 18 5 14 9 rrcurveto
          -108 48 rmoveto
          52 vlineto
          28 27 -1 -4 27 hvcurveto
          -3 -13 -6 -1 -6 -7 -7 1 -15 hhcurveto
          -15 45 4 14 -3 vhcurveto
          -7 -7 -70 -27 -5 -1 rrcurveto
          endchar
        </CharString>
        <CharString name=".null">
          -562 endchar
        </CharString>
        <CharString name="A">
          -61 callsubr
          71 callsubr
          5 70 -7 37 hintmask 1000010110010000
          -86 callsubr
          hintmask 0011001110010000
          20 callgsubr
          hintmask 0101001110010000
          65 callsubr
          hintmask 1000010110001000
          -105 callgsubr
          hintmask 1001001110010000
          -90 callgsubr
          hintmask 1000101110001000
          -100 callsubr
          hintmask 1001001101001000
          -103 callgsubr
          38 61 rmoveto
          1 4 -26 callgsubr
          -9 -24 -29 -13 -18 -12 rrcurveto
          hintmask 1001001110010000
          37 callsubr
          hintmask 1001001101001000
          -97 callgsubr
          hintmask 1000010101010000
          15 5 -33 -13 -12 callgsubr
          hvcurveto
          -103 callsubr
          -85 callgsubr
          hintmask 1001001100110000
          -72 callgsubr
          endchar
        </CharString>
        <CharString name="AE">
          215 -25 41 -22 22 -15 -21 22 -21 22 -21 32 -21 28 -21 167 32 -8 49 -30 30 43 25 -25 39 -39 94 0 172 -118 118 -118 143 -31 30 -17 31 18 36 1 -20 hstemhm
          151 116 -98 100 0 75 0 34 0 36 0 33 -18 32 hintmask 10000001011001000110101001000000
          664 -12 rmoveto
          -11 3 62 -2 16 hhcurveto
          32 -2 28 32 54 -311 -44 -16 41 hvcurveto
          6 -1 23 6 51 8 47 53 vvcurveto
          5 42 10 25 4 vhcurveto
          3 13 -5 -3 2 hvcurveto
          130 hlineto
          3 11 29 14 4 hvcurveto
          -2 -4 5 3 hvcurveto
          3 4 4 9 4 vvcurveto
          11 -124 15 -29 vhcurveto
          -6 -20 0 -1 hhcurveto
          -6 -7 rlineto
          -4 -33 12 7 -7 hvcurveto
          18 callsubr
          1 16 1 18 17 vvcurveto
          31 -2 32 -4 28 vhcurveto
          -1 3 -6 18 3 vvcurveto
          4 9 8 2 1 vhcurveto
          3 -13 37 7 10 -7 rrcurveto
          1 21 20 0 21 hhcurveto
          58 58 -3 -4 57 hvcurveto
          11 13 rlineto
          79 -276 vlineto
          -1 -2 -8 -4 -3 hhcurveto
          hintmask 10000001011001000101101010100000
          -7 -3 6 -8 -7 -9 -6 -9 hhcurveto
          hintmask 00010001011001000110101010100000
          -3 -19 4 1 -3 hvcurveto
          0 -40 -11 -9 vhcurveto
          6 -44 vlineto
          7 5 rlineto
          -45 hlineto
          1 7 -27 -10 vvcurveto
          -16 -9 -94 -226 -7 -18 -6 -14 -25 -60 -5 -13 -16 -7 -5 -56 -10 -4 -40 -66 -19 -56 -46 -57 rrcurveto
          -1 -3 -1 -8 -1 vvcurveto
          -22 24 -4 23 vhcurveto
          hintmask 00001001011001000110100100100000
          12 10 1 8 hhcurveto
          24 4 38 17 hvcurveto
          5 hlineto
          10 48 70 11 7 vhcurveto
          1 -1 1 2 vvcurveto
          36 8 3 23 vhcurveto
          5 6 0 7 hhcurveto
          17 -2 116 -9 3 -13 rrcurveto
          6 -24 2 -33 -29 -17 -1 -16 -12 vvcurveto
          hintmask 00000101011001000110101010100000
          -5 1 6 -14 9 hhcurveto
          hintmask 00000011011001000110101010100000
          1 8 7 5 hhcurveto
          hintmask 01000001011001000110101010100000
          3 4 -5 -1 hvcurveto
          hintmask 00100001011001000110101010100000
          89 76 -14 87 hhcurveto
          hintmask 00001001011001000110101010100000
          6 18 1 1 1 hvcurveto
          -624 42 rmoveto
          3 5 8 21 8 6 25 68 rcurveline
          13 8 1 20 18 3 -8 5 rcurveline
          13 5 12 8 hvcurveto
          6 21 -1 -9 -2 -12 -13 -9 hvcurveto
          -1 -4 -56 callgsubr
          -2 2 -8 -3 vvcurveto
          -5 -22 -41 -3 -5 vhcurveto
          -17 -17 -74 -18 hhcurveto
          -3 -5 3 -46 callsubr
          347 hmoveto
          30 13 -5 -11 -12 -10 -13 -1 rlinecurve
          135 9 rmoveto
          9 5 4 14 vhcurveto
          5 39 -6 5 2 15 6 2 17 20 -8 25 hhcurveto
          -5 vlineto
          8 8 2 -1 14 hhcurveto
          9 -1 22 -5 -1 vvcurveto
          18 callsubr
          -8 vlineto
          -52 -92 0 8 -60 hvcurveto
          -45 13 rmoveto
          0 7 0 2 vhcurveto
          -6 -6 -17 -4 -16 -3 rrcurveto
          11 8 10 2 12 hhcurveto
          21 hmoveto
          18 hlineto
          -7 -3 -9 25 callgsubr
          -41 23 rmoveto
          -14 -15 -1 -6 vhcurveto
          8 5 6 7 10 hhcurveto
          -40 10 rmoveto
          3 -3 4 -3 -3 vvcurveto
          -4 -14 -6 -11 vhcurveto
          22 45 rmoveto
          -18 -19 -16 -15 -4 vhcurveto
          2 -2 8 2 vvcurveto
          20 19 6 17 vhcurveto
          200 -26 -78 callsubr
          -488 30 rmoveto
          -3 -1 -3 -3 -2 1 -3 3 3 -49 callsubr
          3 -2 -46 callsubr
          284 25 rmoveto
          0 1 -5 -1 vvcurveto
          -12 -8 -1 -11 vhcurveto
          -2 -8 -50 callgsubr
          6 9 21 7 3 2 rrcurveto
          -37 13 rmoveto
          9 26 4 11 vhcurveto
          -8 vlineto
          -30 -24 rlineto
          -6 6 -1 5 8 vvcurveto
          -228 13 rmoveto
          -79 callgsubr
          274 31 rmoveto
          -18 -8 -2 -17 vhcurveto
          -1 -11 -50 callgsubr
          11 6 19 8 14 hhcurveto
          -114 12 rmoveto
          12 vlineto
          -5 -2 -11 -7 -4 hhcurveto
          -74 hlineto
          5 12 rlineto
          -1 -4 1 0 hvcurveto
          -19 -14 -14 -20 hhcurveto
          hintmask 10000000100010001010010010100000
          -16 -8 1 5 -16 hvcurveto
          1 18 17 17 13 8 -13 7 rcurveline
          20 42 11 55 25 39 rrcurveto
          -6 callsubr
          6 32 74 5 2 5 -1 6 hhcurveto
          8 9 2 8 hvcurveto
          1 -1 1 2 vvcurveto
          -26 hlineto
          34 31 46 22 11 13 -1 -10 vhcurveto
          hintmask 10000001011000100110101010100000
          -18 -52 -59 -20 vvcurveto
          -2 0 -1 -23 callgsubr
          -21 -35 -2 -22 -38 -4 rrcurveto
          5 13 -3 -5 hvcurveto
          hintmask 10000001011001000110010010100000
          -44 -56 -15 -44 -39 60 19 -27 vvcurveto
          5 25 -2 11 3 9 6 6 2 20 -6 2 hhcurveto
          43 9 7 36 9 hvcurveto
          9 26 1 -6 2 hvcurveto
          hintmask 10000000101001000110101010100000
          -16 -26 -35 6 -37 vvcurveto
          47 hlineto
          18 callsubr
          -12 -26 -12 -7 vhcurveto
          -2 -20 12 -2 hhcurveto
          2 -6 -30 5 -8 hhcurveto
          -31 18 rmoveto
          -3 -2 -3 -4 hvcurveto
          hintmask 10000000101001000110101010100000
          -3 2 99 callsubr
          vhcurveto
          18 callsubr
          -135 6 rmoveto
          -3 -2 -3 -3 16 callgsubr
          3 -67 callsubr
          6 vmoveto
          -12 6 5 -1 10 hhcurveto
          9 23 0 13 hvcurveto
          233 20 rmoveto
          -30 -10 1 -29 vhcurveto
          9 vlineto
          5 37 16 11 callgsubr
          -261 12 rmoveto
          -2 -1 -2 -2 -2 1 -1 2 2 1 1 2 1 -1 2 -2 1 hvcurveto
          43 11 rmoveto
          12 32 21 16 17 32 11 20 57 121 -1 2 -6 6 rcurveline
          5 14 -3 33 11 hhcurveto
          1 11 -8 -5 3 hvcurveto
          -6 -7 rlineto
          -29 1 -32 -33 vvcurveto
          -54 -3 -56 -16 -49 vhcurveto
          -10 -26 -11 -3 -23 hhcurveto
          -16 -34 13 6 -14 hvcurveto
          209 25 rmoveto
          2 5 -19 callsubr
          -15 -3 -14 -3 -14 hhcurveto
          12 7 6 7 11 hhcurveto
          -43 24 rmoveto
          46 hlineto
          -7 -39 -31 -7 vhcurveto
          259 26 rmoveto
          -79 callgsubr
          -135 38 rmoveto
          -1 101 callgsubr
          -24 -23 2 -16 vhcurveto
          63 7 rmoveto
          7 12 22 12 3 hhcurveto
          -7 -3 -3 -20 -10 hhcurveto
          1 -17 3 5 -5 hvcurveto
          120 11 rmoveto
          4 11 0 -9 -1 -3 -8 -4 hvcurveto
          -43 hlineto
          7 10 21 7 4 1 75 callsubr
          vhcurveto
          -56 13 rmoveto
          8 9 -5 -8 4 hvcurveto
          -11 -9 -15 -3 -15 hhcurveto
          10 6 17 12 vhcurveto
          -206 -13 rmoveto
          15 6 30 28 4 4 rrcurveto
          4 -3 7 -17 -5 vvcurveto
          hintmask 10000001010101000110101010100000
          -3 -5 -14 -6 vhcurveto
          -43 hlineto
          87 23 rmoveto
          -15 -6 -5 -12 -3 vhcurveto
          -1 1 0 2 2 vvcurveto
          10 8 8 11 vhcurveto
          49 -6 rmoveto
          6 hlineto
          -6 -5 rlineto
          -155 24 rmoveto
          21 7 28 -2 21 hhcurveto
          -1 -27 -24 -16 -13 vhcurveto
          -2 8 -5 6 -6 5 rrcurveto
          328 -12 -45 callsubr
          -13 31 rmoveto
          73 callgsubr
          -53 callsubr
          -499 6 rmoveto
          2 2 -3 -4 -3 -2 -3 -2 -41 callgsubr
          hvcurveto
          246 37 rmoveto
          -1 1 33 callsubr
          -21 -21 -2 -19 vhcurveto
          16 26 11 13 5 vhcurveto
          hintmask 10000001011000100110101010100000
          -16 11 rmoveto
          2 7 -26 callgsubr
          -15 -12 -21 -10 -18 hhcurveto
          25 22 0 19 vhcurveto
          -156 13 rmoveto
          73 callgsubr
          -53 callsubr
          153 30 rmoveto
          -6 -13 -7 -6 -14 hhcurveto
          8 2 18 14 vhcurveto
          -7 3 -6 1 5 vvcurveto
          hintmask 10000001011000001010101010100000
          10 35 29 15 7 vhcurveto
          -93 vlineto
          -3 -28 -8 -15 vhcurveto
          5 17 23 7 7 vhcurveto
          -129 14 rmoveto
          -4 -1 -4 -3 -4 1 -3 4 3 2 3 4 3 -2 4 -3 hvcurveto
          11 18 rmoveto
          1 -3 2 -2 -3 -3 -1 -1 -2 3 -1 3 2 2 0 2 1 vhcurveto
          70 23 rmoveto
          9 20 0 7 -23 callsubr
          -8 -6 -11 -11 -12 hhcurveto
          -7 0 6 5 hvcurveto
          18 callsubr
          -50 20 rmoveto
          4 4 18 9 33 hhcurveto
          hintmask 10000001011000001010101010100000
          -15 -16 -4 -11 vhcurveto
          18 callsubr
          0 -19 3 -9 3 vhcurveto
          179 74 rmoveto
          1 5 -4 -2 hvcurveto
          -37 -26 -45 -31 -46 hhcurveto
          23 28 50 51 33 hhcurveto
          -167 -36 rmoveto
          hintmask 10000001011000010010101010100000
          -6 -13 13 -6 rlineto
          -5 -11 -9 -1 -11 -5 -6 0 -8 hhcurveto
          18 callsubr
          9 21 10 2 24 2 rrcurveto
          7 -7 rmoveto
          5 17 31 -16 24 vvcurveto
          68 hlineto
          hintmask 10000001011000010010101010100000
          -12 -8 -29 -19 -7 -25 -16 6 -19 hhcurveto
          197 37 rmoveto
          hintmask 10000001011000001010101010100000
          -34 -4 -8 -10 -29 hhcurveto
          hintmask 10000001011000010010101010100000
          -3 -9 32 callsubr
          3 3 40 40 7 hhcurveto
          18 callsubr
          -241 -30 rmoveto
          3 2 -3 -4 hvcurveto
          hintmask 10000001011000010010101010100000
          -3 -2 -3 -3 -4 -1 3 3 vhcurveto
          18 callsubr
          -35 callgsubr
          vhcurveto
          432 12 rmoveto
          6 10 1 -7 2 hvcurveto
          -12 -4 -15 -2 -13 -10 -8 1 -6 hhcurveto
          14 11 11 5 16 hhcurveto
          -128 20 rmoveto
          -17 -26 -16 -15 -2 -8 29 callgsubr
          35 4 9 -3 38 hhcurveto
          33 -7 rmoveto
          8 -1 -9 -8 hvcurveto
          14 4 28 27 hhcurveto
          -9 vlineto
          3 7 3 6 hhcurveto
          4 4 24 callgsubr
          hvcurveto
          -31 -24 rlineto
          -93 hlineto
          7 10 24 18 13 hhcurveto
          -326 hmoveto
          18 16 -3 -4 17 hvcurveto
          -8 -11 -14 -5 -13 hhcurveto
          -11 -2 12 8 hvcurveto
          148 29 rmoveto
          4 -54 callgsubr
          -2 -2 -3 -4 -71 callsubr
          hvcurveto
          endchar
        </CharString>
        <CharString name="Aacute">
          -61 callsubr
          192 -20 hstemhm
          111 82 -31 31 11 143 5 70 -70 100 hintmask 1000010111010100
          -86 callsubr
          hintmask 0011001111011000
          20 callgsubr
          hintmask 0101001111011000
          65 callsubr
          hintmask 1000010111010100
          -105 callgsubr
          hintmask 1001001111011000
          -90 callgsubr
          hintmask 1000101111010100
          -100 callsubr
          hintmask 1001001110111000
          -103 callgsubr
          38 61 rmoveto
          1 4 -26 callgsubr
          -9 -24 -29 -13 -18 -12 rrcurveto
          hintmask 1001001111011000
          37 callsubr
          hintmask 1001001110111000
          -97 callgsubr
          15 5 -33 -13 hvcurveto
          hintmask 1000010110111000
          -12 callgsubr
          vhcurveto
          -103 callsubr
          -85 callgsubr
          -72 callgsubr
          63 295 -104 callsubr
        </CharString>
        <CharString name="Acircumflex">
          1 -13 38 -24 24 -9 -21 160 30 -12 36 -36 129 -79 43 221 173 -25 25 82 118 -79 79 91 callgsubr
          88 -46 143 5 70 -27 57 hintmask 1000010101010010
          -86 callsubr
          hintmask 0011001101010010
          20 callgsubr
          hintmask 0101001101010010
          65 callsubr
          hintmask 1000010101010001
          -105 callgsubr
          hintmask 1001001101010010
          -90 callgsubr
          hintmask 1000101101010001
          -100 callsubr
          hintmask 1001001101001001
          -103 callgsubr
          38 61 rmoveto
          1 4 -26 callgsubr
          -9 -24 -29 -13 -18 -12 rrcurveto
          hintmask 1001001101010010
          37 callsubr
          hintmask 1001001101001001
          -97 callgsubr
          hintmask 1000010101000110
          15 5 -33 -13 -12 callgsubr
          hvcurveto
          -103 callsubr
          hintmask 1001001101001010
          -85 callgsubr
          hintmask 1001001011000110
          -88 callsubr
          0 -1 6 1 vvcurveto
          hintmask 1001001100110010
          14 8 8 18 vhcurveto
          69 32 rmoveto
          15 18 27 3 22 hhcurveto
          -15 -19 -21 -29 -10 hhcurveto
          -6 -11 20 6 hvcurveto
          -33 262 rmoveto
          hintmask 1001001101010010
          -91 callsubr
          hintmask 1001001100110010
          -92 callgsubr
        </CharString>
        <CharString name="Adieresis">
          -61 callsubr
          -25 127 28 28 71 callsubr
          -89 34 -34 89 5 70 -70 100 -70 40 hintmask 100001001110000010000000
          -86 callsubr
          hintmask 001100101110000100000000
          20 callgsubr
          hintmask 010100101110000100000000
          65 callsubr
          hintmask 100001010110000010000000
          -105 callgsubr
          hintmask 100100101110000100000000
          -90 callgsubr
          hintmask 100010101110000010000000
          -100 callsubr
          hintmask 100100101100001100000000
          -103 callgsubr
          hintmask 100100101101000100000000
          38 61 rmoveto
          1 4 -26 callgsubr
          -9 -24 -29 -13 -18 -12 rrcurveto
          hintmask 100100101110000100000000
          37 callsubr
          hintmask 100100101101000100000000
          -97 callgsubr
          15 5 -33 -13 hvcurveto
          hintmask 100001001101000100000000
          -12 callgsubr
          vhcurveto
          -103 callsubr
          -85 callgsubr
          hintmask 100100101100100100000000
          -72 callgsubr
          -118 283 -70 callgsubr
          vhcurveto
          hintmask 100100101100010100000000
          -9 callsubr
          hintmask 100100101100100100000000
          -81 callgsubr
          hintmask 100100101100010001000000
          -96 callgsubr
        </CharString>
        <CharString name="Agrave">
          -61 callsubr
          202 -20 hstemhm
          111 82 -31 31 11 143 5 70 -70 100 hintmask 1000010111010100
          -86 callsubr
          hintmask 0011001111011000
          20 callgsubr
          hintmask 0101001111011000
          65 callsubr
          hintmask 1000010111010100
          -105 callgsubr
          hintmask 1001001111011000
          -90 callgsubr
          hintmask 1000101111010100
          -100 callsubr
          hintmask 1001001110111000
          -103 callgsubr
          38 61 rmoveto
          1 4 -26 callgsubr
          -9 -24 -29 -13 -18 -12 rrcurveto
          hintmask 1001001111011000
          37 callsubr
          hintmask 1001001110111000
          -97 callgsubr
          15 5 -33 -13 hvcurveto
          hintmask 1000010110111000
          -12 callgsubr
          vhcurveto
          -103 callsubr
          -85 callgsubr
          -72 callgsubr
          -93 314 -99 callgsubr
        </CharString>
        <CharString name="Aring">
          -61 callsubr
          151 50 -1 -20 hstemhm
          111 82 -31 31 -2 22 -22 133 -120 143 5 70 -70 100 hintmask 100001011010001010000000
          -86 callsubr
          hintmask 001100111010001100000000
          20 callgsubr
          hintmask 010100111010001100000000
          65 callsubr
          hintmask 100001011010001010000000
          -105 callgsubr
          hintmask 100100111010001100000000
          -90 callgsubr
          hintmask 100010111010001010000000
          -100 callsubr
          hintmask 100100111001001100000000
          -103 callgsubr
          38 61 rmoveto
          1 4 -26 callgsubr
          -9 -24 -29 -13 -18 -12 rrcurveto
          hintmask 100100111010001100000000
          37 callsubr
          hintmask 100100111001001100000000
          -97 callgsubr
          15 5 -33 -13 hvcurveto
          hintmask 100001011001001100000000
          -12 callgsubr
          vhcurveto
          -103 callsubr
          -85 callgsubr
          -88 callsubr
          hintmask 100100110100010100000000
          -73 callgsubr
          -86 199 -14 callsubr
          35 -5 58 -44 10 hvcurveto
          hintmask 100100111000010100000000
          -23 -17 1 -15 hhcurveto
          -33 -17 -5 -27 -25 hvcurveto
          -11 -12 -20 -27 -20 -16 26 -22 -15 vvcurveto
          -2 0 -2 -1 -1 vhcurveto
          86 12 rmoveto
          -4 -6 -2 -2 -13 -33 7 5 -1 vhcurveto
          -4 1 33 -4 2 9 rrcurveto
          11 -7 4 22 vvcurveto
          14 0 24 19 27 35 -22 -22 vhcurveto
          -25 -38 -19 -9 vvcurveto
          -1 -3 callsubr
          37 12 rmoveto
          -6 -10 -28 callgsubr
          -1 -1 -56 callgsubr
          -123 49 rmoveto
          hintmask 100100111000100100000000
          -18 callsubr
          hintmask 100100111000010100000000
          27 callgsubr
        </CharString>
        <CharString name="Atilde">
          -61 callsubr
          84 55 13 37 91 callgsubr
          88 -46 143 5 44 -44 70 -70 100 hintmask 1000010111100001
          -86 callsubr
          hintmask 0011001111100100
          20 callgsubr
          hintmask 0101001111100100
          65 callsubr
          hintmask 1000010111100001
          -105 callgsubr
          hintmask 1001001111100100
          -90 callgsubr
          hintmask 1000101111100001
          -100 callsubr
          hintmask 1001001111010100
          -103 callgsubr
          38 61 rmoveto
          1 4 -26 callgsubr
          -9 -24 -29 -13 -18 -12 rrcurveto
          hintmask 1001001111100100
          37 callsubr
          hintmask 1001001111010010
          -97 callgsubr
          15 5 -33 -13 hvcurveto
          hintmask 1000010111001100
          -12 callgsubr
          vhcurveto
          -103 callsubr
          hintmask 1001001111010100
          -85 callgsubr
          hintmask 1001001111001100
          -72 callgsubr
          -194 238 rmoveto
          -1 5 32 -12 6 hhcurveto
          hintmask 1001001111010100
          10 17 15 12 hvcurveto
          2 -1 1 2 vvcurveto
          38 callsubr
          -43 callgsubr
          56 callgsubr
          -61 callgsubr
          hintmask 1001001111100100
          -52 -7 -9 12 -25 -49 rrcurveto
          -8 -16 -11 -6 -20 vvcurveto
          56 5 rmoveto
          -5 -8 -7 -6 vhcurveto
          3 10 10 3 vhcurveto
          0 1 0 -1 vvcurveto
          18 50 rmoveto
          1 5 -7 callgsubr
          -17 -9 -14 -15 -12 -12 rrcurveto
          17 23 19 14 vhcurveto
          93 -18 rmoveto
          3 98 callgsubr
          hhcurveto
          4 23 -19 -5 7 hvcurveto
          -3 callgsubr
          -24 8 11 -10 hvcurveto
          136 18 rmoveto
          -4 -2 -9 -5 vhcurveto
          3 0 10 7 vhcurveto
          15 3 rmoveto
          0 9 -6 0 vhcurveto
          -1 -3 -9 -3 vhcurveto
          -228 13 rmoveto
          6 5 rlineto
          6 10 1 15 hhcurveto
          15 19 -2 -12 hvcurveto
          -25 -20 8 -26 hhcurveto
          endchar
        </CharString>
        <CharString name="B">
          25 -15 32 -10 -21 27 -21 24 -21 57 25 211 23 -23 103 -72 104 200 23 -23 35 hstemhm
          68 25 -25 104 -50 25 -25 31 236 24 13 30 1 24 13 25 hintmask 010011010110101111000000
          68 -2 rmoveto
          12 -12 rlineto
          hintmask 100011010110101111000000
          0 19 -1 8 vhcurveto
          hintmask 001011010110101111000000
          46 46 7 47 hhcurveto
          hintmask 010011010110101111000000
          -1 2 10 -5 1 hhcurveto
          hintmask 000111010110101111000000
          57 12 9 7 5 8 0 8 hhcurveto
          17 21 1 8 7 hvcurveto
          27 24 91 50 102 22 -8 3 12 vvcurveto
          81 -42 9 -32 37 vhcurveto
          17 27 27 43 35 vvcurveto
          49 -30 109 -44 26 vhcurveto
          16 -27 -64 9 -27 -2 -24 -7 -4 -3 -18 7 -4 hhcurveto
          0 -11 -7 -1 vhcurveto
          -7 -14 7 -1 hhcurveto
          hintmask 100011011010101111000000
          -26 -33 -12 -23 -3 -20 5 -2 hhcurveto
          -4 -9 -12 -12 hvcurveto
          6 -2 31 -3 5 -1 rrcurveto
          hintmask 100011010101001111000000
          19 15 4 16 hhcurveto
          -2 156 vlineto
          24 -2 rlineto
          -6 vlineto
          -6 -42 -13 -4 -11 -50 2 14 20 callsubr
          -2 -1 -7 -5 -3 -1 rrcurveto
          -1 -9 -48 -4 -11 hhcurveto
          -4 2 -3 6 6 vvcurveto
          hintmask 100011010110101111000000
          -2 -24 -16 -4 -11 hvcurveto
          3 -2 4 -9 -2 -16 -7 -5 -29 vvcurveto
          -40 9 -49 5 -39 vhcurveto
          -7 -13 rlineto
          -31 hlineto
          -1 -4 13 5 hvcurveto
          56 6 21 7 -1 -6 14 8 21 6 18 18 vvcurveto
          13 0 14 -13 8 vhcurveto
          -19 -37 8 -88 -14 -90 rrcurveto
          -9 3 0 4 -4 vhcurveto
          29 -328 rmoveto
          31 7 3 16 16 -7 9 20 vvcurveto
          6 0 10 7 2 vhcurveto
          -6 5 rlineto
          1 7 0 7 7 34 -7 32 33 43 6 4 25 6 -8 8 4 vvcurveto
          1 -25 callgsubr
          1 vhcurveto
          24 56 -7 -7 14 hvcurveto
          12 -12 -17 -21 -33 -24 -18 -10 rlinecurve
          -81 vlineto
          -3 -4 -7 -3 -2 vhcurveto
          0 -2 3 -1 vhcurveto
          -15 4 0 -16 -18 -5 1 -5 -14 6 -15 -14 vvcurveto
          -13 hlineto
          5 -2 7 -11 -3 vvcurveto
          0 -5 -13 -7 -2 vhcurveto
          11 -4 14 -10 -14 -9 -12 -6 -12 vvcurveto
          18 -7 hlineto
          -38 -5 rlineto
          -4 4 -3 8 23 vvcurveto
          119 -11 rmoveto
          10 vlineto
          9 48 1 1 12 hvcurveto
          1 20 7 3 5 -7 -8 23 hhcurveto
          31 43 12 13 29 hvcurveto
          3 7 3 9 8 vvcurveto
          11 16 0 8 10 hvcurveto
          2 -5 4 -3 -2 -9 -4 -2 vhcurveto
          2 -1 12 4 36 25 -11 18 vvcurveto
          -24 -12 -6 7 rlineto
          5 1 7 25 5 vvcurveto
          5 -12 2 -2 vhcurveto
          4 6 8 8 5 vhcurveto
          -4 6 -12 31 -3 6 rrcurveto
          -3 8 -29 15 12 92 callgsubr
          -10 1 -21 2 -12 8 rrcurveto
          6 7 1 6 37 -6 -7 -6 19 vhcurveto
          1 -1 20 -3 3 -1 rrcurveto
          15 -8 22 -110 -13 vvcurveto
          -89 -40 -24 -78 -23 vhcurveto
          -3 -16 -13 -13 hhcurveto
          -5 -5 0 1 -6 hvcurveto
          -8 -12 -6 7 rlineto
          -49 hlineto
          -6 -3 15 9 -3 hvcurveto
          -7 -2 -11 -12 -2 hhcurveto
          0 -4 -26 callsubr
          -2 -20 7 -2 -9 -21 -15 -19 hhcurveto
          8 vlineto
          10 54 9 1 vhcurveto
          -62 6 rmoveto
          25 hlineto
          -3 -9 -9 -3 -7 hhcurveto
          7 43 rmoveto
          -12 19 -2 16 22 vvcurveto
          25 1 100 13 3 vhcurveto
          18 49 50 1 47 hhcurveto
          57 62 -2 -88 -31 0 -14 -6 -32 hvcurveto
          -41 -11 -66 -3 -26 -44 -44 8 -44 -8 -8 -1 -8 hhcurveto
          135 278 rmoveto
          5 2 25 7 5 hhcurveto
          1 4 -5 -1 hvcurveto
          -15 -24 -24 10 -17 -10 rrcurveto
          -14 -24 10 -19 -35 hhcurveto
          7 vlineto
          31 31 rlineto
          hintmask 100011010101001111000000
          -23 -16 -36 -15 -28 -12 rrcurveto
          56 118 0 6 vhcurveto
          67 12 rmoveto
          5 27 -13 -2 -16 -45 -21 -19 hvcurveto
          7 8 8 12 vvcurveto
          -25 -11 -13 -7 -22 -3 -9 1 -4 hhcurveto
          25 31 46 31 9 hhcurveto
          26 6 rmoveto
          48 26 rlineto
          -1 -44 callsubr
          -21 -34 -8 -15 vhcurveto
          -228 33 rmoveto
          hintmask 100010100110011111000000
          45 -8 47 47 vvcurveto
          14 1 13 12 12 vhcurveto
          14 -27 154 27 29 -43 rrcurveto
          12 -18 14 -24 -20 -1 -7 -10 -1 -1 7 -11 -1 vvcurveto
          -71 -160 8 -21 -22 -12 1 14 -13 vhcurveto
          240 5 rmoveto
          19 hlineto
          -5 -5 -8 -4 -6 -3 rrcurveto
          12 31 rmoveto
          31 30 rlineto
          -12 -4 -6 -15 hhcurveto
          5 6 7 4 8 3 rrcurveto
          0 -20 7 5 19 20 7 18 vvcurveto
          -8 -4 -4 0 -5 -2 -4 -56 callgsubr
          7 7 rlineto
          3 -11 -9 2 -9 hhcurveto
          14 16 17 13 30 7 -81 -18 vhcurveto
          hintmask 100011010110101111000000
          -28 6 -9 -39 -5 -5 1 6 -1 vhcurveto
          -37 129 rmoveto
          8 8 7 -1 10 3 7 -17 callgsubr
          -5 -7 -10 -7 -6 hhcurveto
          -2 -9 4 2 -3 hvcurveto
          6 45 rmoveto
          8 17 -11 -13 -8 -42 -1 -8 hvcurveto
          13 10 20 15 vhcurveto
          -27 hmoveto
          2 5 -51 callsubr
          -16 -6 -15 -8 -16 hhcurveto
          18 13 7 16 vhcurveto
          endchar
        </CharString>
        <CharString name="C">
          5 -27 51 callgsubr
          -37 81 7 23 hintmask 1000101101000000
          68 callsubr
          hintmask 0011101101000000
          9 24 5 8 4 hvcurveto
          hintmask 0101101101000000
          26 callgsubr
          -1 callgsubr
          hintmask 1000010101000000
          17 45 45 14 49 hhcurveto
          hintmask 1000101101000000
          99 callgsubr
          hintmask 0101010101000000
          2 callsubr
          hintmask 0101101011000000
          -80 callgsubr
          hintmask 1000101101000000
          -56 callsubr
          vhcurveto
          hintmask 1000010011000000
          -1 -7 1 1 -1 hvcurveto
          8 9 10 12 13 3 rrcurveto
          -3 21 rmoveto
          -14 -24 -8 -10 -5 vhcurveto
          -29 callsubr
          13 22 11 13 vhcurveto
          -16 17 rmoveto
          62 61 rlineto
          -70 -16 25 -46 -30 vhcurveto
          107 102 rmoveto
          -13 -14 -16 -14 vhcurveto
          17 12 12 16 vhcurveto
          16 -2 rmoveto
          -1 0 callsubr
          -4 -13 -13 -5 -5 vhcurveto
          95 44 rmoveto
          0 -47 callgsubr
          vhcurveto
          -9 -13 -16 -17 -18 -1 rrcurveto
          6 5 20 25 15 hhcurveto
          188 -22 rmoveto
          8 5 9 8 5 vhcurveto
          -32 vlineto
          -7 -6 3 7 hvcurveto
          -247 16 rmoveto
          hintmask 1000101101000000
          3 32 21 12 vhcurveto
          2 8 -26 callgsubr
          -3 -32 -22 -17 -12 vhcurveto
          215 24 rmoveto
          -12 hlineto
          7 6 13 4 11 11 -8 -12 -12 -14 -9 -12 vhcurveto
          9 2 5 4 7 vhcurveto
          -116 8 rmoveto
          1 5 -51 callsubr
          -10 -4 -5 -9 -10 9 callsubr
          8 4 5 11 10 hhcurveto
          96 6 rmoveto
          0 3 -28 callgsubr
          -14 -2 -10 -16 -15 hhcurveto
          9 10 22 14 vhcurveto
          -47 5 rmoveto
          -11 -7 -14 -11 -1 -5 29 callgsubr
          -63 24 rmoveto
          32 hlineto
          -18 -19 rlineto
          -5 4 -9 8 7 vvcurveto
          122 2 rmoveto
          -11 -14 -4 -9 vhcurveto
          -2 10 16 13 1 vhcurveto
          -65 -2 rmoveto
          12 hlineto
          -5 -3 -4 -2 -5 hhcurveto
          endchar
        </CharString>
        <CharString name="CR">
          -122 endchar
        </CharString>
        <CharString name="Ccedilla">
          5 -161 178 -44 51 callgsubr
          51 23 hintmask 0100010111000000
          68 callsubr
          hintmask 0001110111000000
          9 24 5 8 4 hvcurveto
          hintmask 0010110111000000
          26 callgsubr
          hintmask 1000110111000000
          -1 callgsubr
          hintmask 1000101011000000
          17 45 45 14 49 hhcurveto
          hintmask 1000110111000000
          99 callgsubr
          hintmask 1000101011000000
          2 callsubr
          -80 callgsubr
          -56 callsubr
          -1 -7 1 -23 callgsubr
          8 9 10 12 13 3 rrcurveto
          -3 21 rmoveto
          -14 -24 -8 -10 -5 vhcurveto
          -29 callsubr
          13 22 11 13 vhcurveto
          -16 17 rmoveto
          62 61 rlineto
          -70 -16 25 -46 -30 vhcurveto
          107 102 rmoveto
          -13 -14 -16 -14 vhcurveto
          17 12 12 16 vhcurveto
          16 -2 rmoveto
          -1 0 callsubr
          -4 -13 -13 -5 -5 vhcurveto
          95 44 rmoveto
          0 -47 callgsubr
          vhcurveto
          -9 -13 -16 -17 -18 -1 rrcurveto
          6 5 20 25 15 hhcurveto
          188 -22 rmoveto
          8 5 9 8 5 vhcurveto
          -32 vlineto
          -7 -6 3 7 hvcurveto
          -247 16 rmoveto
          hintmask 1000110111000000
          3 32 21 12 vhcurveto
          2 8 -26 callgsubr
          -3 -32 -22 -17 -12 vhcurveto
          215 24 rmoveto
          -12 hlineto
          7 6 13 4 11 11 -8 -12 -12 -14 -9 -12 vhcurveto
          9 2 5 4 7 vhcurveto
          -116 8 rmoveto
          1 5 -51 callsubr
          -10 -4 -5 -9 -10 9 callsubr
          8 4 5 11 10 hhcurveto
          96 6 rmoveto
          0 3 -28 callgsubr
          -14 -2 -10 -16 -15 hhcurveto
          9 10 22 14 vhcurveto
          -47 5 rmoveto
          -11 -7 -14 -11 -1 -5 29 callgsubr
          -63 24 rmoveto
          32 hlineto
          -18 -19 rlineto
          -5 4 -9 8 7 vvcurveto
          122 2 rmoveto
          -11 -14 -4 -9 vhcurveto
          -2 10 16 13 1 vhcurveto
          -65 -2 rmoveto
          12 hlineto
          -5 -3 -4 -2 -5 hhcurveto
          -170 -757 -85 callsubr
        </CharString>
        <CharString name="D">
          103 3 38 -30 -21 76 22 527 39 hstemhm
          71 25 30 24 402 24 -24 37 40 23 hintmask 1011110110000000
          64 3 rmoveto
          hintmask 0111110110000000
          -13 7 0 8 vhcurveto
          hintmask 1011111010000000
          17 4 11 2 21 hvcurveto
          105 8 101 6 109 11 30 6 81 22 24 35 -7 4 rcurveline
          12 7 -5 6 16 1 2 21 6 9 rlinecurve
          39 65 18 60 76 vvcurveto
          53 -36 121 -40 27 vhcurveto
          -21 42 -114 63 -68 8 rrcurveto
          -12 -19 0 -24 hhcurveto
          -92 -155 -2 -25 hvcurveto
          -18 6 -17 -18 -47 -14 -47 -49 -25 8 -23 -25 -85 -8 -84 -83 -15 1 -72 -16 vvcurveto
          25 99 rmoveto
          3 7 19 3 2 -7 20 3 vvcurveto
          1 4 5 3 vhcurveto
          43 vlineto
          -7 6 rlineto
          9 32 -1 47 31 vvcurveto
          20 9 -6 -18 hvcurveto
          -12 -6 1 -18 -18 5 -18 -21 vvcurveto
          -2 -3 -38 -8 -3 vhcurveto
          8 -4 3 -15 -6 -12 -5 -3 -25 -4 1 -15 -3 vvcurveto
          -18 4 65 0 10 hhcurveto
          10 74 6 1 8 hvcurveto
          50 2 68 -2 44 18 rrcurveto
          3 7 30 30 9 hhcurveto
          19 20 -13 -2 1 hvcurveto
          -14 -19 -28 -4 -22 hhcurveto
          7 -2 8 -5 -3 vvcurveto
          -16 -23 -4 -11 -11 hvcurveto
          -4 -19 0 -14 -52 -51 -18 -52 -10 -6 6 -9 hhcurveto
          -1 -1 -5 -10 -2 vvcurveto
          8 -16 -64 -1 -32 hhcurveto
          -1 6 -4 30 7 vvcurveto
          -1 2 -6 14 2 vvcurveto
          61 119 rmoveto
          112 7 109 111 vvcurveto
          7 12 rlineto
          10 5 74 9 25 hhcurveto
          48 44 -16 -15 44 hvcurveto
          1 -2 45 -30 21 -11 rrcurveto
          -1 -2 -1 -4 -4 vvcurveto
          -15 17 2 11 -3 vhcurveto
          24 -8 31 -113 -29 vvcurveto
          -30 -24 -135 -23 vhcurveto
          0 -1 -3 callsubr
          -78 -65 -113 -4 -97 hhcurveto
          -12 -41 2 1 -6 hvcurveto
          -12 4 rlineto
          -8 4 1 73 49 vvcurveto
          353 -94 rmoveto
          43 43 rlineto
          -1 0 1 2 hvcurveto
          3 13 9 4 vvcurveto
          11 4 -7 38 21 hhcurveto
          -5 5 3 1 8 10 1 4 rlinecurve
          0 -7 10 1 vvcurveto
          14 38 0 6 vhcurveto
          -2 -3 -24 -3 -14 vhcurveto
          1 -2 77 callsubr
          -10 -6 -9 -3 -9 hvcurveto
          9 -3 15 -2 -8 vvcurveto
          -22 -15 -14 -21 11 1 -5 -8 -32 -33 -18 -26 -8 -8 1 6 -5 vhcurveto
          55 25 rmoveto
          2 -7 0 -6 -6 -6 0 90 callgsubr
          71 198 rmoveto
          -39 -17 -25 -39 vhcurveto
          26 26 38 30 vhcurveto
          -536 104 rmoveto
          32 hlineto
          4 5 -33 -1 hvcurveto
          -33 hlineto
          9 -2 15 -8 -12 vvcurveto
          -73 -23 vlineto
          43 -9 40 46 vvcurveto
          483 -89 rmoveto
          -1 -25 callgsubr
          hvcurveto
          hintmask 1011110110000000
          2 14 5 2 26 -26 -23 28 vvcurveto
          hintmask 1011111010000000
          6 2 5 11 vhcurveto
          -21 15 1 21 -16 20 4 5 5 4 3 6 rrcurveto
          -13 hlineto
          7 -43 40 -6 -1 vhcurveto
          13 12 rlineto
          -32 19 hlineto
          -7 -1 -9 0 -4 hhcurveto
          -17 -10 6 14 hvcurveto
          -17 -13 2 9 -15 hvcurveto
          3 4 19 8 3 1 rrcurveto
          2 48 -3 -15 hvcurveto
          6 -2 30 -8 7 -2 rrcurveto
          1 4 -7 callgsubr
          hintmask 1011110110000000
          28 -28 53 -43 -47 vvcurveto
          hintmask 1011111010000000
          -1 -2 -8 -14 -4 -3 rrcurveto
          6 7 5 1 7 hhcurveto
          9 4 -4 -8 -10 -3 -4 -10 -6 hvcurveto
          6 -2 7 -1 -5 vvcurveto
          -2 -3 -7 -3 vhcurveto
          25 -13 rlineto
          -9 -32 vlineto
          6 -3 14 -7 -2 vvcurveto
          -11 -17 0 -7 -11 -4 6 11 vhcurveto
          -480 157 rmoveto
          21 4 21 21 8 vhcurveto
          6 -8 -1 -9 -9 -14 -6 -6 -13 -17 13 -13 -16 vvcurveto
          -41 hlineto
          17 34 -13 6 15 vvcurveto
          76 93 rmoveto
          5 24 10 callsubr
          -11 -14 -71 -29 -22 hhcurveto
          45 37 -5 35 vhcurveto
          164 -7 rmoveto
          7 5 17 7 3 hhcurveto
          -14 vlineto
          6 6 5 1 7 hhcurveto
          6 4 0 -7 3 hvcurveto
          -6 -4 -14 -5 -3 hhcurveto
          -13 -16 4 7 -6 hvcurveto
          -74 13 rmoveto
          11 1 52 3 11 1 rrcurveto
          1 3 0 2 hhcurveto
          -2 -4 -30 -16 -9 hhcurveto
          -3 -30 4 9 -4 hvcurveto
          endchar
        </CharString>
        <CharString name="E">
          -48 callgsubr
          6 -20 61 callsubr
          hintmask 0101111001010000
          378 -9 rmoveto
          hintmask 1000111001010000
          63 callsubr
          hintmask 0011111001010000
          -55 callgsubr
          hintmask 0101111001010000
          -101 callgsubr
          hintmask 1000110011010000
          1 -11 -56 5 -12 hhcurveto
          hintmask 1000111001010000
          -55 callsubr
          hintmask 0101111000110000
          15 -63 -2 -68 -64 -60 -6 -62 -60 vvcurveto
          -17 6 31 -4 13 hhcurveto
          319 59 rmoveto
          27 hlineto
          -19 -1 -25 -26 vhcurveto
          -12 31 rmoveto
          2 5 -26 callgsubr
          -14 -8 -15 -9 -15 hhcurveto
          10 vlineto
          4 24 9 6 vhcurveto
          -321 -2 rmoveto
          0 0 2 0 vhcurveto
          2 4 9 22 7 4 rrcurveto
          -11 16 vlineto
          -6 -18 -17 -9 -9 vhcurveto
          -4 4 -3 2 5 vvcurveto
          57 8 rmoveto
          -15 -11 -4 -4 -17 hhcurveto
          10 8 10 6 12 5 rrcurveto
          27 -12 -21 callgsubr
          -6 -2 -5 -2 -5 82 callsubr
          hhcurveto
          5 5 9 2 2 hhcurveto
          71 13 rmoveto
          2 9 -51 callsubr
          -20 -6 -15 0 -16 -3 -13 -50 callgsubr
          14 9 18 6 16 hhcurveto
          58 hmoveto
          1 2 -19 callsubr
          -9 -6 -13 -10 -5 hhcurveto
          8 6 13 12 2 hhcurveto
          46 6 rmoveto
          62 hlineto
          -49 -19 rlineto
          12 vlineto
          -12 -12 -5 0 -20 hhcurveto
          13 25 rmoveto
          1 4 -26 callgsubr
          -7 -3 -15 -56 callgsubr
          6 3 4 10 callsubr
          -248 36 rmoveto
          15 hlineto
          -8 -3 -11 -12 vhcurveto
          11 100 rmoveto
          0 1 1 0 3 3 -12 -6 -7 -8 -19 -3 vhcurveto
          -9 hlineto
          0 -1 5 7 vvcurveto
          13 2 18 12 vhcurveto
          8 38 rmoveto
          -10 -1 -19 -14 vhcurveto
          12 -1 17 16 vhcurveto
          -19 23 rmoveto
          7 12 1 3 vhcurveto
          -6 0 -11 -8 -3 vhcurveto
          -2 2 -5 9 1 vvcurveto
          18 49 rmoveto
          0 1 -7 0 vhcurveto
          -15 -5 -3 -15 vhcurveto
          11 13 9 6 5 vhcurveto
          3 27 rmoveto
          -11 -12 -4 -9 vhcurveto
          13 11 2 10 vhcurveto
          47 16 rmoveto
          -37 hlineto
          4 1 9 6 vhcurveto
          70 hlineto
          -16 -28 -8 -12 vhcurveto
          91 32 85 callgsubr
          2 hhcurveto
          -19 -11 -31 -18 -21 hhcurveto
          23 27 16 22 -1 vhcurveto
          33 -1 rmoveto
          7 hlineto
          -5 -3 -26 -4 vhcurveto
          -31 hlineto
          105 37 rmoveto
          5 -11 7 -11 7 -8 rrcurveto
          -50 hlineto
          5 13 13 13 13 4 rrcurveto
          -273 1 rmoveto
          14 29 -1 10 vhcurveto
          -8 vlineto
          -32 -32 rlineto
          -4 11 -3 6 10 vvcurveto
          39 49 rmoveto
          -21 -15 -5 -18 vhcurveto
          16 18 10 15 vhcurveto
          -25 42 rmoveto
          6 14 -4 -3 -16 -25 -22 -13 hvcurveto
          40 vlineto
          2 12 3 6 vhcurveto
          21 45 rmoveto
          -29 1 -3 -35 vhcurveto
          11 6 13 21 15 hhcurveto
          -14 29 rmoveto
          -2 -3 -1 -4 hhcurveto
          -7 -9 2 6 4 21 12 8 8 hvcurveto
          -2 1 -11 -2 vvcurveto
          -26 -9 -9 -21 -17 vhcurveto
          hintmask 1000111001010000
          -87 callsubr
          hintmask 1000110100110000
          -1 -5 0 -1 hhcurveto
          112 25 rmoveto
          0 1 -5 -2 vvcurveto
          -7 -3 -4 -8 -1 -2 0 2 0 4 13 9 3 vhcurveto
          147 25 rmoveto
          45 hlineto
          -15 -19 -5 -11 -8 -8 1 12 2 0 2 1 3 vhcurveto
          -110 -7 rmoveto
          -6 -7 vlineto
          endchar
        </CharString>
        <CharString name="Eacute">
          -48 callgsubr
          198 -20 61 callsubr
          hintmask 0101111011010000
          378 -9 rmoveto
          hintmask 1000111011010000
          63 callsubr
          hintmask 0011111011010000
          -55 callgsubr
          hintmask 0101111011010000
          -101 callgsubr
          1 -11 -56 5 -12 -55 callsubr
          hintmask 0101111010110000
          15 -63 -2 -68 -64 -60 -6 -62 -60 vvcurveto
          -17 6 31 -4 13 hhcurveto
          319 59 rmoveto
          27 hlineto
          -19 -1 -25 -26 vhcurveto
          -12 31 rmoveto
          2 5 -26 callgsubr
          -14 -8 -15 -9 -15 hhcurveto
          10 vlineto
          4 24 9 6 vhcurveto
          -321 -2 rmoveto
          0 0 2 0 vhcurveto
          2 4 9 22 7 4 rrcurveto
          -11 16 vlineto
          -6 -18 -17 -9 -9 vhcurveto
          -4 4 -3 2 5 vvcurveto
          57 8 rmoveto
          -15 -11 -4 -4 -17 hhcurveto
          10 8 10 6 12 5 rrcurveto
          27 -12 -21 callgsubr
          -6 -2 -5 -2 -5 82 callsubr
          hhcurveto
          5 5 9 2 2 hhcurveto
          71 13 rmoveto
          2 9 -51 callsubr
          -20 -6 -15 0 -16 -3 -13 -50 callgsubr
          14 9 18 6 16 hhcurveto
          58 hmoveto
          1 2 -19 callsubr
          -9 -6 -13 -10 -5 hhcurveto
          8 6 13 12 2 hhcurveto
          46 6 rmoveto
          62 hlineto
          -49 -19 rlineto
          12 vlineto
          -12 -12 -5 0 -20 hhcurveto
          13 25 rmoveto
          1 4 -26 callgsubr
          -7 -3 -15 -56 callgsubr
          6 3 4 10 callsubr
          -248 36 rmoveto
          15 hlineto
          -8 -3 -11 -12 vhcurveto
          11 100 rmoveto
          0 1 1 0 3 3 -12 -6 -7 -8 -19 -3 vhcurveto
          -9 hlineto
          0 -1 5 7 vvcurveto
          13 2 18 12 vhcurveto
          8 38 rmoveto
          -10 -1 -19 -14 vhcurveto
          12 -1 17 16 vhcurveto
          -19 23 rmoveto
          7 12 1 3 vhcurveto
          -6 0 -11 -8 -3 vhcurveto
          -2 2 -5 9 1 vvcurveto
          18 49 rmoveto
          0 1 -7 0 vhcurveto
          -15 -5 -3 -15 vhcurveto
          11 13 9 6 5 vhcurveto
          3 27 rmoveto
          -11 -12 -4 -9 vhcurveto
          13 11 2 10 vhcurveto
          47 16 rmoveto
          -37 hlineto
          4 1 9 6 vhcurveto
          70 hlineto
          -16 -28 -8 -12 vhcurveto
          91 32 85 callgsubr
          2 hhcurveto
          -19 -11 -31 -18 -21 hhcurveto
          23 27 16 22 -1 vhcurveto
          33 -1 rmoveto
          7 hlineto
          -5 -3 -26 -4 vhcurveto
          -31 hlineto
          105 37 rmoveto
          5 -11 7 -11 7 -8 rrcurveto
          -50 hlineto
          5 13 13 13 13 4 rrcurveto
          -273 1 rmoveto
          14 29 -1 10 vhcurveto
          -8 vlineto
          -32 -32 rlineto
          -4 11 -3 6 10 vvcurveto
          39 49 rmoveto
          -21 -15 -5 -18 vhcurveto
          16 18 10 15 vhcurveto
          -25 42 rmoveto
          6 14 -4 -3 -16 -25 -22 -13 hvcurveto
          40 vlineto
          2 12 3 6 vhcurveto
          21 45 rmoveto
          -29 1 -3 -35 vhcurveto
          11 6 13 21 15 hhcurveto
          -14 29 rmoveto
          -2 -3 -1 -4 hhcurveto
          -7 -9 2 6 4 21 12 8 8 hvcurveto
          -2 1 -11 -2 vvcurveto
          -26 -9 -9 -21 -17 vhcurveto
          hintmask 1000111011010000
          -87 callsubr
          hintmask 1000110110110000
          -1 -5 0 -1 hhcurveto
          112 25 rmoveto
          0 1 -5 -2 vvcurveto
          -7 -3 -4 -8 -1 -2 0 2 0 4 13 9 3 vhcurveto
          147 25 rmoveto
          45 hlineto
          -15 -19 -5 -11 -8 -8 1 12 2 0 2 1 3 vhcurveto
          -110 -7 rmoveto
          -6 -7 vlineto
          49 197 -104 callsubr
        </CharString>
        <CharString name="Ecircumflex">
          -48 callgsubr
          88 93 callgsubr
          63 31 -18 30 hintmask 0101111010100000
          378 -9 rmoveto
          hintmask 1000111010100000
          63 callsubr
          hintmask 0011111010100000
          -55 callgsubr
          hintmask 0101111010100000
          -101 callgsubr
          1 -11 -56 5 -12 -55 callsubr
          hintmask 0101111010010000
          15 -63 -2 -68 -64 -60 -6 -62 -60 vvcurveto
          -17 6 31 -4 13 hhcurveto
          319 59 rmoveto
          27 hlineto
          -19 -1 -25 -26 vhcurveto
          -12 31 rmoveto
          2 5 -26 callgsubr
          -14 -8 -15 -9 -15 hhcurveto
          10 vlineto
          4 24 9 6 vhcurveto
          -321 -2 rmoveto
          0 0 2 0 vhcurveto
          2 4 9 22 7 4 rrcurveto
          -11 16 vlineto
          -6 -18 -17 -9 -9 vhcurveto
          -4 4 -3 2 5 vvcurveto
          57 8 rmoveto
          -15 -11 -4 -4 -17 hhcurveto
          10 8 10 6 12 5 rrcurveto
          27 -12 -21 callgsubr
          -6 -2 -5 -2 -5 82 callsubr
          hhcurveto
          5 5 9 2 2 hhcurveto
          71 13 rmoveto
          2 9 -51 callsubr
          -20 -6 -15 0 -16 -3 -13 -50 callgsubr
          14 9 18 6 16 hhcurveto
          58 hmoveto
          1 2 -19 callsubr
          -9 -6 -13 -10 -5 hhcurveto
          8 6 13 12 2 hhcurveto
          46 6 rmoveto
          62 hlineto
          -49 -19 rlineto
          12 vlineto
          -12 -12 -5 0 -20 hhcurveto
          13 25 rmoveto
          1 4 -26 callgsubr
          -7 -3 -15 -56 callgsubr
          6 3 4 10 callsubr
          -248 36 rmoveto
          15 hlineto
          -8 -3 -11 -12 vhcurveto
          11 100 rmoveto
          0 1 1 0 3 3 -12 -6 -7 -8 -19 -3 vhcurveto
          -9 hlineto
          0 -1 5 7 vvcurveto
          13 2 18 12 vhcurveto
          8 38 rmoveto
          -10 -1 -19 -14 vhcurveto
          12 -1 17 16 vhcurveto
          -19 23 rmoveto
          7 12 1 3 vhcurveto
          -6 0 -11 -8 -3 vhcurveto
          -2 2 -5 9 1 vvcurveto
          18 49 rmoveto
          0 1 -7 0 vhcurveto
          -15 -5 -3 -15 vhcurveto
          11 13 9 6 5 vhcurveto
          3 27 rmoveto
          -11 -12 -4 -9 vhcurveto
          13 11 2 10 vhcurveto
          47 16 rmoveto
          -37 hlineto
          4 1 9 6 vhcurveto
          70 hlineto
          -16 -28 -8 -12 vhcurveto
          91 32 85 callgsubr
          2 hhcurveto
          -19 -11 -31 -18 -21 hhcurveto
          23 27 16 22 -1 vhcurveto
          33 -1 rmoveto
          7 hlineto
          -5 -3 -26 -4 vhcurveto
          -31 hlineto
          105 37 rmoveto
          5 -11 7 -11 7 -8 rrcurveto
          -50 hlineto
          5 13 13 13 13 4 rrcurveto
          -273 1 rmoveto
          14 29 -1 10 vhcurveto
          -8 vlineto
          -32 -32 rlineto
          -4 11 -3 6 10 vvcurveto
          39 49 rmoveto
          -21 -15 -5 -18 vhcurveto
          16 18 10 15 vhcurveto
          -25 42 rmoveto
          6 14 -4 -3 -16 -25 -22 -13 hvcurveto
          40 vlineto
          2 12 3 6 vhcurveto
          21 45 rmoveto
          -29 1 -3 -35 vhcurveto
          11 6 13 21 15 hhcurveto
          -14 29 rmoveto
          -2 -3 -1 -4 hhcurveto
          -7 -9 2 6 4 21 12 8 8 hvcurveto
          -2 1 -11 -2 vvcurveto
          -26 -9 -9 -21 -17 vhcurveto
          hintmask 1000111010100000
          -87 callsubr
          hintmask 1000110101010000
          -1 -5 0 -1 hhcurveto
          112 25 rmoveto
          0 1 -5 -2 vvcurveto
          -7 -3 -4 -8 -1 -2 0 2 0 4 13 9 3 vhcurveto
          147 25 rmoveto
          45 hlineto
          -15 -19 -5 -11 -8 -8 1 12 2 0 2 1 3 vhcurveto
          -110 -7 rmoveto
          -6 -7 vlineto
          -47 164 rmoveto
          hintmask 1000111010100000
          -91 callsubr
          hintmask 1000111001100000
          -92 callgsubr
        </CharString>
        <CharString name="Edieresis">
          -48 callgsubr
          -24 132 28 28 61 callsubr
          84 90 hintmask 0101111001101100
          378 -9 rmoveto
          hintmask 1000111001101100
          63 callsubr
          hintmask 0011111001101100
          -55 callgsubr
          hintmask 0101111001101100
          -101 callgsubr
          1 -11 -56 5 -12 -55 callsubr
          hintmask 0101111001011100
          15 -63 -2 -68 -64 -60 -6 -62 -60 vvcurveto
          -17 6 31 -4 13 hhcurveto
          319 59 rmoveto
          27 hlineto
          -19 -1 -25 -26 vhcurveto
          -12 31 rmoveto
          2 5 -26 callgsubr
          -14 -8 -15 -9 -15 hhcurveto
          10 vlineto
          4 24 9 6 vhcurveto
          -321 -2 rmoveto
          0 0 2 0 vhcurveto
          2 4 9 22 7 4 rrcurveto
          -11 16 vlineto
          -6 -18 -17 -9 -9 vhcurveto
          -4 4 -3 2 5 vvcurveto
          57 8 rmoveto
          -15 -11 -4 -4 -17 hhcurveto
          10 8 10 6 12 5 rrcurveto
          27 -12 -21 callgsubr
          -6 -2 -5 -2 -5 82 callsubr
          hhcurveto
          5 5 9 2 2 hhcurveto
          71 13 rmoveto
          2 9 -51 callsubr
          -20 -6 -15 0 -16 -3 -13 -50 callgsubr
          14 9 18 6 16 hhcurveto
          58 hmoveto
          1 2 -19 callsubr
          -9 -6 -13 -10 -5 hhcurveto
          8 6 13 12 2 hhcurveto
          46 6 rmoveto
          62 hlineto
          -49 -19 rlineto
          12 vlineto
          -12 -12 -5 0 -20 hhcurveto
          13 25 rmoveto
          1 4 -26 callgsubr
          -7 -3 -15 -56 callgsubr
          6 3 4 10 callsubr
          -248 36 rmoveto
          15 hlineto
          -8 -3 -11 -12 vhcurveto
          11 100 rmoveto
          0 1 1 0 3 3 -12 -6 -7 -8 -19 -3 vhcurveto
          -9 hlineto
          0 -1 5 7 vvcurveto
          13 2 18 12 vhcurveto
          8 38 rmoveto
          -10 -1 -19 -14 vhcurveto
          12 -1 17 16 vhcurveto
          -19 23 rmoveto
          7 12 1 3 vhcurveto
          -6 0 -11 -8 -3 vhcurveto
          -2 2 -5 9 1 vvcurveto
          18 49 rmoveto
          0 1 -7 0 vhcurveto
          -15 -5 -3 -15 vhcurveto
          11 13 9 6 5 vhcurveto
          3 27 rmoveto
          -11 -12 -4 -9 vhcurveto
          13 11 2 10 vhcurveto
          47 16 rmoveto
          -37 hlineto
          4 1 9 6 vhcurveto
          70 hlineto
          -16 -28 -8 -12 vhcurveto
          91 32 85 callgsubr
          2 hhcurveto
          -19 -11 -31 -18 -21 hhcurveto
          23 27 16 22 -1 vhcurveto
          33 -1 rmoveto
          7 hlineto
          -5 -3 -26 -4 vhcurveto
          -31 hlineto
          105 37 rmoveto
          5 -11 7 -11 7 -8 rrcurveto
          -50 hlineto
          5 13 13 13 13 4 rrcurveto
          -273 1 rmoveto
          14 29 -1 10 vhcurveto
          -8 vlineto
          -32 -32 rlineto
          -4 11 -3 6 10 vvcurveto
          39 49 rmoveto
          -21 -15 -5 -18 vhcurveto
          16 18 10 15 vhcurveto
          -25 42 rmoveto
          6 14 -4 -3 -16 -25 -22 -13 hvcurveto
          40 vlineto
          2 12 3 6 vhcurveto
          21 45 rmoveto
          -29 1 -3 -35 vhcurveto
          11 6 13 21 15 hhcurveto
          -14 29 rmoveto
          -2 -3 -1 -4 hhcurveto
          -7 -9 2 6 4 21 12 8 8 hvcurveto
          -2 1 -11 -2 vvcurveto
          -26 -9 -9 -21 -17 vhcurveto
          hintmask 1000111001101100
          -87 callsubr
          hintmask 1000110101011100
          -1 -5 0 -1 hhcurveto
          112 25 rmoveto
          0 1 -5 -2 vvcurveto
          -7 -3 -4 -8 -1 -2 0 2 0 4 13 9 3 vhcurveto
          147 25 rmoveto
          45 hlineto
          -15 -19 -5 -11 -8 -8 1 12 2 0 2 1 3 vhcurveto
          -110 -7 rmoveto
          -6 -7 vlineto
          -132 185 -99 callsubr
          hintmask 1000110011101100
          -81 callgsubr
          -96 callgsubr
        </CharString>
        <CharString name="Egrave">
          -48 callgsubr
          208 -20 61 callsubr
          hintmask 0101111011010000
          378 -9 rmoveto
          hintmask 1000111011010000
          63 callsubr
          hintmask 0011111011010000
          -55 callgsubr
          hintmask 0101111011010000
          -101 callgsubr
          1 -11 -56 5 -12 -55 callsubr
          hintmask 0101111010110000
          15 -63 -2 -68 -64 -60 -6 -62 -60 vvcurveto
          -17 6 31 -4 13 hhcurveto
          319 59 rmoveto
          27 hlineto
          -19 -1 -25 -26 vhcurveto
          -12 31 rmoveto
          2 5 -26 callgsubr
          -14 -8 -15 -9 -15 hhcurveto
          10 vlineto
          4 24 9 6 vhcurveto
          -321 -2 rmoveto
          0 0 2 0 vhcurveto
          2 4 9 22 7 4 rrcurveto
          -11 16 vlineto
          -6 -18 -17 -9 -9 vhcurveto
          -4 4 -3 2 5 vvcurveto
          57 8 rmoveto
          -15 -11 -4 -4 -17 hhcurveto
          10 8 10 6 12 5 rrcurveto
          27 -12 -21 callgsubr
          -6 -2 -5 -2 -5 82 callsubr
          hhcurveto
          5 5 9 2 2 hhcurveto
          71 13 rmoveto
          2 9 -51 callsubr
          -20 -6 -15 0 -16 -3 -13 -50 callgsubr
          14 9 18 6 16 hhcurveto
          58 hmoveto
          1 2 -19 callsubr
          -9 -6 -13 -10 -5 hhcurveto
          8 6 13 12 2 hhcurveto
          46 6 rmoveto
          62 hlineto
          -49 -19 rlineto
          12 vlineto
          -12 -12 -5 0 -20 hhcurveto
          13 25 rmoveto
          1 4 -26 callgsubr
          -7 -3 -15 -56 callgsubr
          6 3 4 10 callsubr
          -248 36 rmoveto
          15 hlineto
          -8 -3 -11 -12 vhcurveto
          11 100 rmoveto
          0 1 1 0 3 3 -12 -6 -7 -8 -19 -3 vhcurveto
          -9 hlineto
          0 -1 5 7 vvcurveto
          13 2 18 12 vhcurveto
          8 38 rmoveto
          -10 -1 -19 -14 vhcurveto
          12 -1 17 16 vhcurveto
          -19 23 rmoveto
          7 12 1 3 vhcurveto
          -6 0 -11 -8 -3 vhcurveto
          -2 2 -5 9 1 vvcurveto
          18 49 rmoveto
          0 1 -7 0 vhcurveto
          -15 -5 -3 -15 vhcurveto
          11 13 9 6 5 vhcurveto
          3 27 rmoveto
          -11 -12 -4 -9 vhcurveto
          13 11 2 10 vhcurveto
          47 16 rmoveto
          -37 hlineto
          4 1 9 6 vhcurveto
          70 hlineto
          -16 -28 -8 -12 vhcurveto
          91 32 85 callgsubr
          2 hhcurveto
          -19 -11 -31 -18 -21 hhcurveto
          23 27 16 22 -1 vhcurveto
          33 -1 rmoveto
          7 hlineto
          -5 -3 -26 -4 vhcurveto
          -31 hlineto
          105 37 rmoveto
          5 -11 7 -11 7 -8 rrcurveto
          -50 hlineto
          5 13 13 13 13 4 rrcurveto
          -273 1 rmoveto
          14 29 -1 10 vhcurveto
          -8 vlineto
          -32 -32 rlineto
          -4 11 -3 6 10 vvcurveto
          39 49 rmoveto
          -21 -15 -5 -18 vhcurveto
          16 18 10 15 vhcurveto
          -25 42 rmoveto
          6 14 -4 -3 -16 -25 -22 -13 hvcurveto
          40 vlineto
          2 12 3 6 vhcurveto
          21 45 rmoveto
          -29 1 -3 -35 vhcurveto
          11 6 13 21 15 hhcurveto
          -14 29 rmoveto
          -2 -3 -1 -4 hhcurveto
          -7 -9 2 6 4 21 12 8 8 hvcurveto
          -2 1 -11 -2 vvcurveto
          -26 -9 -9 -21 -17 vhcurveto
          hintmask 1000111011010000
          -87 callsubr
          hintmask 1000110110110000
          -1 -5 0 -1 hhcurveto
          112 25 rmoveto
          0 1 -5 -2 vvcurveto
          -7 -3 -4 -8 -1 -2 0 2 0 4 13 9 3 vhcurveto
          147 25 rmoveto
          45 hlineto
          -15 -19 -5 -11 -8 -8 1 12 2 0 2 1 3 vhcurveto
          -110 -7 rmoveto
          -6 -7 vlineto
          -107 216 -99 callgsubr
        </CharString>
        <CharString name="Eth">
          137 0 31 -22 -21 57 47 -30 30 -30 245 -232 67 182 22 -22 35 -35 107 -107 169 -169 209 -15 80 -42 42 -24 24 21 35 -23 23 6 -20 hstemhm
          91 23 -4 23 32 24 -24 154 315 31 hintmask 011000100001001001010100
          91 7 rmoveto
          -17 1 13 -2 15 hhcurveto
          hintmask 101000100001000011010100
          8 1 36 9 7 2 rrcurveto
          191 hlineto
          136 31 rlineto
          111 25 56 170 98 vvcurveto
          86 -21 84 -47 73 vhcurveto
          10 -7 -22 21 -3 hhcurveto
          -6 7 hlineto
          -38 38 -70 0 -52 5 -32 3 -30 8 -32 1 rrcurveto
          hintmask 101000100001001000110100
          -5 -6 -1 -5 -1 hvcurveto
          -122 hlineto
          2 callgsubr
          -49 hlineto
          -6 -7 rlineto
          -12 1 -12 -12 vvcurveto
          hintmask 101000100001001001001100
          -86 -17 -173 -2 vhcurveto
          -75 hlineto
          -9 -3 -39 -7 -15 43 1 19 -3 hvcurveto
          23 -4 2 -24 -22 -17 -7 -53 -39 vvcurveto
          -18 4 -83 3 -16 vhcurveto
          218 49 rmoveto
          0 -25 callgsubr
          2 7 -8 -2 -21 -43 -1 -7 vhcurveto
          13 2 26 19 12 hhcurveto
          -102 -11 rmoveto
          -14 -55 vlineto
          10 17 19 4 19 hhcurveto
          hintmask 100100100001001001010100
          19 17 rmoveto
          18 13 -7 17 hhcurveto
          2 3 0 1 3 hvcurveto
          -19 -10 -29 -6 -17 hhcurveto
          160 26 rmoveto
          -24 -19 -2 -17 vhcurveto
          -5 -4 0 -4 hhcurveto
          15 11 20 11 18 hhcurveto
          hintmask 100001100001001001010100
          -231 18 rmoveto
          3 9 -1 4 hhcurveto
          -13 -9 -33 -20 -15 hhcurveto
          32 16 2 25 vhcurveto
          188 -19 rmoveto
          1 5 -26 callgsubr
          -5 -7 -8 -4 -6 -2 rrcurveto
          -29 callsubr
          7 7 3 6 vhcurveto
          138 18 rmoveto
          1 3 -7 callgsubr
          -16 -27 -9 -15 -38 hhcurveto
          16 20 32 10 22 1 rrcurveto
          -289 -7 rmoveto
          hintmask 100100010001001000101100
          3 7 -3 -2 5 hvcurveto
          -7 -3 -39 -10 0 vvcurveto
          -11 callgsubr
          4 6 18 14 10 hhcurveto
          207 -5 rmoveto
          18 hlineto
          -6 -6 -11 -2 -1 hhcurveto
          154 76 rmoveto
          12 -6 hlineto
          -8 -13 -24 -54 -37 hhcurveto
          -327 55 rmoveto
          2 -3 5 -12 -3 vvcurveto
          -7 -21 -3 -17 -3 vhcurveto
          12 15 7 16 12 vhcurveto
          30 81 rmoveto
          7 -1 11 11 vvcurveto
          18 2 20 7 13 vhcurveto
          -1 3 11 0 10 hhcurveto
          6 75 3 11 4 hvcurveto
          8 5 rlineto
          43 vlineto
          -10 6 8 7 -10 6 rrcurveto
          -7 -28 1 -7 -25 -17 -8 -22 hhcurveto
          hintmask 101000100000011001010100
          -4 -8 0 7 hvcurveto
          191 vlineto
          19 78 6 26 35 6 -11 -8 34 vhcurveto
          166 -42 -7 -21 45 -214 rrcurveto
          -174 -34 -64 -12 -179 hhcurveto
          -96 -5 2 104 hvcurveto
          -74 -63 rmoveto
          39 hlineto
          -14 -35 -14 -4 -2 vhcurveto
          347 14 callsubr
          -4 -2 -68 callgsubr
          3 4 hvcurveto
          148 107 rmoveto
          hintmask 100001100001001000110100
          -26 -17 -50 -30 vhcurveto
          -1 -6 -50 callgsubr
          17 7 15 58 34 hhcurveto
          -495 -63 rmoveto
          38 18 rlineto
          3 4 -8 -1 -18 -36 0 -9 hvcurveto
          45 vmoveto
          9 8 1 7 hhcurveto
          6 7 24 callgsubr
          hvcurveto
          -5 -11 -33 -8 0 vvcurveto
          482 43 rmoveto
          -3 -1 -3 -3 -3 1 -38 callsubr
          -444 18 rmoveto
          -18 -25 vlineto
          -13 22 rmoveto
          20 22 2 18 vhcurveto
          -21 -21 -10 -19 -7 vhcurveto
          8 hlineto
          -8 2 0 8 6 vvcurveto
          489 16 rmoveto
          -12 5 24 25 rlineto
          -19 14 hlineto
          13 19 -5 -15 -14 -10 -10 -9 -8 hvcurveto
          3 4 -7 -2 -9 -27 -1 -7 hvcurveto
          15 6 6 15 6 vhcurveto
          -443 37 rmoveto
          -18 -6 -2 -17 vhcurveto
          -4 -5 0 -6 hhcurveto
          9 12 29 8 0 vvcurveto
          -17 62 rmoveto
          2 20 -26 -5 -1 0 -7 callgsubr
          8 36 43 1 37 hhcurveto
          -9 vlineto
          hintmask 100010100001001001010100
          -6 -27 -2 -31 vhcurveto
          -18 -20 1 -15 hhcurveto
          -11 -15 -20 -15 -21 hhcurveto
          13 15 52 14 vhcurveto
          452 -35 rmoveto
          8 14 5 6 1 vhcurveto
          -2 -5 -5 -1 -3 hhcurveto
          -14 -5 11 15 hvcurveto
          8 42 -8 -15 hvcurveto
          -6 -30 rlineto
          -4 1 -28 2 13 vvcurveto
          -560 3 rmoveto
          -2 -1 -3 -1 -3 hhcurveto
          -2 -4 1 3 1 3 1 3 6 1 -2 -1 hvcurveto
          111 7 rmoveto
          -7 -7 rlineto
          13 hlineto
          124 43 rmoveto
          2 -54 callgsubr
          15 callsubr
          3 2 -69 callsubr
          308 6 rmoveto
          6 6 19 17 6 97 callsubr
          0 vhcurveto
          -37 11 rlineto
          hintmask 101000001001001000110100
          13 10 15 8 15 6 rrcurveto
          11 -2 3 -18 -17 -19 -2 -8 -15 vvcurveto
          -505 24 rmoveto
          7 8 0 4 5 8 -2 -8 -6 -8 -3 -6 -8 -3 2 10 vhcurveto
          450 13 rmoveto
          19 hlineto
          -8 -3 -11 0 -5 hhcurveto
          -450 20 rmoveto
          13 22 14 8 3 vhcurveto
          -2 1 -10 -2 vvcurveto
          -17 0 -5 -20 -4 -7 0 6 vhcurveto
          444 38 rmoveto
          11 16 1 -9 3 hvcurveto
          -3 -8 -12 -4 -10 hhcurveto
          -427 26 rmoveto
          -12 13 rlineto
          hintmask 101000000101001001010100
          25 30 rlineto
          6 -1 1 -9 -6 vvcurveto
          hintmask 101000001001001001010100
          -23 -15 -23 -24 vhcurveto
          12 11 4 8 3 vhcurveto
          426 10 rmoveto
          0 0 3 1 vhcurveto
          30 11 rlineto
          11 5 -18 -8 hvcurveto
          -5 -42 -1 13 hvcurveto
          -12 14 rmoveto
          13 hlineto
          -13 -5 rlineto
          -397 51 rmoveto
          -16 -15 -18 -16 vhcurveto
          30 1 4 30 vhcurveto
          403 -14 rmoveto
          -1 -4 -5 0 -4 hhcurveto
          -10 -9 2 11 hvcurveto
          42 hlineto
          hintmask 101000000010101001010100
          12 -11 3 -12 -8 -9 -1 -1 -7 vhcurveto
          12 8 9 13 14 hhcurveto
          hintmask 101000000100011001010100
          23 17 -43 -20 hvcurveto
          -41 hlineto
          6 3 5 4 2 vhcurveto
          -407 43 rmoveto
          -18 -20 vlineto
          9 18 8 2 1 vhcurveto
          345 hmoveto
          44 13 rlineto
          -14 -11 -16 -8 -17 hhcurveto
          -344 42 rmoveto
          -13 -8 -15 -13 vhcurveto
          18 2 10 19 vhcurveto
          300 -15 rmoveto
          9 7 11 5 9 hhcurveto
          -9 -3 -10 -9 -6 -5 0 5 -4 vhcurveto
          31 26 rmoveto
          -4 -34 -14 -5 -10 hvcurveto
          -5 1 -2 4 3 5 3 6 4 vvcurveto
          -1 -5 -50 callgsubr
          0 -16 -13 -3 -5 vhcurveto
          -5 -7 20 17 hvcurveto
          1 4 19 1 5 hhcurveto
          37 53 -13 -32 24 hvcurveto
          -17 -6 -29 -8 -1 1 rrcurveto
          32 vlineto
          0 -2 0 -2 vhcurveto
          -66 -6 rmoveto
          2 2 -3 -4 -3 -2 -3 -2 -41 callgsubr
          hvcurveto
          -70 38 rmoveto
          26 3 -1 -19 hvcurveto
          9 -22 hlineto
          -11 -27 31 11 hvcurveto
          hintmask 101000100001000100110100
          -9 6 rmoveto
          -4 -14 -22 -7 vhcurveto
          -1 -14 12 -2 -8 -8 -12 -4 hhcurveto
          -4 1 -40 4 -5 1 rrcurveto
          -3 -23 -13 -8 -9 -6 8 -10 -15 7 -15 -16 hhcurveto
          -1 -8 1 1 -1 hvcurveto
          5 23 -5 25 13 hhcurveto
          7 54 56 1 59 hhcurveto
          -8 -26 rmoveto
          13 -7 hlineto
          -217 25 rmoveto
          25 hlineto
          -7 -2 -6 0 -5 hhcurveto
          -4 -5 0 7 -3 hvcurveto
          hintmask 101000100001000011010100
          19 37 rmoveto
          hintmask 101000100001001001010100
          15 callgsubr
          3 1 -69 callsubr
          hintmask 101000100001000011010100
          3 -1 3 -3 vhcurveto
          endchar
        </CharString>
        <CharString name="Euro">
          92 -2 37 -37 105 -105 223 -134 121 -121 165 -19 33 60 68 -18 166 -44 44 -19 106 -21 21 11 -20 hstemhm
          339 152 -5 118 hintmask 0100011010100100
          172 135 rmoveto
          -110 100 61 -27 155 hhcurveto
          79 37 4 64 16 -1 47 -24 hvcurveto
          -1 -5 -1 -1 hhcurveto
          -18 -55 -38 -7 -52 hhcurveto
          -59 -82 18 63 -21 hvcurveto
          30 6 rlineto
          -2 22 109 -4 22 hhcurveto
          9 10 -1 7 hvcurveto
          76 vlineto
          hintmask 1000101001001000
          -68 -65 -14 -68 hhcurveto
          -13 -14 1 18 hvcurveto
          16 4 7 39 1 hhcurveto
          210 hlineto
          5 25 8 11 hvcurveto
          55 vlineto
          -32 -50 -6 -46 hhcurveto
          -24 -56 3 15 -7 hvcurveto
          86 23 73 25 82 hhcurveto
          hintmask 1001011010010100
          46 42 -25 47 hhcurveto
          17 3 60 9 67 -164 6 -8 hvcurveto
          -6 -12 rlineto
          hintmask 1001011001001000
          -8 -9 1 -9 hhcurveto
          -48 -53 -11 -33 -35 hvcurveto
          -21 -20 -56 -56 -2 -4 -10 -14 -31 -74 -3 -17 -12 -13 rcurveline
          -61 hlineto
          -15 1 -33 -5 -31 38 -3 25 -1 hvcurveto
          -10 1 -19 -3 vvcurveto
          -11 -1 -26 -13 vhcurveto
          -68 hlineto
          -13 -1 -40 -7 hvcurveto
          26 -4 -11 -3 24 hvcurveto
          11 -1 51 -4 11 -1 15 -12 6 -14 5 -17 rrcurveto
          276 -99 rmoveto
          7 8 21 8 4 2 rrcurveto
          -2 -2 -12 -23 -7 hhcurveto
          -3 -6 5 2 -2 hvcurveto
          118 61 rmoveto
          8 -12 -1 -11 -17 vvcurveto
          -6 -1 -8 -6 -1 vhcurveto
          4 -6 -4 2 -5 hhcurveto
          -14 -14 -16 -3 -32 hvcurveto
          7 vlineto
          9 50 38 25 14 vhcurveto
          -217 -52 rmoveto
          3 31 20 7 5 vhcurveto
          4 13 -3 -4 9 hvcurveto
          -20 -8 3 -11 -33 hhcurveto
          -10 -16 1 9 hvcurveto
          75 21 rmoveto
          5 17 27 2 -1 hhcurveto
          -12 -10 -22 -21 -18 hhcurveto
          7 4 12 3 7 vhcurveto
          -85 21 rmoveto
          -15 -9 -11 -14 vvcurveto
          -10 -31 10 4 hvcurveto
          5 vlineto
          1 41 20 9 vhcurveto
          16 -8 rmoveto
          7 4 0 -6 3 hvcurveto
          -5 -6 -10 -8 -11 hhcurveto
          8 3 11 10 vhcurveto
          -104 12 rmoveto
          6 1 6 1 5 5 8 -1 6 hhcurveto
          -10 -4 -5 -2 -8 hhcurveto
          -6 -6 0 6 -2 hvcurveto
          57 7 rmoveto
          3 6 0 -7 2 hvcurveto
          -24 -5 rlineto
          1 -1 29 callgsubr
          7 6 3 8 vhcurveto
          -32 17 rmoveto
          2 4 -3 -2 hvcurveto
          -17 hlineto
          2 8 3 3 vhcurveto
          -58 29 rmoveto
          -19 -4 -3 25 hvcurveto
          40 hlineto
          -5 -4 -6 -4 -8 vhcurveto
          1 3 3 31 callsubr
          13 5 -11 -14 3 hvcurveto
          -5 -5 -14 -3 -3 hhcurveto
          -10 -7 23 6 hvcurveto
          -43 60 rmoveto
          13 9 -3 -4 11 hvcurveto
          -9 -7 -12 0 0 vvcurveto
          -8 -4 8 6 hvcurveto
          21 10 rmoveto
          4 3 21 10 6 1 rrcurveto
          hintmask 0010011010100100
          4 17 -4 -3 3 hvcurveto
          hintmask 1001011010100100
          -13 -9 -7 0 -14 hhcurveto
          -9 -9 0 6 -7 hvcurveto
          206 19 -21 callgsubr
          -18 -11 -32 -2 -19 hhcurveto
          hintmask 0010011010100100
          8 vlineto
          0 45 12 14 vhcurveto
          -70 -12 rmoveto
          -2 -2 -6 -1 -5 hhcurveto
          -5 -7 1 3 1 6 1 6 11 102 callsubr
          111 14 rmoveto
          -14 -30 vlineto
          8 6 12 6 12 hhcurveto
          -297 4 rmoveto
          2 7 1 1 hhcurveto
          11 6 -1 -6 11 hvcurveto
          -4 -10 -7 -2 -8 hhcurveto
          -9 -4 1 11 hvcurveto
          19 19 rmoveto
          5 14 10 1 14 hhcurveto
          hintmask 1000100100100100
          6 5 -1 -11 -8 -11 1 -4 -10 -18 1 12 -6 hvcurveto
          -13 24 rmoveto
          20 hlineto
          -1 -1 -10 -4 -2 hhcurveto
          -2 -5 4 1 hvcurveto
          20 20 rmoveto
          6 13 16 1 16 hhcurveto
          -5 -1 -16 -11 -10 -15 8 6 -8 vhcurveto
          -88 48 rmoveto
          4 11 25 1 3 1 rrcurveto
          49 -18 38 -11 -6 vvcurveto
          -4 -3 -41 -5 2 hhcurveto
          -1 -17 24 2 -2 hvcurveto
          2 -40 3 2 -19 hvcurveto
          174 26 rmoveto
          7 4 0 -7 7 hvcurveto
          -5 -1 -49 -20 -7 hhcurveto
          -13 -29 5 8 hvcurveto
          6 vlineto
          -1 5 61 14 15 hhcurveto
          179 -7 rmoveto
          2 13 0 4 hhcurveto
          -20 -20 -56 3 -11 hhcurveto
          11 vlineto
          3 7 44 3 17 hhcurveto
          -105 -6 rmoveto
          -2 -4 -9 -1 -9 hhcurveto
          -9 -13 1 2 2 11 0 11 11 11 0 -2 hvcurveto
          -111 37 rmoveto
          -7 -13 rlineto
          -37 hlineto
          9 15 14 4 15 hhcurveto
          hintmask 1001011001000100
          27 123 rmoveto
          17 5 -17 -12 hvcurveto
          -22 -15 -6 -19 vvcurveto
          -28 hlineto
          10 -9 2 -6 -13 vvcurveto
          -4 -11 -28 -11 -17 hhcurveto
          21 35 98 30 vhcurveto
          16 9 rmoveto
          12 17 4 10 8 34 -4 -12 -5 -49 -25 2 2 vhcurveto
          -6 -16 25 3 hvcurveto
          68 28 rmoveto
          -7 -3 -4 0 -5 hhcurveto
          -10 -6 3 4 -9 hvcurveto
          8 16 29 7 11 2 rrcurveto
          -1 -1 0 -1 -1 vvcurveto
          -4 13 -9 8 -2 vhcurveto
          2 7 5 1 3 13 -12 -8 6 vhcurveto
          20 vlineto
          4 14 -8 -12 6 hvcurveto
          hintmask 1001010100100100
          -7 -2 -39 -8 -8 -2 rrcurveto
          -20 0 -1 19 -11 hvcurveto
          221 hmoveto
          7 -18 rlineto
          -12 hlineto
          -49 50 rmoveto
          18 12 1 -8 19 hvcurveto
          -2 -7 -5 -8 -6 -3 -18 18 rcurveline
          -8 11 -17 3 -12 vhcurveto
          -32 hlineto
          -75 44 rmoveto
          -19 vlineto
          -18 4 -8 13 18 vvcurveto
          31 33 -20 -36 hvcurveto
          -19 -6 29 11 -13 hvcurveto
          23 12 rmoveto
          22 17 3 -34 -6 -1 -6 -5 -1 hvcurveto
          -11 10 -22 19 15 vvcurveto
          -70 -11 rmoveto
          -8 -6 -5 -8 -2 vhcurveto
          11 1 4 4 9 hhcurveto
          endchar
        </CharString>
        <CharString name="F">
          -67 -10 -21 27 -21 27 -21 295 32 -6 61 -37 37 204 93 -44 44 hstemhm
          74 28 21 37 -22 22 -9 21 hintmask 1001011011000000
          67 -7 rmoveto
          -7 14 -17 7 vhcurveto
          hintmask 0011011011000000
          22 28 12 4 hhcurveto
          hintmask 0101011010010000
          -4 3 4 -2 5 hhcurveto
          7 11 2 11 hvcurveto
          172 vlineto
          hintmask 1000101010100000
          -9 2 -3 96 17 vvcurveto
          22 3 5 22 vhcurveto
          4 1 -6 13 hhcurveto
          hintmask 1001011011000000
          52 35 -20 52 hhcurveto
          21 47 1 13 3 hvcurveto
          6 30 -6 0 18 25 rrcurveto
          3 -4 4 -1 vhcurveto
          -8 -7 -8 -3 -7 -34 20 -3 hhcurveto
          hintmask 1000101010010000
          -20 -22 -1 -24 hhcurveto
          -41 -43 1 6 -36 hvcurveto
          -10 10 -1 49 28 vvcurveto
          2 4 9 1 vhcurveto
          81 vlineto
          31 95 -18 13 vhcurveto
          15 12 5 14 52 51 -5 52 hhcurveto
          4 7 0 5 hvcurveto
          63 vlineto
          27 -48 3 -23 vhcurveto
          -98 -97 -11 -97 hhcurveto
          5 vlineto
          -2 -2 -9 -4 -3 -2 -26 6 -2 hhcurveto
          -16 -3 2 -15 -6 vvcurveto
          hintmask 1001010110010000
          -6 1 -6 7 -2 vhcurveto
          -394 vlineto
          33 callgsubr
          -3 0 -35 -14 -55 -13 -62 -54 vvcurveto
          50 38 rmoveto
          -7 6 rlineto
          59 25 vlineto
          -29 10 -4 36 35 17 1 17 13 vvcurveto
          14 12 -6 -9 13 hvcurveto
          -24 9 -31 -16 -2 -1 -2 -2 vvcurveto
          -22 hlineto
          20 -8 rlineto
          2 -3 1 -16 -15 -10 0 -10 -5 -2 0 -2 1 vvcurveto
          -31 -4 -28 -38 vhcurveto
          6 -1 18 9 4 vhcurveto
          -14 246 rmoveto
          24 hlineto
          hintmask 1000101010100000
          -22 11 3 -30 vvcurveto
          -35 0 17 32 hvcurveto
          -4 25 rmoveto
          -11 callsubr
          19 27 9 10 5 vhcurveto
          -1 1 -28 callgsubr
          hintmask 1000101011000000
          -11 -13 6 -13 -16 8 0 -17 vvcurveto
          -8 -22 3 13 -2 hvcurveto
          178 13 rmoveto
          15 9 20 4 15 hhcurveto
          hintmask 1001010111000000
          -18 -3 -8 -21 -7 -7 0 7 -6 vhcurveto
          62 11 rmoveto
          38 hlineto
          -17 -26 -2 -12 vhcurveto
          -195 34 rmoveto
          29 15 -9 30 hhcurveto
          5 5 0 1 6 hvcurveto
          -19 -12 -42 1 -13 hhcurveto
          -10 12 -13 -6 20 vvcurveto
          115 -7 rmoveto
          8 4 -2 -11 hvcurveto
          -31 hlineto
          9 6 4 4 9 hhcurveto
          -162 25 rmoveto
          13 15 -2 -5 10 hvcurveto
          -8 -6 -8 -6 -11 hhcurveto
          -11 -2 12 9 hvcurveto
          7 11 rmoveto
          0 -2 3 1 2 8 3 4 vvcurveto
          -1 1 callgsubr
          hhcurveto
          -9 -1 11 5 9 2 8 11 2 2 0 -1 3 hvcurveto
          103 callgsubr
          -1 hhcurveto
          -10 0 14 6 23 23 -5 -22 37 hvcurveto
          20 hlineto
          -23 16 4 17 23 13 -7 12 11 vvcurveto
          10 3 2 16 vhcurveto
          -10 3 -16 10 11 vvcurveto
          51 hlineto
          -7 -5 rlineto
          7 -2 0 -5 -7 vvcurveto
          -7 -1 -3 -13 vhcurveto
          -8 3 11 10 callsubr
          -28 vlineto
          -14 -17 -2 -6 hvcurveto
          -4 11 14 -3 13 hhcurveto
          -31 -20 -33 -28 -7 7 -2 -15 vvcurveto
          -6 -1 -9 -9 -2 -3 1 1 -3 vhcurveto
          4 -1 20 -20 -9 vvcurveto
          -3 -10 -10 -5 -7 -18 4 2 -4 vhcurveto
          93 241 rmoveto
          6 -2 0 -6 -6 vvcurveto
          -7 -2 -4 -8 -2 -3 0 1 -3 vhcurveto
          1 5 3 15 8 4 rrcurveto
          234 -6 rmoveto
          10 6 4 2 9 hhcurveto
          13 1 -8 -14 hvcurveto
          -16 -17 4 6 hvcurveto
          -148 6 rmoveto
          3 5 9 3 vhcurveto
          43 hlineto
          -8 -12 -14 -11 -13 hhcurveto
          -3 -9 0 7 hvcurveto
          93 hmoveto
          5 5 14 1 vhcurveto
          32 hlineto
          -15 -25 -6 -7 -4 vhcurveto
          -1 -5 4 2 hvcurveto
          endchar
        </CharString>
        <CharString name="G">
          65 -29 41 -10 -21 28 -21 44 23 157 35 31 30 235 62 -37 37 31 32 hstemhm
          28 32 -32 104 259 117 44 25 hintmask 1001111011011000
          207 -6 rmoveto
          -26 34 61 3 53 hhcurveto
          hintmask 0011111011011000
          40 38 1 16 20 hvcurveto
          hintmask 0101111010111000
          7 5 -7 10 hhcurveto
          43 59 14 55 hvcurveto
          246 vlineto
          10 -32 2 -17 -46 -25 -3 3 -41 vhcurveto
          1 -3 77 callsubr
          -16 -2 -22 -16 -53 19 -6 19 hvcurveto
          5 5 1 4 hhcurveto
          13 12 -3 -19 4 hvcurveto
          3 -16 8 -57 -7 vvcurveto
          -14 -2 -31 -15 -10 vhcurveto
          -8 -39 -1 -9 hhcurveto
          -56 -32 5 7 -65 hvcurveto
          -91 15 -34 111 90 vvcurveto
          117 34 97 115 46 vhcurveto
          hintmask 1001110111011000
          12 29 29 13 34 hhcurveto
          hintmask 1001111011011000
          58 57 -25 59 hhcurveto
          16 3 26 19 hvcurveto
          39 -9 -21 14 1 1 1 1 vvcurveto
          -11 9 -28 8 1 vvcurveto
          -6 -13 -3 10 -2 hvcurveto
          -35 hlineto
          17 -40 3 -35 -137 -115 -38 -117 -77 vhcurveto
          -17 -25 3 -62 -17 -19 rrcurveto
          -135 vlineto
          5 -12 1 -9 -10 -9 -1 -9 -11 vvcurveto
          -5 0 -4 1 -5 vhcurveto
          3 -36 78 -94 -18 vvcurveto
          3 3 8 3 4 hhcurveto
          7 73 -60 -2 -3 hvcurveto
          99 18 rmoveto
          7 4 13 3 19 11 -9 -19 vhcurveto
          -12 -26 2 5 0 1 1 0 hvcurveto
          41 13 85 callgsubr
          2 hhcurveto
          17 73 -4 -1 15 hvcurveto
          -7 -7 rlineto
          -67 hlineto
          -6 -8 -8 0 -11 hhcurveto
          -12 -6 6 13 hvcurveto
          -134 -1 rmoveto
          13 5 18 0 11 hhcurveto
          6 7 0 -6 2 hvcurveto
          -8 -10 5 -11 -15 hhcurveto
          -11 -12 3 9 -6 hvcurveto
          88 12 rmoveto
          -23 -10 -5 -24 vhcurveto
          22 9 6 25 vhcurveto
          177 -12 rmoveto
          13 10 8 0 12 hhcurveto
          12 7 0 -6 13 hvcurveto
          -14 -6 -22 1 -13 hhcurveto
          -8 -6 0 6 -7 hvcurveto
          -383 100 rmoveto
          0 callgsubr
          3 -22 17 -3 8 vhcurveto
          -2 3 0 23 -10 5 rrcurveto
          4 1 21 13 19 -9 5 11 vvcurveto
          19 25 -8 7 13 vhcurveto
          -1 -5 -5 0 -3 hhcurveto
          -14 -3 5 8 hvcurveto
          6 2 8 6 vvcurveto
          6 -2 4 -7 1 vhcurveto
          51 vlineto
          8 28 0 14 vhcurveto
          -10 5 -5 9 -6 vhcurveto
          6 -16 rlineto
          -14 -32 vlineto
          7 -8 -7 -4 rlineto
          12 20 0 -7 hvcurveto
          -43 vlineto
          -13 -7 rlineto
          5 -7 8 -17 -4 -5 -6 -1 -3 vvcurveto
          -16 46 -99 9 -14 vhcurveto
          14 -24 1 22 23 -23 10 -10 -16 -1 24 -13 rrcurveto
          -1 5 -4 32 callgsubr
          -3 -5 -6 -4 -3 hhcurveto
          -46 -33 61 27 -31 hvcurveto
          413 -65 rmoveto
          11 37 -1 4 vhcurveto
          -9 -3 -17 -6 -5 -27 13 3 vhcurveto
          7 40 rmoveto
          31 12 rlineto
          -25 -31 vlineto
          -6 35 rmoveto
          13 2 6 8 -13 -1 rlineto
          10 8 10 3 13 hhcurveto
          -21 -3 -13 -12 -21 hhcurveto
          18 57 rmoveto
          -20 hlineto
          19 31 8 22 vvcurveto
          -37 hlineto
          17 19 11 14 vvcurveto
          -15 -12 -11 -15 -1 -4 -56 callgsubr
          26 30 rlineto
          48 hlineto
          33 callgsubr
          -35 4 -93 -50 vhcurveto
          16 15 -4 6 11 vhcurveto
          -2 43 rmoveto
          0 2 -26 callsubr
          -18 -24 rlineto
          -11 hlineto
          18 9 6 18 vhcurveto
          -56 49 rmoveto
          -20 callsubr
          -6 -8 -17 -13 -3 hhcurveto
          0 -2 -23 callgsubr
          7 6 11 11 11 hhcurveto
          -53 -6 rmoveto
          13 25 rlineto
          54 hlineto
          -5 -6 -42 -25 -9 hhcurveto
          -2 -8 1 4 hvcurveto
          -365 161 rmoveto
          -1 31 83 9 9 hvcurveto
          11 7 25 26 4 hhcurveto
          35 hlineto
          1 3 3 1 2 -22 4 2 vvcurveto
          3 14 13 20 15 vhcurveto
          hintmask 1001110111011000
          6 -5 4 -7 2 -7 6 20 4 14 21 9 7 -31 rcurveline
          -7 -6 -19 13 rlineto
          -1 -1 -28 callsubr
          9 -7 5 -17 -4 vvcurveto
          hintmask 1001111011011000
          -5 0 -4 -6 -3 vhcurveto
          -7 4 -3 8 -2 7 rrcurveto
          -12 -4 -6 -32 -16 hhcurveto
          -12 -4 6 13 -9 hvcurveto
          -1 2 -8 -8 vvcurveto
          -7 -2 -6 -5 -1 vhcurveto
          4 -6 8 -4 6 -3 -2 -4 -7 -21 -9 -5 -19 19 rcurveline
          -2 -1 -7 -1 -10 8 -5 -11 -9 -17 4 -8 vvcurveto
          -2 1 -4 4 -7 vhcurveto
          -6 -15 7 -1 -1 hvcurveto
          -11 callgsubr
          8 -6 11 -13 -11 vvcurveto
          -44 hlineto
          -11 -3 10 8 hvcurveto
          186 186 rmoveto
          12 12 -11 -9 7 hvcurveto
          -7 -5 -8 -6 -9 hhcurveto
          -9 0 27 6 hvcurveto
          56 30 rmoveto
          0 3 1 0 11 -1 -22 -8 -13 -13 -9 -12 vhcurveto
          2 7 33 5 16 vhcurveto
          205 -43 rmoveto
          3 6 17 15 -1 vvcurveto
          2 17 -18 -10 hvcurveto
          -11 -21 -2 10 -7 hvcurveto
          -255 30 rmoveto
          8 11 19 5 11 3 rrcurveto
          -11 -6 -15 -7 -12 vhcurveto
          -5 4 -14 8 -6 7 rrcurveto
          192 hmoveto
          5 -5 2 -10 -4 vvcurveto
          -15 hlineto
          7 1 9 7 3 vhcurveto
          -74 13 rmoveto
          8 -5 3 -14 2 -6 rrcurveto
          -20 hlineto
          8 2 10 5 7 vhcurveto
          -51 6 rmoveto
          27 hlineto
          -6 -2 -20 -7 -4 -14 16 10 vhcurveto
          82 -6 rmoveto
          13 hlineto
          -6 -1 -5 -6 -2 vhcurveto
          endchar
        </CharString>
        <CharString name="H">
          147 -7 43 -40 -21 164 145 13 21 -21 41 -41 91 243 22 7 -20 hstemhm
          67 22 -22 79 -16 30 277 135 -45 23 -7 72 -11 24 -12 25 hintmask 0111001010110010
          73 12 rmoveto
          -18 15 29 -19 24 hhcurveto
          8 11 1 10 hvcurveto
          hintmask 1011001001010010
          89 -14 90 88 vvcurveto
          11 1 31 0 vhcurveto
          hintmask 1011001010101001
          13 8 153 -11 rlineto
          81 hlineto
          5 6 7 2 4 4 -4 -5 2 vhcurveto
          120 -5 -21 -107 hvcurveto
          -33 -1 -34 -28 vvcurveto
          -34 1 -25 9 -1 vhcurveto
          -3 20 47 -16 24 hhcurveto
          6 8 1 6 hvcurveto
          203 vlineto
          8 1 -1 18 5 vvcurveto
          15 -4 115 -10 1 vhcurveto
          3 1 11 10 vvcurveto
          hintmask 1011001010110010
          23 -7 23 28 1 6 16 2 vvcurveto
          hintmask 1010010110100101
          37 -19 45 42 4 0 21 5 vvcurveto
          4 2 4 5 4 vvcurveto
          -16 -5 20 -17 hhcurveto
          -46 -15 -4 9 -37 -49 8 -47 -49 -11 -1 -44 -9 vvcurveto
          -11 -34 -44 -9 -36 -30 -29 7 -31 -10 -30 -7 -28 -50 -15 7 -29 -4 -3 -1 -2 hhcurveto
          -5 -2 2 7 callgsubr
          1 32 36 27 -1 27 11 vvcurveto
          -1 24 -12 41 27 6 8 4 2 vvcurveto
          hintmask 1011001010100101
          0 -12 12 -2 vhcurveto
          -74 hlineto
          -7 -5 rlineto
          -8 -1 -36 -10 vvcurveto
          -25 1 -27 7 -24 vhcurveto
          -182 3 -257 3 -67 vhcurveto
          19 43 rmoveto
          11 7 -6 12 rlineto
          -1 0 1 0 8 35 17 -1 hvcurveto
          -27 -3 -53 -35 vhcurveto
          462 46 rmoveto
          21 16 8 19 hhcurveto
          -13 -4 -22 -25 -14 hhcurveto
          -14 -2 25 5 hvcurveto
          57 -15 rmoveto
          -8 -5 -7 -8 vhcurveto
          10 1 3 5 9 hhcurveto
          -1 67 rmoveto
          -32 vlineto
          -7 -26 0 -5 vhcurveto
          -3 -7 0 -2 hhcurveto
          2 5 28 23 13 11 rrcurveto
          -486 21 rmoveto
          -22 -7 -25 -28 vhcurveto
          39 -4 8 39 vhcurveto
          430 -18 rmoveto
          13 42 2 7 vhcurveto
          1 5 -26 callgsubr
          -17 -10 -23 -26 -17 hhcurveto
          -2 6 -4 19 3 vvcurveto
          61 64 rmoveto
          -1 1 -10 -2 vvcurveto
          -29 -35 -1 -21 vhcurveto
          15 16 19 19 21 8 rrcurveto
          -523 18 rmoveto
          2 5 6 3 vvcurveto
          3 -9 35 -3 8 vhcurveto
          12 15 18 6 20 3 rrcurveto
          -9 -9 -6 -13 -2 vvcurveto
          7 -11 2 -9 -15 vvcurveto
          -29 -3 -6 -16 -23 vhcurveto
          11 5 rlineto
          -25 vlineto
          -4 -25 4 9 hvcurveto
          520 44 rmoveto
          hintmask 1011001010101010
          -21 -44 -25 -18 vhcurveto
          34 29 12 33 vhcurveto
          hintmask 1010101010100101
          3 67 rmoveto
          6 -7 2 -14 -4 vvcurveto
          -24 -33 -20 -23 vhcurveto
          8 vlineto
          1 48 57 3 vvcurveto
          -73 -25 rmoveto
          18 24 8 13 vhcurveto
          2 8 -17 callgsubr
          -13 -6 -19 -39 -17 hhcurveto
          7 -7 12 8 vvcurveto
          -446 46 64 callsubr
          30 22 66 45 42 5 -3 -6 11 9 5 7 10 hhcurveto
          -7 vlineto
          4 23 -3 -10 4 hvcurveto
          9 6 20 10 3 15 rrcurveto
          5 12 -9 -3 hvcurveto
          -12 -24 10 3 9 7 6 8 rlinecurve
          -26 5 vlineto
          2 25 21 11 21 3 rrcurveto
          3 13 -5 -2 2 hvcurveto
          hintmask 1011001010110010
          -34 -29 -37 -18 -45 hhcurveto
          14 vlineto
          -2 -10 -5 -6 hhcurveto
          hintmask 1010101010110010
          -5 -2 3 8 hvcurveto
          -3 -4 -12 -10 -9 hhcurveto
          9 3 4 4 8 vhcurveto
          -8 -8 -16 -6 -13 hhcurveto
          6 vlineto
          -9 -17 -18 -4 -20 hhcurveto
          13 vlineto
          -2 -40 10 -52 -45 hhcurveto
          0 -7 5 3 vvcurveto
          476 -2 rmoveto
          hintmask 1011001010100101
          8 8 21 22 14 hhcurveto
          4 4 -6 -2 -24 -15 -5 -21 hvcurveto
          hintmask 1011001010110010
          -4 -8 0 7 -3 hvcurveto
          -444 62 rmoveto
          -6 vlineto
          -36 -37 rlineto
          2 -1 9 4 vvcurveto
          9 12 18 25 1 vhcurveto
          308 6 rmoveto
          -2 1 -9 -1 vvcurveto
          -28 -24 2 -25 vhcurveto
          12 16 18 15 18 7 rrcurveto
          81 12 rmoveto
          8 -3 0 -3 -5 vvcurveto
          -10 -12 -29 -3 vhcurveto
          -31 hlineto
          16 30 18 8 16 vhcurveto
          -50 7 rmoveto
          -8 4 4 0 5 10 6 9 11 hhcurveto
          -25 -32 -17 -19 -9 vhcurveto
          1 -1 8 0 vhcurveto
          15 3 9 9 17 vhcurveto
          109 5 rmoveto
          0 -47 callgsubr
          vhcurveto
          -2 -2 -20 -32 -21 -14 rrcurveto
          28 12 20 28 vhcurveto
          34 -5 rmoveto
          -3 1 -10 -4 vvcurveto
          -24 -16 -4 -23 vhcurveto
          19 25 17 13 9 vhcurveto
          -518 -13 rmoveto
          4 17 11 15 14 12 rrcurveto
          6 -14 1 -23 -1 vvcurveto
          -11 -25 0 -6 -1 vhcurveto
          -1 1 -4 27 callsubr
          -7 62 rmoveto
          14 18 -1 11 vhcurveto
          2 10 -17 callgsubr
          -4 -24 -13 -5 -19 -14 rrcurveto
          -6 9 -1 21 1 vvcurveto
          494 -13 rmoveto
          5 4 15 22 14 hhcurveto
          -16 0 -17 -21 -5 -6 0 6 -1 vhcurveto
          -12 31 rmoveto
          12 5 6 1 10 1 8 -51 callsubr
          -3 -4 -13 -15 -9 hhcurveto
          -1 -4 4 2 hvcurveto
          -439 42 rmoveto
          7 hlineto
          -7 -30 rlineto
          -25 hlineto
          6 3 13 18 6 9 rrcurveto
          -43 -5 rmoveto
          20 18 11 18 3 4 -4 -3 vhcurveto
          -1 -1 -23 -35 -9 hhcurveto
          -7 -3 6 6 hvcurveto
          513 44 rmoveto
          5 -13 1 -8 -11 vvcurveto
          -22 -10 1 -24 vhcurveto
          22 11 17 17 14 vhcurveto
          -477 36 rmoveto
          14 -5 0 -5 -10 vvcurveto
          -21 -14 2 -18 vhcurveto
          9 12 19 6 11 vhcurveto
          446 -24 rmoveto
          2 4 12 12 4 2 rrcurveto
          94 callsubr
          hhcurveto
          -9 -3 25 3 -7 hvcurveto
          51 vlineto
          41 -3 -3 -39 -23 -3 -39 -23 -2 hvcurveto
          -2 1 -4 5 4 0 1 1 1 vvcurveto
          -457 37 rmoveto
          -16 -17 -14 -8 -7 vhcurveto
          20 8 11 17 6 vhcurveto
          -13 18 rmoveto
          0 20 20 4 11 vhcurveto
          3 -2 4 -16 -5 vvcurveto
          -12 -11 -3 -7 -5 -5 0 7 -3 vhcurveto
          -18 31 rmoveto
          7 13 0 3 7 8 -4 -3 vhcurveto
          -18 -24 rlineto
          -8 3 -5 16 5 vvcurveto
          endchar
        </CharString>
        <CharString name="I">
          62 callgsubr
          672 -20 hstemhm
          57 91 callsubr
          hintmask 10110100
          137 -81 callsubr
          hintmask 10110100
          -37 55 rmoveto
          -57 callgsubr
          hintmask 10110010
          -76 callgsubr
          hintmask 10110100
          5 13 6 7 -1 -4 -56 callgsubr
          9 118 rmoveto
          5 2 -6 -1 2 hvcurveto
          -31 -12 -2 -27 vhcurveto
          12 16 28 14 vhcurveto
          4 24 rmoveto
          -6 vlineto
          -32 -31 rlineto
          -8 hlineto
          30 8 7 32 vhcurveto
          -39 13 rmoveto
          4 7 15 20 20 8 rrcurveto
          -35 vlineto
          -32 -7 rlineto
          -12 46 rmoveto
          4 4 16 1 1 vhcurveto
          36 hlineto
          -14 -19 -23 -13 -4 -5 6 10 vhcurveto
          5 39 rmoveto
          32 32 rlineto
          10 -1 -24 -15 hvcurveto
          -13 -28 2 5 hvcurveto
          26 76 rmoveto
          5 8 0 -6 -24 -28 -27 -22 -6 hvcurveto
          6 50 rlineto
          9 1 21 4 9 hhcurveto
          6 48 rmoveto
          9 -1 -1 -13 -5 vvcurveto
          -16 -11 -1 -15 vhcurveto
          -5 -4 0 -5 hhcurveto
          4 14 21 16 7 6 rrcurveto
          -43 25 rmoveto
          13 -1 6 29 6 9 -1 -5 -17 -15 -33 -19 -5 -4 22 9 vhcurveto
          1 0 27 callsubr
          37 56 rmoveto
          -25 -27 vlineto
          9 22 9 5 7 vhcurveto
          -38 -3 rmoveto
          12 23 10 10 vhcurveto
          -11 -12 -21 -14 -3 -4 7 3 vhcurveto
          12 55 rmoveto
          1 0 2 1 vvcurveto
          -11 -7 rlineto
          -2 4 -4 17 4 vvcurveto
          7 15 0 3 20 6 -11 -19 -18 -12 -9 -20 -2 -4 29 callgsubr
          2 4 9 17 3 vvcurveto
          0 0 -36 callsubr
          endchar
        </CharString>
        <CharString name="Iacute">
          62 callgsubr
          866 -20 hstemhm
          93 91 callsubr
          hintmask 10110100
          173 -81 callsubr
          hintmask 10110100
          -37 55 rmoveto
          -57 callgsubr
          hintmask 10110010
          -76 callgsubr
          hintmask 10110100
          5 13 6 7 -1 -4 -56 callgsubr
          9 118 rmoveto
          5 2 -6 -1 2 hvcurveto
          -31 -12 -2 -27 vhcurveto
          12 16 28 14 vhcurveto
          4 24 rmoveto
          -6 vlineto
          -32 -31 rlineto
          -8 hlineto
          30 8 7 32 vhcurveto
          -39 13 rmoveto
          4 7 15 20 20 8 rrcurveto
          -35 vlineto
          -32 -7 rlineto
          -12 46 rmoveto
          4 4 16 1 1 vhcurveto
          36 hlineto
          -14 -19 -23 -13 -4 -5 6 10 vhcurveto
          5 39 rmoveto
          32 32 rlineto
          10 -1 -24 -15 hvcurveto
          -13 -28 2 5 hvcurveto
          26 76 rmoveto
          5 8 0 -6 -24 -28 -27 -22 -6 hvcurveto
          6 50 rlineto
          9 1 21 4 9 hhcurveto
          6 48 rmoveto
          9 -1 -1 -13 -5 vvcurveto
          -16 -11 -1 -15 vhcurveto
          -5 -4 0 -5 hhcurveto
          4 14 21 16 7 6 rrcurveto
          -43 25 rmoveto
          13 -1 6 29 6 9 -1 -5 -17 -15 -33 -19 -5 -4 22 9 vhcurveto
          1 0 27 callsubr
          37 56 rmoveto
          -25 -27 vlineto
          9 22 9 5 7 vhcurveto
          -38 -3 rmoveto
          12 23 10 10 vhcurveto
          -11 -12 -21 -14 -3 -4 7 3 vhcurveto
          12 55 rmoveto
          1 0 2 1 vvcurveto
          -11 -7 rlineto
          -2 4 -4 17 4 vvcurveto
          7 15 0 3 20 6 -11 -19 -18 -12 -9 -20 -2 -4 29 callgsubr
          2 4 9 17 3 vvcurveto
          0 0 -36 callsubr
          31 221 -104 callsubr
        </CharString>
        <CharString name="Icircumflex">
          62 callgsubr
          756 93 callgsubr
          -39 243 -116 91 callsubr
          hintmask 1010010100000000
          168 16 callsubr
          hintmask 0110100000000000
          2 2 3 9 2 vvcurveto
          332 vlineto
          11 -4 48 -1 10 vhcurveto
          13 5 5 12 vvcurveto
          hintmask 1010001000000000
          -40 callsubr
          hintmask 1010010100000000
          -34 callsubr
          hintmask 0110001000000000
          -57 callsubr
          hintmask 1010010100000000
          -37 55 rmoveto
          -57 callgsubr
          hintmask 1010010010000000
          -76 callgsubr
          hintmask 1001010100000000
          5 13 6 7 -1 -4 -56 callgsubr
          9 118 rmoveto
          5 2 -6 -1 2 hvcurveto
          -31 -12 -2 -27 vhcurveto
          12 16 28 14 vhcurveto
          4 24 rmoveto
          -6 vlineto
          -32 -31 rlineto
          -8 hlineto
          30 8 7 32 vhcurveto
          -39 13 rmoveto
          4 7 15 20 20 8 rrcurveto
          -35 vlineto
          -32 -7 rlineto
          -12 46 rmoveto
          4 4 16 1 1 vhcurveto
          36 hlineto
          -14 -19 -23 -13 -4 -5 6 10 vhcurveto
          5 39 rmoveto
          32 32 rlineto
          10 -1 -24 -15 hvcurveto
          -13 -28 2 5 hvcurveto
          26 76 rmoveto
          5 8 0 -6 -24 -28 -27 -22 -6 hvcurveto
          6 50 rlineto
          9 1 21 4 9 hhcurveto
          6 48 rmoveto
          9 -1 -1 -13 -5 vvcurveto
          -16 -11 -1 -15 vhcurveto
          -5 -4 0 -5 hhcurveto
          4 14 21 16 7 6 rrcurveto
          -43 25 rmoveto
          13 -1 6 29 6 9 -1 -5 -17 -15 -33 -19 -5 -4 22 9 vhcurveto
          1 0 27 callsubr
          37 56 rmoveto
          -25 -27 vlineto
          9 22 9 5 7 vhcurveto
          -38 -3 rmoveto
          12 23 10 10 vhcurveto
          -11 -12 -21 -14 -3 -4 7 3 vhcurveto
          12 55 rmoveto
          1 0 2 1 vvcurveto
          -11 -7 rlineto
          -2 4 -4 17 4 vvcurveto
          7 15 0 3 20 6 -11 -19 -18 -12 -9 -20 -2 -4 29 callgsubr
          2 4 9 17 3 vvcurveto
          0 0 -36 callsubr
          -65 188 rmoveto
          hintmask 1010100000000000
          -91 callsubr
          hintmask 1001100000000000
          -92 callgsubr
        </CharString>
        <CharString name="Idieresis">
          62 callgsubr
          804 28 hstemhm
          -27 90 12 91 callsubr
          hintmask 10111010
          155 16 callsubr
          hintmask 01111010
          2 2 3 9 2 vvcurveto
          332 vlineto
          11 -4 48 -1 10 vhcurveto
          13 5 5 12 vvcurveto
          hintmask 10110100
          -40 callsubr
          hintmask 10111010
          -34 callsubr
          hintmask 01110100
          -57 callsubr
          hintmask 10111010
          -37 55 rmoveto
          -57 callgsubr
          hintmask 10111001
          -76 callgsubr
          hintmask 10111010
          5 13 6 7 -1 -4 -56 callgsubr
          9 118 rmoveto
          5 2 -6 -1 2 hvcurveto
          -31 -12 -2 -27 vhcurveto
          12 16 28 14 vhcurveto
          4 24 rmoveto
          -6 vlineto
          -32 -31 rlineto
          -8 hlineto
          30 8 7 32 vhcurveto
          -39 13 rmoveto
          4 7 15 20 20 8 rrcurveto
          -35 vlineto
          -32 -7 rlineto
          -12 46 rmoveto
          4 4 16 1 1 vhcurveto
          36 hlineto
          -14 -19 -23 -13 -4 -5 6 10 vhcurveto
          5 39 rmoveto
          32 32 rlineto
          10 -1 -24 -15 hvcurveto
          -13 -28 2 5 hvcurveto
          26 76 rmoveto
          5 8 0 -6 -24 -28 -27 -22 -6 hvcurveto
          6 50 rlineto
          9 1 21 4 9 hhcurveto
          6 48 rmoveto
          9 -1 -1 -13 -5 vvcurveto
          -16 -11 -1 -15 vhcurveto
          -5 -4 0 -5 hhcurveto
          4 14 21 16 7 6 rrcurveto
          -43 25 rmoveto
          13 -1 6 29 6 9 -1 -5 -17 -15 -33 -19 -5 -4 22 9 vhcurveto
          1 0 27 callsubr
          37 56 rmoveto
          -25 -27 vlineto
          9 22 9 5 7 vhcurveto
          -38 -3 rmoveto
          12 23 10 10 vhcurveto
          -11 -12 -21 -14 -3 -4 7 3 vhcurveto
          12 55 rmoveto
          1 0 2 1 vvcurveto
          -11 -7 rlineto
          -2 4 -4 17 4 vvcurveto
          7 15 0 3 20 6 -11 -19 -18 -12 -9 -20 -2 -4 29 callgsubr
          2 4 9 17 3 vvcurveto
          0 0 -36 callsubr
          -150 209 -98 callsubr
          -96 callgsubr
        </CharString>
        <CharString name="Igrave">
          62 callgsubr
          876 -20 hstemhm
          93 36 -18 80 -5 23 hintmask 10110100
          173 -81 callsubr
          -37 55 rmoveto
          hintmask 10110100
          -57 callgsubr
          -76 callgsubr
          5 13 6 7 -1 -4 -56 callgsubr
          9 118 rmoveto
          5 2 -6 -1 2 hvcurveto
          -31 -12 -2 -27 vhcurveto
          12 16 28 14 vhcurveto
          4 24 rmoveto
          -6 vlineto
          -32 -31 rlineto
          -8 hlineto
          30 8 7 32 vhcurveto
          -39 13 rmoveto
          4 7 15 20 20 8 rrcurveto
          -35 vlineto
          -32 -7 rlineto
          -12 46 rmoveto
          4 4 16 1 1 vhcurveto
          36 hlineto
          -14 -19 -23 -13 -4 -5 6 10 vhcurveto
          5 39 rmoveto
          32 32 rlineto
          10 -1 -24 -15 hvcurveto
          -13 -28 2 5 hvcurveto
          26 76 rmoveto
          5 8 0 -6 -24 -28 -27 -22 -6 hvcurveto
          6 50 rlineto
          9 1 21 4 9 hhcurveto
          6 48 rmoveto
          9 -1 -1 -13 -5 vvcurveto
          -16 -11 -1 -15 vhcurveto
          -5 -4 0 -5 hhcurveto
          4 14 21 16 7 6 rrcurveto
          -43 25 rmoveto
          13 -1 6 29 6 9 -1 -5 -17 -15 -33 -19 -5 -4 22 9 vhcurveto
          1 0 27 callsubr
          37 56 rmoveto
          -25 -27 vlineto
          9 22 9 5 7 vhcurveto
          -38 -3 rmoveto
          12 23 10 10 vhcurveto
          -11 -12 -21 -14 -3 -4 7 3 vhcurveto
          12 55 rmoveto
          1 0 2 1 vvcurveto
          -11 -7 rlineto
          -2 4 -4 17 4 vvcurveto
          7 15 0 3 20 6 -11 -19 -18 -12 -9 -20 -2 -4 29 callgsubr
          2 4 9 17 3 vvcurveto
          0 0 -36 callsubr
          -125 240 -99 callgsubr
        </CharString>
        <CharString name="J">
          -281 667 -20 hstemhm
          7 185 -102 35 -35 89 -17 30 hintmask 11000000
          7 -167 rmoveto
          56 hlineto
          2 15 127 -40 192 vvcurveto
          5 -4 33 -1 5 vhcurveto
          1 0 27 callsubr
          1 6 3 27 1 3 -5 7 rcurveline
          5 7 rlineto
          105 vlineto
          hintmask 10010000
          -12 3 -1 39 20 38 8 3 14 2 -7 9 1 5 8 -4 19 21 -8 4 10 vvcurveto
          hintmask 11000000
          6 12 39 6 vvcurveto
          1 2 0 3 3 5 -1 5 4 vvcurveto
          7 1 7 5 6 vhcurveto
          -5 33 -1 25 31 15 0 18 20 2 6 20 3 vvcurveto
          6 -8 13 -7 vhcurveto
          -18 0 -8 -35 hhcurveto
          -13 -13 0 1 -4 hvcurveto
          -5 -3 -8 -11 -5 vvcurveto
          7 -450 rlineto
          -8 -29 0 -14 -28 -42 9 -43 -44 -8 -1 -37 -8 vvcurveto
          -14 -38 -73 -8 -3 vvcurveto
          115 6 85 callgsubr
          3 hhcurveto
          -5 -16 -28 -15 -6 hhcurveto
          -1 -25 callgsubr
          18 22 2 14 hvcurveto
          33 31 rmoveto
          hintmask 10101000
          5 2 1 -4 -10 -9 -1 -7 hvcurveto
          0 -8 1 -40 callgsubr
          9 5 5 3 8 hhcurveto
          7 39 rmoveto
          -14 -6 -1 -19 vhcurveto
          12 6 8 3 11 hhcurveto
          -43 23 rmoveto
          13 6 2 27 11 -1 11 4 vvcurveto
          6 28 2 11 vhcurveto
          -18 -22 -5 -4 -17 vhcurveto
          0 4 -2 0 vhcurveto
          6 3 16 14 hhcurveto
          -19 0 -15 -16 -3 -4 1 1 -4 vhcurveto
          4 -8 21 -1 -6 vvcurveto
          -11 -25 -15 -7 -2 vhcurveto
          -2 2 -9 19 4 vvcurveto
          45 124 rmoveto
          -39 -1 -2 -39 vhcurveto
          14 vlineto
          7 34 20 6 vhcurveto
          -23 13 85 callgsubr
          2 hhcurveto
          -12 -9 -14 -10 -16 hhcurveto
          20 6 3 19 vhcurveto
          -22 17 rmoveto
          9 7 21 29 21 hhcurveto
          -32 vlineto
          -4 -37 -9 -7 vhcurveto
          14 69 rmoveto
          -8 hlineto
          22 22 18 19 vhcurveto
          -32 -14 -42 -40 vhcurveto
          11 2 3 4 vhcurveto
          2 3 -2 2 hhcurveto
          4 4 4 18 hvcurveto
          11 73 rmoveto
          -5 1 -15 3 -5 9 rrcurveto
          9 7 11 24 17 hhcurveto
          -24 -4 -73 -39 vhcurveto
          16 3 35 30 vhcurveto
          -25 68 rmoveto
          31 7 rlineto
          1 -1 1 -4 -2 vvcurveto
          -14 -19 -11 -14 vhcurveto
          50 vmoveto
          10 24 20 14 14 vhcurveto
          -44 vlineto
          -8 -14 1 -4 -7 -13 -1 8 vhcurveto
          31 61 6 callsubr
          -13 -27 -17 -13 vhcurveto
          30 9 1 30 2 vhcurveto
          13 62 rmoveto
          2 -1 3 -9 1 -2 rrcurveto
          -38 -13 -3 -37 -1 vhcurveto
          -1 0 1 1 11 36 33 9 8 hvcurveto
          -19 hmoveto
          -30 -30 rlineto
          1 -1 7 1 vvcurveto
          17 13 3 18 1 vhcurveto
          -30 19 rmoveto
          36 50 rlineto
          12 vlineto
          -36 -38 rlineto
          -7 hlineto
          4 21 18 5 12 vvcurveto
          -17 hlineto
          2 10 19 3 10 vhcurveto
          -2 -4 -4 -1 -3 hhcurveto
          -12 -2 16 12 hvcurveto
          1 1 8 2 vvcurveto
          56 -11 rlineto
          -15 13 -52 -27 vvcurveto
          -29 -30 -8 -26 vhcurveto
          endchar
        </CharString>
        <CharString name="K">
          39 -3 -21 33 -21 463 40 -40 219 3 -20 hstemhm
          63 34 -21 21 28 249 -237 31 -15 27 100 38 58 35 -35 164 hintmask 1010110100001000
          376 101 rmoveto
          -19 72 -91 19 -15 vhcurveto
          19 12 18 6 20 hhcurveto
          6 6 0 -1 6 hvcurveto
          1 2 4 8 2 vvcurveto
          63 -126 98 3 vhcurveto
          hintmask 1010110100010000
          -6 hlineto
          22 -29 12 -8 15 vhcurveto
          hintmask 1010110010101000
          -22 41 -34 43 48 -10 callsubr
          3 vvcurveto
          153 198 26 21 24 36 18 29 rlinecurve
          19 -11 -5 6 -14 hhcurveto
          hintmask 1001010100010000
          -2 -10 -9 -1 -7 hhcurveto
          hintmask 1010110010101000
          -15 -10 3 -11 hhcurveto
          -21 -147 -181 -27 -1 1 -19 callsubr
          -26 -17 -58 -80 -5 hhcurveto
          0 0 29 callgsubr
          -23 61 -75 32 -50 vhcurveto
          6 -18 20 -32 18 -25 rrcurveto
          6 21 -34 11 hhcurveto
          hintmask 1010110100010000
          -2 42 rmoveto
          0 4 5 3 vhcurveto
          -3 2 -18 10 -4 7 -12 19 -12 35 -13 20 rrcurveto
          -10 14 -40 36 14 vvcurveto
          8 7 3 5 19 -2 -25 -15 vhcurveto
          22 70 -122 -24 27 hvcurveto
          11 -10 2 9 -12 vvcurveto
          -7 -2 -4 -4 -7 vhcurveto
          2 3 3 31 callsubr
          24 25 -57 -7 9 hvcurveto
          -17 vlineto
          -21 -59 60 16 hvcurveto
          4 1 27 callsubr
          -9 12 -29 5 21 vvcurveto
          -129 191 rmoveto
          32 hlineto
          -12 -13 0 -7 vhcurveto
          -2 1 -8 7 -2 4 rrcurveto
          12 30 rmoveto
          -5 2 -2 4 3 vvcurveto
          hintmask 1010110010110000
          13 17 15 13 8 1 -6 -5 -13 -11 -13 -2 -12 vhcurveto
          -38 hlineto
          43 62 rmoveto
          8 14 17 5 15 hhcurveto
          -7 -19 -20 -5 -6 -13 7 7 -3 vhcurveto
          32 37 rmoveto
          8 5 -3 -9 5 hvcurveto
          -31 -8 rlineto
          11 1 9 12 vhcurveto
          6 15 rmoveto
          17 39 5 10 vhcurveto
          hintmask 0110110100010000
          0 5 0 1 vhcurveto
          -15 -9 -12 -23 -4 hhcurveto
          -3 -27 9 7 hvcurveto
          37 65 rmoveto
          2 -1 24 -12 -9 vvcurveto
          -12 -36 -5 -6 vhcurveto
          -1 -7 -56 callgsubr
          6 14 7 14 12 10 rrcurveto
          18 6 rmoveto
          7 10 26 6 2 1 3 -51 callsubr
          -8 -2 -9 -17 -10 hhcurveto
          -8 -10 6 7 -4 hvcurveto
          31 35 rmoveto
          -10 vlineto
          -31 -13 rlineto
          -29 callsubr
          15 22 5 10 vhcurveto
          -6 15 rmoveto
          12 23 44 -10 12 23 rrcurveto
          -14 -11 -6 -13 hhcurveto
          23 8 38 1 16 hhcurveto
          -11 vlineto
          -5 -53 -51 -9 -3 -23 2 11 -4 vhcurveto
          -324 -587 rmoveto
          -14 14 27 2 22 hhcurveto
          19 20 1 11 2 hvcurveto
          hintmask 1010110001110000
          16 1 76 16 vvcurveto
          hintmask 1010110010110000
          105 -12 108 122 vvcurveto
          38 -1 54 -17 20 vhcurveto
          1 12 3 56 1 13 rrcurveto
          0 -1 1 1 2 1 2 3 vvcurveto
          7 -2 8 -10 vhcurveto
          -73 hlineto
          -74 -7 -74 -74 vvcurveto
          hintmask 1010101010110000
          -124 13 -127 -125 vvcurveto
          -21 0 -20 -1 -21 vhcurveto
          62 62 rmoveto
          2 8 31 callsubr
          -39 -38 rlineto
          -14 hlineto
          31 10 7 30 vhcurveto
          13 -25 rmoveto
          0 1 -2 0 vhcurveto
          -5 -8 -7 -3 vhcurveto
          22 callsubr
          hintmask 1010110001110000
          16 76 rmoveto
          -20 -26 -6 -16 vhcurveto
          10 12 13 16 17 hhcurveto
          -47 11 rmoveto
          hintmask 1010110010110000
          31 hlineto
          -9 -8 -11 -10 -12 hhcurveto
          44 63 rmoveto
          -1 1 -8 -1 vvcurveto
          -14 -7 -2 -14 vhcurveto
          -2 -8 -50 callgsubr
          8 9 11 12 13 4 rrcurveto
          -52 12 rmoveto
          42 hlineto
          -11 -27 -11 -7 -10 vhcurveto
          -7 8 -1 14 10 vvcurveto
          20 19 rmoveto
          3 14 5 16 17 hhcurveto
          -17 -6 -9 -18 -4 -5 0 7 -3 vhcurveto
          -24 36 rmoveto
          5 6 1 5 2 26 -4 -2 10 vhcurveto
          -43 -42 rlineto
          50 106 rmoveto
          -38 -46 vlineto
          15 32 23 14 vhcurveto
          -50 16 rmoveto
          43 hlineto
          -12 -11 -15 -20 -17 hhcurveto
          46 78 rmoveto
          -24 -4 -5 -26 vhcurveto
          14 15 15 15 vhcurveto
          -46 22 rmoveto
          37 hlineto
          -3 -16 -28 -16 -6 -4 rrcurveto
          -1 58 rmoveto
          1 1 2 1 vvcurveto
          4 6 19 21 15 hhcurveto
          -25 -3 -13 -31 -6 -1 10 -1 vhcurveto
          19 52 rmoveto
          -4 14 -21 -14 16 vvcurveto
          94 callgsubr
          hintmask 1010110100010000
          31 30 rlineto
          0 2 1 1 vhcurveto
          hintmask 1010110010110000
          8 1 -7 -7 -35 -12 -22 -31 -16 hvcurveto
          -1 3 -2 10 3 vvcurveto
          18 7 4 16 vhcurveto
          1 2 -51 callsubr
          -7 74 rmoveto
          -21 10 17 19 -13 15 rrcurveto
          68 vlineto
          1 4 5 2 vhcurveto
          hintmask 1010110100010000
          4 21 -6 -10 hvcurveto
          -37 -14 -17 -4 -7 15 -10 -11 vvcurveto
          -24 -13 -19 -26 vhcurveto
          10 5 18 13 2 2 0 -1 2 vhcurveto
          endchar
        </CharString>
        <CharString name="L">
          -85 -9 43 -24 -21 24 -21 50 31 -31 45 -45 166 -4 190 266 -20 hstemhm
          65 22 -22 40 -40 55 17 23 -7 27 hintmask 1000101110010000
          65 142 rmoveto
          -100 vlineto
          -45 68 -6 55 vhcurveto
          hintmask 0011001110010000
          24 21 1 13 hhcurveto
          hintmask 0101001110010000
          21 27 -3 26 hhcurveto
          36 29 7 16 23 hvcurveto
          3 30 -5 -1 4 hvcurveto
          hintmask 1000101110010000
          3 21 14 14 hvcurveto
          18 -7 15 20 vvcurveto
          hintmask 1001001110010000
          -41 -24 -14 -51 hhcurveto
          -13 -14 1 7 -9 hvcurveto
          -22 1 -106 2 -12 1 rrcurveto
          3 -3 8 5 vvcurveto
          5 2 3 4 1 vhcurveto
          -11 13 rlineto
          2 -2 32 13 vvcurveto
          hintmask 1001001110001000
          102 20 98 102 vvcurveto
          40 -1 41 -6 39 vhcurveto
          -3 17 -7 44 -1 1 -7 6 rcurveline
          -80 hlineto
          -13 -12 rlineto
          -2 -2 0 -6 -7 vvcurveto
          -25 -1 -27 10 -8 vhcurveto
          -35 -1 -39 -36 vvcurveto
          -63 2 -59 11 -33 vhcurveto
          -11 -57 -10 -106 -3 vvcurveto
          87 -108 rmoveto
          19 37 0 8 vhcurveto
          -11 vlineto
          8 11 13 -1 7 hhcurveto
          -2 -2 -19 -23 -10 hhcurveto
          7 -5 -25 3 -15 hhcurveto
          158 19 rmoveto
          -10 -13 -19 -12 -3 -9 8 5 -2 vhcurveto
          -13 -9 -16 -2 -14 hhcurveto
          31 63 0 15 vhcurveto
          10 -11 rmoveto
          45 37 8 43 hhcurveto
          -17 -85 -9 -15 vhcurveto
          -1 -4 7 -1 -9 -11 -8 -7 -2 -7 -56 callgsubr
          -198 13 rmoveto
          16 7 27 3 16 1 -10 callgsubr
          -24 -11 -9 -1 -22 hhcurveto
          -6 -7 1 6 -1 hvcurveto
          31 44 rmoveto
          hintmask 1001001110010000
          3 -2 4 -9 -3 vvcurveto
          -13 -31 1 -7 vhcurveto
          -12 74 rmoveto
          53 -1 22 52 vhcurveto
          hintmask 1001001101010000
          -26 -4 -20 -29 -4 vhcurveto
          28 hlineto
          -14 -10 -10 -7 vvcurveto
          4 -3 4 -3 -4 vvcurveto
          -3 -11 -5 -8 vhcurveto
          4 -7 7 -3 7 -3 -8 -10 -10 -8 -13 -7 rrcurveto
          -1 6 -4 26 6 vvcurveto
          hintmask 1001001110010000
          2 -7 16 6 vvcurveto
          hintmask 1001001100110000
          33 133 rmoveto
          hintmask 1000010101010000
          6 -15 -1 7 vvcurveto
          24 20 10 18 13 vhcurveto
          -17 1 -20 -7 vvcurveto
          -35 -2 -34 -44 vhcurveto
          hintmask 1001001100110000
          22 22 15 17 vvcurveto
          hintmask 1001001101001000
          -15 64 rmoveto
          18 hlineto
          -2 -2 -8 -12 -8 hhcurveto
          38 60 rmoveto
          -27 -31 vlineto
          9 9 16 18 6 hhcurveto
          -44 4 rmoveto
          24 6 rlineto
          0 -44 callsubr
          -9 -19 -1 -6 vhcurveto
          44 75 rmoveto
          10 hlineto
          -32 -3 -18 -31 -3 -14 1 1 -3 vhcurveto
          24 67 rmoveto
          0 1 2 1 12 -19 -5 15 vvcurveto
          8 10 18 19 17 hhcurveto
          -31 -14 -48 -37 -11 vhcurveto
          -1 3 0 11 3 vvcurveto
          19 7 2 18 vhcurveto
          -7 55 rmoveto
          0 -47 callgsubr
          vhcurveto
          -7 -3 -5 0 -6 19 callgsubr
          5 5 9 1 3 hhcurveto
          7 69 rmoveto
          5 -2 -2 2 -3 -2 -4 -2 -3 hhcurveto
          -6 -5 6 31 -2 hvcurveto
          3 14 19 4 4 hhcurveto
          19 0 -60 -20 -31 -26 1 -26 hvcurveto
          22 18 16 7 23 vhcurveto
          endchar
        </CharString>
        <CharString name="M">
          227 -12 118 -105 193 -80 80 -32 32 83 95 -48 48 76 29 6 25 -25 66 -66 186 hstemhm
          62 23 51 29 -16 36 253 185 -31 31 -31 106 -68 54 -36 36 hintmask 101010110011010010000000
          43 9 rmoveto
          -18 26 12 -3 27 hhcurveto
          9 16 1 13 2 hvcurveto
          31 210 rlineto
          -1 7 0 7 7 vvcurveto
          hintmask 100110110010101010000000
          57 20 67 53 vvcurveto
          2 10 9 48 1 10 rrcurveto
          -1 1 5 -5 1 hhcurveto
          30 -90 57 -94 49 -82 rrcurveto
          -28 1 18 -16 28 hhcurveto
          22 8 34 16 8 hvcurveto
          34 71 77 173 3 vvcurveto
          24 13 vlineto
          10 2 -100 -17 hvcurveto
          33 callgsubr
          1 -1 24 -130 -29 vvcurveto
          -14 1 -75 5 -47 vhcurveto
          1 -6 -27 -14 vvcurveto
          hintmask 010010110011000100000000
          -21 45 -2 19 27 15 -2 40 vhcurveto
          hintmask 101010100111010010000000
          39 -12 40 -2 39 vhcurveto
          -13 239 -32 60 -16 164 rrcurveto
          4 -1 3 2 4 1 2 2 vvcurveto
          26 -32 6 -14 -17 -22 -2 -17 -7 vhcurveto
          -7 -17 -40 -79 -9 -15 -4 -7 -36 -53 -3 -7 -15 -25 -20 -61 -27 -20 -46 38 -103 245 -43 14 rrcurveto
          -2 -14 -7 -1 -7 -14 7 -2 hhcurveto
          -28 3 -61 -14 -2 hvcurveto
          -7 -42 -5 -37 -31 vvcurveto
          -38 -223 rlineto
          -11 1 -12 -11 vvcurveto
          -66 -11 -63 -14 -65 vhcurveto
          1 -2 3 -14 2 -2 rrcurveto
          31 30 rmoveto
          18 4 38 26 vhcurveto
          -2 -2 -2 -8 -1 -3 rrcurveto
          0 1 -5 -1 vvcurveto
          11 hlineto
          -5 1 -9 -9 vvcurveto
          -16 -2 -16 -11 -11 -14 5 13 vhcurveto
          556 59 rmoveto
          9 14 7 7 12 4 -50 -13 -12 -6 -3 -19 -3 vhcurveto
          3 -12 51 11 vvcurveto
          -545 8 rmoveto
          48 0 29 26 vhcurveto
          -8 vlineto
          13 6 rlineto
          -2 1 -13 -3 vvcurveto
          -24 -9 -33 -31 vhcurveto
          545 19 rmoveto
          hintmask 101010110011010001000000
          18 hlineto
          hintmask 101010110011010010000000
          -7 -3 -11 0 -4 hhcurveto
          24 46 rmoveto
          -26 -28 vlineto
          14 15 12 13 vhcurveto
          -24 17 rmoveto
          hintmask 101010110011010001000000
          18 hlineto
          hintmask 010010110011010010000000
          -18 -18 rlineto
          -519 49 rmoveto
          -1 3 -17 13 -1 2 rrcurveto
          -2 8 -5 31 8 vvcurveto
          41 10 0 -37 -23 -4 -23 -33 3 9 14 4 hvcurveto
          512 -9 rmoveto
          hintmask 101001110010110001000000
          14 13 9 12 4 vhcurveto
          -38 vlineto
          -7 -18 -1 12 hvcurveto
          -232 28 rmoveto
          0 3 -40 callgsubr
          -7 -4 -5 -14 -12 hhcurveto
          11 7 7 10 4 vhcurveto
          -15 11 rmoveto
          0 0 callsubr
          -1 -9 -9 -4 vhcurveto
          3 -2 1 1 vvcurveto
          2 9 5 5 vhcurveto
          247 -4 rmoveto
          12 hlineto
          -6 -2 -5 -2 -5 hhcurveto
          -235 56 rmoveto
          5 vlineto
          -3 -12 32 callsubr
          -4 -1 -23 -3 -3 -2 -7 6 rcurveline
          8 24 42 -15 18 15 -13 8 rcurveline
          13 22 18 45 31 6 rrcurveto
          -6 3 -6 2 5 vvcurveto
          28 31 13 25 vhcurveto
          -28 -42 -34 -14 -13 vhcurveto
          20 hlineto
          -8 -1 -17 -11 1 -16 4 2 -6 vhcurveto
          -7 7 -7 -4 vvcurveto
          -4 -10 -8 -3 7 6 2 3 6 vhcurveto
          -56 -39 -26 -50 vhcurveto
          17 30 17 9 5 vhcurveto
          228 -20 rmoveto
          3 3 13 12 10 hhcurveto
          -37 vlineto
          -15 -11 6 16 hvcurveto
          -262 15 rmoveto
          -8 -7 -5 -7 vhcurveto
          0 -1 1 1 vvcurveto
          9 8 2 7 vhcurveto
          -219 17 rmoveto
          2 5 1 -4 -14 -34 0 -1 hvcurveto
          17 16 0 12 vhcurveto
          481 7 rmoveto
          8 10 -5 -2 8 hvcurveto
          -7 -5 -10 -6 -11 hhcurveto
          -492 31 rmoveto
          2 8 -2 -3 1 hvcurveto
          -2 -8 -23 -11 -5 hhcurveto
          13 vlineto
          3 17 2 8 vhcurveto
          196 hmoveto
          24 hlineto
          -8 -2 -11 -6 -11 hhcurveto
          291 14 rmoveto
          -11 callsubr
          14 24 3 10 vhcurveto
          -8 -1 -18 -8 -4 -17 3 2 -3 vhcurveto
          -507 13 rmoveto
          6 11 32 8 0 vvcurveto
          7 -3 0 -5 -4 vvcurveto
          -6 0 -6 -7 vhcurveto
          188 25 rmoveto
          0 3 -28 callgsubr
          3 -2 8 -8 -2 vvcurveto
          -8 -6 -8 0 -10 -1 -8 -50 callgsubr
          6 4 13 14 4 hhcurveto
          275 11 rmoveto
          0 4 1 2 vhcurveto
          hintmask 101010110011010010000000
          6 13 -1 -10 -5 -25 -4 0 hvcurveto
          -501 19 rmoveto
          6 5 1 3 hhcurveto
          5 5 -1 -6 1 hvcurveto
          -4 -7 -15 -3 -3 hhcurveto
          179 13 rmoveto
          43 hlineto
          -15 -3 -13 1 -11 hhcurveto
          -7 -10 0 10 hvcurveto
          1 1 2 1 vvcurveto
          -172 18 rmoveto
          8 3 8 5 2 8 rrcurveto
          -18 hlineto
          6 16 36 -19 rlineto
          1 -3 1 -2 -2 vvcurveto
          -7 -16 -5 -14 -6 -7 1 5 -1 vhcurveto
          198 13 rmoveto
          4 5 0 -5 2 hvcurveto
          -14 -8 -18 -1 -13 hhcurveto
          13 15 7 13 vhcurveto
          288 -5 rmoveto
          11 15 7 11 vhcurveto
          -34 vlineto
          -13 -13 1 15 hvcurveto
          -327 18 rmoveto
          28 hlineto
          -10 -17 -3 -4 -5 -2 9 4 vhcurveto
          hintmask 101010110011001010000000
          322 6 rmoveto
          5 4 4 2 6 hhcurveto
          -6 -2 -4 -6 -3 vhcurveto
          -476 25 rmoveto
          6 3 5 10 vhcurveto
          -7 2 -7 5 7 vvcurveto
          32 4 -16 -30 hvcurveto
          -12 -23 4 17 hvcurveto
          174 1 rmoveto
          -14 -20 vlineto
          11 11 3 9 vhcurveto
          295 1 rmoveto
          9 20 2 5 vhcurveto
          -21 vlineto
          -24 8 rlineto
          -1 0 1 1 hvcurveto
          -332 3 rmoveto
          18 hlineto
          -6 -6 -7 -6 hhcurveto
          7 45 rmoveto
          5 -5 4 -8 2 -6 rrcurveto
          -6 -11 -10 -1 -11 hhcurveto
          11 15 11 6 4 vhcurveto
          306 -7 rmoveto
          2 22 -3 -3 15 hvcurveto
          -7 -6 -9 -5 -8 hhcurveto
          -4 -12 10 8 hvcurveto
          -91 13 rmoveto
          5 -1 11 -9 3 -4 rrcurveto
          -6 -11 -13 -8 -14 hhcurveto
          10 5 18 14 vhcurveto
          -352 -6 rmoveto
          32 vlineto
          17 -2 -10 27 hhcurveto
          -11 -4 -25 -17 -4 -11 11 3 -6 vhcurveto
          363 11 rmoveto
          2 5 17 5 4 hhcurveto
          2 4 -5 -2 hvcurveto
          -4 -6 -5 -2 -6 hhcurveto
          -7 -4 0 6 -4 hvcurveto
          57 25 rmoveto
          6 6 rlineto
          -2 77 callsubr
          -7 -31 -5 -1 -4 hvcurveto
          4 -6 -24 -6 rlineto
          -29 callsubr
          26 81 4 19 10 vhcurveto
          hintmask 101010101011001010000000
          -6 10 rlineto
          -49 hlineto
          3 20 34 -6 12 20 -13 8 -25 -5 -6 15 rrcurveto
          14 11 20 17 19 hhcurveto
          0 5 -40 callgsubr
          13 -129 rlineto
          1 -2 5 -14 -3 vvcurveto
          -5 -9 -1 -20 vhcurveto
          hintmask 101010110011010010000000
          -26 12 20 11 -19 hvcurveto
          -345 -18 rmoveto
          8 1 13 -1 4 1 10 -17 callgsubr
          -5 -5 -8 -9 -3 hhcurveto
          0 -12 5 -3 3 vhcurveto
          -56 24 rmoveto
          4 10 30 9 3 hhcurveto
          -20 -9 -7 1 -17 hhcurveto
          -5 -4 1 5 -1 hvcurveto
          80 19 rmoveto
          5 -5 8 -7 -3 vvcurveto
          -11 -28 1 -7 vhcurveto
          -1 -7 0 -1 hhcurveto
          3 3 17 14 11 8 rrcurveto
          358 -6 rmoveto
          -19 -6 rlineto
          19 hlineto
          -68 19 rmoveto
          7 5 -1 -6 6 hvcurveto
          -29 hlineto
          7 1 4 10 callsubr
          -352 17 rmoveto
          3 5 9 2 vhcurveto
          -2 -12 -15 -11 -12 hhcurveto
          20 36 7 12 7 21 -5 -11 -9 -28 -14 -8 95 callsubr
          1 4 -9 4 2 vvcurveto
          370 26 rmoveto
          5 6 0 -6 2 hvcurveto
          -10 -10 -5 2 -10 hhcurveto
          12 4 2 8 vhcurveto
          -401 48 rmoveto
          1 34 -3 -2 3 hvcurveto
          -13 vlineto
          9 4 -3 -11 hvcurveto
          -8 -16 0 8 -1 hvcurveto
          -10 -11 -7 -5 hhcurveto
          endchar
        </CharString>
        <CharString name="N">
          35 callgsubr
          8 callsubr
          hintmask 110010001010001000010000
          68 callgsubr
          hintmask 110010001000101000010000
          40 14 38 41 vvcurveto
          hintmask 110001001001000010001000
          -48 callsubr
          hintmask 110000101010000001010000
          -38 callgsubr
          hintmask 110000011001001000010000
          -80 callsubr
          hintmask 101010001010000000110000
          11 callsubr
          hintmask 100110001010000000110000
          -34 callgsubr
          hintmask 100110000100010010010000
          -58 callsubr
          hintmask 100110001001000100010000
          -83 callsubr
          hintmask 101001001010001000010000
          -93 callsubr
          hintmask 110000101010001000010000
          2 7 5 17 0 vvcurveto
          37 hlineto
          1 5 -8 -3 -11 -5 -26 -1 -1 hvcurveto
          -12 -6 6 -6 -31 -31 rlineto
          -7 hlineto
          -369 50 rmoveto
          2 3 -26 callgsubr
          -50 -31 rlineto
          -5 hlineto
          20 31 11 18 vhcurveto
          -49 6 rmoveto
          19 30 31 19 vhcurveto
          2 3 -51 callsubr
          -50 -55 rlineto
          -1 -4 4 2 hvcurveto
          71 44 rmoveto
          3 5 -10 -3 hvcurveto
          -7 -7 -28 -13 2 hhcurveto
          -1 -2 1 0 hvcurveto
          6 3 14 26 11 hhcurveto
          -71 11 rmoveto
          7 9 0 2 vhcurveto
          2 -1 9 -4 3 -2 -20 -12 rcurveline
          -1 2 -4 8 2 vvcurveto
          endchar
        </CharString>
        <CharString name="Ntilde">
          35 callgsubr
          71 55 -17 67 -37 37 8 callsubr
          hintmask 110010001011010001000010
          68 callgsubr
          hintmask 110010001011000101000010
          40 14 38 41 vvcurveto
          hintmask 110001001011001000010001
          -48 callsubr
          hintmask 110000101011010000001010
          -38 callgsubr
          hintmask 110000011011001001000010
          -80 callsubr
          hintmask 101010001011010000000110
          11 callsubr
          hintmask 100110001011010000000110
          -34 callgsubr
          hintmask 100110001010100010010010
          -58 callsubr
          hintmask 100110001011001000100010
          -83 callsubr
          hintmask 101001001011010001000010
          -93 callsubr
          hintmask 110000101011010001000010
          2 7 5 17 0 vvcurveto
          37 hlineto
          1 5 -8 -3 -11 -5 -26 -1 -1 hvcurveto
          -12 -6 6 -6 -31 -31 rlineto
          -7 hlineto
          -369 50 rmoveto
          2 3 -26 callgsubr
          -50 -31 rlineto
          -5 hlineto
          20 31 11 18 vhcurveto
          -49 6 rmoveto
          19 30 31 19 vhcurveto
          2 3 -51 callsubr
          -50 -55 rlineto
          -1 -4 4 2 hvcurveto
          71 44 rmoveto
          3 5 -10 -3 hvcurveto
          -7 -7 -28 -13 2 hhcurveto
          -1 -2 1 0 hvcurveto
          6 3 14 26 11 hhcurveto
          -71 11 rmoveto
          7 9 0 2 vhcurveto
          2 -1 9 -4 3 -2 -20 -12 rcurveline
          -1 2 -4 8 2 vvcurveto
          -7 121 -60 callgsubr
          hintmask 110010000101010001000010
          38 callsubr
          hhcurveto
          hintmask 110010001011010001000010
          -43 callgsubr
          hintmask 110010000101010001000010
          56 callgsubr
          hhcurveto
          hintmask 110010001011010001000010
          -61 callgsubr
          -52 -7 -9 12 -25 -49 rrcurveto
          -8 -16 -11 -6 -20 vvcurveto
          56 5 rmoveto
          -5 -8 -7 -6 vhcurveto
          3 10 10 3 vhcurveto
          0 1 0 -1 vvcurveto
          18 50 rmoveto
          1 5 -7 callgsubr
          -17 -9 -14 -15 -12 -12 rrcurveto
          17 23 19 14 vhcurveto
          93 -18 rmoveto
          3 98 callgsubr
          hhcurveto
          4 23 -19 -5 7 hvcurveto
          -3 callgsubr
          -24 8 11 -10 hvcurveto
          136 18 rmoveto
          -4 -2 -9 -5 vhcurveto
          3 0 10 7 vhcurveto
          15 3 rmoveto
          0 9 -6 0 vhcurveto
          -1 -3 -9 -3 vhcurveto
          -228 13 rmoveto
          6 5 rlineto
          6 10 1 15 hhcurveto
          15 19 -2 -12 hvcurveto
          -25 -20 8 -26 hhcurveto
          endchar
        </CharString>
        <CharString name="O">
          3 callsubr
          37 -20 -88 callgsubr
          hhcurveto
          hintmask 1101011110100000
          -102 callsubr
          -62 callsubr
          hintmask 1110011111000000
          -14 -22 2 -8 vhcurveto
          -72 callsubr
          -21 -40 -17 -13 -7 -3 17 6 vhcurveto
          -515 16 rmoveto
          7 17 -8 -8 -12 -19 -5 -7 hvcurveto
          -1 -4 -56 callgsubr
          7 8 1 13 11 vvcurveto
          16 23 rmoveto
          8 3 11 10 callsubr
          -2 -1 -12 -7 -2 30 callsubr
          vhcurveto
          488 hmoveto
          9 7 24 -2 12 hhcurveto
          -4 -7 -19 -9 -5 hhcurveto
          -2 30 callsubr
          hvcurveto
          6 24 rmoveto
          0 -1 29 callgsubr
          7 23 20 1 vvcurveto
          -14 -2 -12 -13 hhcurveto
          9 3 5 4 7 vhcurveto
          -1 -11 callgsubr
          -2 -14 10 4 5 20 26 9 30 16 -68 -19 hvcurveto
          -50 hlineto
          -493 31 rmoveto
          3 12 -8 -5 3 hvcurveto
          -5 -8 -8 -2 -11 hhcurveto
          2 0 18 9 vhcurveto
          30 61 rmoveto
          hintmask 1100111111000000
          3 14 -8 -4 2 hvcurveto
          -5 -12 -9 -2 -11 hhcurveto
          5 8 14 5 vhcurveto
          420 13 rmoveto
          -28 11 -47 19 -12 32 rrcurveto
          -6 -3 -10 -2 -5 -33 -21 27 1 hhcurveto
          -2 -4 -16 -6 -2 hhcurveto
          -25 callgsubr
          1 vhcurveto
          -1 2 -5 8 2 vvcurveto
          -19 -52 -1 -1 -6 -8 1 7 -1 vhcurveto
          -25 -11 -9 -1 -18 -19 3 8 -14 hhcurveto
          -3 -3 -3 -8 -2 vvcurveto
          -3 9 -8 4 -1 vhcurveto
          -9 -6 -9 -4 -8 hhcurveto
          -27 -7 26 0 hvcurveto
          1 -25 callgsubr
          vvcurveto
          38 hlineto
          -12 10 rlineto
          1 65 35 6 3 9 -7 -5 3 vhcurveto
          20 25 -1 17 34 117 -8 -24 24 vhcurveto
          18 -18 42 -44 0 vvcurveto
          9 10 -1 -10 -10 -11 -9 -10 -11 -5 16 9 hvcurveto
          -401 6 rmoveto
          22 2 0 -6 19 hvcurveto
          -3 -9 -10 -4 vhcurveto
          -2 2 -18 7 -10 10 rrcurveto
          endchar
        </CharString>
        <CharString name="OE">
          435 -12 30 -30 129 -117 31 -17 -21 22 -21 37 38 -33 33 -20 20 141 68 0 30 -30 56 -46 70 -32 32 -18 31 129 -20 83 24 6 22 3 30 -11 24 -1 -20 hstemhm
          29 33 -33 51 7 36 432 37 -7 38 -24 24 32 23 -11 23 73 callsubr
          91 92 rmoveto
          -61 83 54 -43 102 hhcurveto
          hintmask 00100010100100111010101101100000
          94 50 10 33 81 hvcurveto
          -8 vlineto
          13 8 13 17 hhcurveto
          -35 vlineto
          hintmask 00001100100100111010101101100000
          19 16 -7 19 hhcurveto
          4 17 10 3 4 hvcurveto
          hintmask 00100010100100111010101101100000
          6 -7 rlineto
          hintmask 00010100100100111010101101100000
          54 42 -7 50 24 16 8 14 28 -2 -8 14 hhcurveto
          73 callsubr
          20 42 17 21 10 -8 21 -10 5 hvcurveto
          hintmask 10000001010010111010101101010000
          -17 -26 -16 -2 hvcurveto
          -74 -41 20 -61 hhcurveto
          -9 -9 -1 -1 -10 hvcurveto
          -10 8 -15 15 15 vvcurveto
          167 vlineto
          26 48 -3 17 vhcurveto
          -14 49 -3 35 vhcurveto
          73 callsubr
          24 15 10 23 hhcurveto
          -5 vlineto
          hintmask 10000100010001111010101101100000
          7 7 6 10 8 vvcurveto
          29 -7 34 -32 vhcurveto
          73 callsubr
          -19 -11 -1 -12 -18 hvcurveto
          -118 hlineto
          -4 9 -15 2 -5 1 -2 10 -9 43 -2 8 rrcurveto
          7 6 4 5 11 -6 10 10 vvcurveto
          hintmask 10000100100100111100101101010000
          19 1 41 17 11 vhcurveto
          11 45 1 9 hhcurveto
          47 34 0 -7 46 hvcurveto
          8 8 8 3 7 10 9 -4 9 hhcurveto
          10 10 5 25 9 hvcurveto
          3 8 11 32 10 vvcurveto
          12 -15 6 -11 vhcurveto
          hintmask 10000100100100111001101101100000
          -29 -28 -8 -30 hhcurveto
          hintmask 10000100100100111100101101100000
          -30 -21 8 -28 -5 -41 -7 -4 hhcurveto
          hintmask 10000100100100111001101101100000
          -1 -12 -34 0 -35 hhcurveto
          -34 -34 0 1 -12 hvcurveto
          -7 -11 1 -19 -17 -14 -4 21 -12 -4 -5 -1 -4 hhcurveto
          -5 -3 1 5 -1 hvcurveto
          73 callsubr
          20 -53 -29 0 -52 hhcurveto
          -20 -36 0 -7 -7 hvcurveto
          -3 -2 0 -3 hhcurveto
          hintmask 00100010100100111001101101100000
          8 6 rlineto
          -29 -98 -32 -17 -22 hvcurveto
          -22 -17 -38 -65 -15 -23 rrcurveto
          -36 -66 -8 -90 -75 vvcurveto
          -74 18 -48 44 -61 vhcurveto
          106 -28 rmoveto
          35 27 -31 -2 38 hvcurveto
          73 callsubr
          -13 vlineto
          -30 -70 33 5 hvcurveto
          hintmask 00100001100100111010101010100000
          111 -25 rmoveto
          24 -7 rlineto
          -9 -3 -18 32 callsubr
          476 8 rmoveto
          5 2 14 14 9 hhcurveto
          1 3 -6 0 hvcurveto
          2 11 6 1 hhcurveto
          13 61 -4 -11 -6 -3 0 -3 -3 hvcurveto
          -10 1 -44 3 -8 1 rrcurveto
          1 -31 -3 -2 -14 hvcurveto
          -166 16 rmoveto
          26 20 6 23 7 vhcurveto
          -14 -20 -20 -17 -16 vhcurveto
          -4 4 -2 1 6 vvcurveto
          77 14 rmoveto
          12 8 -7 14 21 1 7 9 hhcurveto
          3 17 -5 -2 -20 -38 1 -13 hvcurveto
          -15 -10 9 -16 hhcurveto
          -12 -9 0 -8 -12 hvcurveto
          15 25 10 15 vhcurveto
          219 -18 rmoveto
          5 14 23 1 1 hhcurveto
          -10 -7 -4 -9 -10 -4 0 8 -8 vhcurveto
          -259 179 rmoveto
          -12 -14 -57 -44 -2 vvcurveto
          -3 11 -4 9 vhcurveto
          -9 -7 -17 -19 -4 vvcurveto
          hintmask 00100010100100111010101101100000
          -8 14 5 -11 vvcurveto
          -56 -118 -12 -25 vhcurveto
          11 16 15 14 7 hhcurveto
          55 21 24 40 20 56 rrcurveto
          7 1 -3 30 13 hhcurveto
          -283 -154 rmoveto
          -24 4 -52 7 -23 19 rrcurveto
          -82 69 -17 112 101 vvcurveto
          111 127 84 103 49 35 -16 -10 50 vhcurveto
          74 -74 rlineto
          hintmask 10000001100100111010101010010000
          9 -9 15 -46 -7 -19 0 -20 -21 vvcurveto
          -96 -7 -111 -84 -53 vhcurveto
          -22 -14 -27 -4 -19 -14 rrcurveto
          -99 hlineto
          -154 25 rmoveto
          2 8 6 0 5 2 -5 -3 3 vhcurveto
          -2 -1 -9 -5 -2 hhcurveto
          -1 -5 5 2 hvcurveto
          493 37 rmoveto
          -2 1 -9 -1 vvcurveto
          -19 -15 -1 -16 -5 vhcurveto
          -11 callsubr
          11 20 19 11 3 vhcurveto
          -525 -9 rmoveto
          5 14 4 5 6 0 -8 -4 -7 -3 -7 -6 -1 -15 9 8 vhcurveto
          474 9 rmoveto
          27 hlineto
          -4 -3 -11 -8 -5 hhcurveto
          -5 -3 9 3 hvcurveto
          -498 53 rmoveto
          -35 15 -20 1 42 vvcurveto
          36 6 rlineto
          -6 -11 -15 -10 vvcurveto
          -2 1 -4 3 vhcurveto
          3 6 15 18 2 hhcurveto
          8 -2 2 -19 -10 -17 -4 -17 -10 vvcurveto
          1 8 -2 1 hhcurveto
          3 3 1 6 4 hhcurveto
          4 8 -10 -4 4 hvcurveto
          hintmask 01000000001001111010101101100000
          -9 -5 -11 -4 -8 hhcurveto
          -25 -20 28 19 hvcurveto
          551 -29 rmoveto
          8 9 12 7 12 hhcurveto
          -11 -4 -11 -11 -4 vhcurveto
          -5 6 -7 3 -6 2 rrcurveto
          30 63 rmoveto
          -31 vlineto
          -7 -16 -1 -14 vhcurveto
          -4 -14 -56 callgsubr
          14 19 16 5 19 14 rrcurveto
          -6 74 rmoveto
          1 4 -26 callgsubr
          -9 -7 -41 -43 -14 hhcurveto
          39 vlineto
          11 49 2 7 vhcurveto
          -19 vmoveto
          7 1 -20 -11 hvcurveto
          -41 hlineto
          13 24 14 9 4 vhcurveto
          -565 12 rmoveto
          6 4 -17 -8 hvcurveto
          -38 hlineto
          9 8 16 16 4 hhcurveto
          -40 -3 rmoveto
          8 13 6 5 2 vhcurveto
          -11 5 29 32 rlineto
          7 -32 hlineto
          -14 -3 -17 -19 -5 -8 rrcurveto
          -2 -4 5 1 -1 hvcurveto
          0 0 -36 callsubr
          574 29 rmoveto
          43 43 rlineto
          hintmask 10000100010010111010101101100000
          5 4 -1 -7 4 hvcurveto
          -40 -18 50 -25 -66 -5 rrcurveto
          18 48 rmoveto
          1 5 -26 callgsubr
          -5 -4 -22 -28 -16 -3 rrcurveto
          32 9 3 27 vhcurveto
          -592 -9 rmoveto
          28 3 87 44 vhcurveto
          1 6 -17 callgsubr
          -4 -12 -2 -17 -7 -6 rrcurveto
          -2 6 -16 32 callgsubr
          -4 -2 -16 -12 -4 vhcurveto
          -1 7 -10 -2 vvcurveto
          -4 -19 -21 -3 -11 -15 rrcurveto
          -8 2 1 8 5 vvcurveto
          660 13 rmoveto
          hintmask 10000100001001111010101101100000
          0 0 3 1 vvcurveto
          hintmask 10000100100010111010101101100000
          -7 12 21 -1 17 hhcurveto
          hintmask 10000100010001111010101101100000
          38 27 14 37 hhcurveto
          18 -10 -14 -4 13 hvcurveto
          -12 -14 rlineto
          9 -5 5 -4 vhcurveto
          -16 -30 -14 -16 hhcurveto
          -10 -80 11 11 hvcurveto
          -104 9 rmoveto
          7 16 20 17 11 vhcurveto
          10 1 -9 -8 hvcurveto
          hintmask 10000100001001111100101101100000
          -28 -6 2 -24 -7 -7 0 5 vhcurveto
          -7 41 rmoveto
          2 6 13 1 1 vhcurveto
          36 hlineto
          -9 -6 -15 -17 -12 hhcurveto
          -6 -4 4 6 hvcurveto
          43 70 rmoveto
          6 1 -6 -6 0 -3 -31 -4 hvcurveto
          -40 hlineto
          17 23 26 17 vhcurveto
          -55 -3 rmoveto
          28 37 -21 7 20 vhcurveto
          -1 -8 -6 0 -6 hhcurveto
          -34 -10 11 34 -30 hvcurveto
          -2 2 -3 7 3 vvcurveto
          0 0 29 callgsubr
          14 28 39 -16 8 31 1 2 4 8 1 3 rrcurveto
          103 callgsubr
          -1 hhcurveto
          -6 -2 8 4 17 18 3 17 31 30 -3 -4 33 hvcurveto
          -5 -1 -3 -1 -4 -4 -4 1 -4 hhcurveto
          -21 -93 -99 -7 -7 hvcurveto
          12 50 38 16 hhcurveto
          -57 -6 -13 -41 -37 vhcurveto
          -17 -2 4 12 hvcurveto
          -451 108 rmoveto
          hintmask 10000100100100111010011101100000
          64 53 80 18 80 7 25 -1 3 hhcurveto
          13 -6 rlineto
          -6 -41 -26 -10 -38 hhcurveto
          -13 vlineto
          -10 -25 1 -9 -8 hvcurveto
          24 -6 -17 hlineto
          -3 4 -7 -2 vvcurveto
          -11 -80 -37 -19 -2 vhcurveto
          1 -3 1 -2 -2 vvcurveto
          -10 -21 -3 -11 -4 -2 29 callgsubr
          11 -13 rlineto
          -15 -22 -5 -39 -34 hhcurveto
          57 39 9 22 44 vhcurveto
          0 1 2 1 -29 callsubr
          365 hmoveto
          6 5 4 7 2 7 rrcurveto
          -6 -6 -18 -1 0 vvcurveto
          -2 -20 1 6 -9 hvcurveto
          11 15 rlineto
          -18 hlineto
          17 4 22 6 14 hhcurveto
          27 32 -19 -29 -14 -10 -8 -15 -9 -10 5 8 -5 hvcurveto
          431 25 rmoveto
          -6 -6 vlineto
          -118 13 rmoveto
          6 11 14 8 14 hhcurveto
          -23 vlineto
          -13 -26 -1 10 hvcurveto
          -387 6 rmoveto
          6 5 rlineto
          -11 vlineto
          92 hmoveto
          2 -10 0 -9 -9 -10 0 -2 -2 12 -1 8 7 8 1 2 3 vhcurveto
          358 24 rmoveto
          13 -13 rlineto
          -4 -3 -6 -3 -4 hhcurveto
          hintmask 10000100100100111100101101100000
          -497 27 rmoveto
          2 7 -19 callsubr
          -9 -9 -10 -6 -14 hhcurveto
          13 14 3 10 vhcurveto
          52 6 rmoveto
          12 6 0 -7 8 hvcurveto
          -2 -10 -44 -10 -5 hhcurveto
          -1 -1 0 0 18 24 1 11 hvcurveto
          358 -7 rmoveto
          18 hlineto
          -5 -3 -12 -2 -3 hhcurveto
          endchar
        </CharString>
        <CharString name="Oacute">
          3 callsubr
          229 -20 -88 callgsubr
          hhcurveto
          hintmask 1101011110100000
          -102 callsubr
          -62 callsubr
          hintmask 1110011111000000
          -14 -22 2 -8 vhcurveto
          -72 callsubr
          -21 -40 -17 -13 -7 -3 17 6 vhcurveto
          -515 16 rmoveto
          7 17 -8 -8 -12 -19 -5 -7 hvcurveto
          -1 -4 -56 callgsubr
          7 8 1 13 11 vvcurveto
          16 23 rmoveto
          8 3 11 10 callsubr
          -2 -1 -12 -7 -2 30 callsubr
          vhcurveto
          488 hmoveto
          9 7 24 -2 12 hhcurveto
          -4 -7 -19 -9 -5 hhcurveto
          -2 30 callsubr
          hvcurveto
          6 24 rmoveto
          0 -1 29 callgsubr
          7 23 20 1 vvcurveto
          -14 -2 -12 -13 hhcurveto
          9 3 5 4 7 vhcurveto
          -1 -11 callgsubr
          -2 -14 10 4 5 20 26 9 30 16 -68 -19 hvcurveto
          -50 hlineto
          -493 31 rmoveto
          3 12 -8 -5 3 hvcurveto
          -5 -8 -8 -2 -11 hhcurveto
          2 0 18 9 vhcurveto
          30 61 rmoveto
          hintmask 1100111111000000
          3 14 -8 -4 2 hvcurveto
          -5 -12 -9 -2 -11 hhcurveto
          5 8 14 5 vhcurveto
          420 13 rmoveto
          -28 11 -47 19 -12 32 rrcurveto
          -6 -3 -10 -2 -5 -33 -21 27 1 hhcurveto
          -2 -4 -16 -6 -2 hhcurveto
          -25 callgsubr
          1 vhcurveto
          -1 2 -5 8 2 vvcurveto
          -19 -52 -1 -1 -6 -8 1 7 -1 vhcurveto
          -25 -11 -9 -1 -18 -19 3 8 -14 hhcurveto
          -3 -3 -3 -8 -2 vvcurveto
          -3 9 -8 4 -1 vhcurveto
          -9 -6 -9 -4 -8 hhcurveto
          -27 -7 26 0 hvcurveto
          1 -25 callgsubr
          vvcurveto
          38 hlineto
          -12 10 rlineto
          1 65 35 6 3 9 -7 -5 3 vhcurveto
          20 25 -1 17 34 117 -8 -24 24 vhcurveto
          18 -18 42 -44 0 vvcurveto
          9 10 -1 -10 -10 -11 -9 -10 -11 -5 16 9 hvcurveto
          -401 6 rmoveto
          22 2 0 -6 19 hvcurveto
          -3 -9 -10 -4 vhcurveto
          -2 2 -18 7 -10 10 rrcurveto
          261 277 -104 callsubr
        </CharString>
        <CharString name="Ocircumflex">
          4 callgsubr
          196 79 hstemhm
          31 87 439 23 64 24 hintmask 1100111110000000
          -105 callsubr
          -102 callsubr
          hintmask 1010111110000000
          -96 callsubr
          -14 -22 2 -8 hvcurveto
          -72 callsubr
          hintmask 1001111110000000
          -21 -40 -17 -13 -7 -3 17 6 vhcurveto
          -515 16 rmoveto
          7 17 -8 -8 -12 -19 -5 -7 hvcurveto
          -1 -4 -56 callgsubr
          7 8 1 13 11 vvcurveto
          16 23 rmoveto
          8 3 11 10 callsubr
          -2 -1 -12 -7 -2 30 callsubr
          vhcurveto
          488 hmoveto
          9 7 24 -2 12 hhcurveto
          -4 -7 -19 -9 -5 hhcurveto
          -2 30 callsubr
          hvcurveto
          6 24 rmoveto
          0 -1 29 callgsubr
          7 23 20 1 vvcurveto
          -14 -2 -12 -13 hhcurveto
          9 3 5 4 7 vhcurveto
          -1 -11 callgsubr
          -2 -14 10 4 5 20 26 9 30 16 -68 -19 hvcurveto
          -50 hlineto
          -493 31 rmoveto
          3 12 -8 -5 3 hvcurveto
          -5 -8 -8 -2 -11 hhcurveto
          2 0 18 9 vhcurveto
          30 61 rmoveto
          3 14 -8 -4 2 hvcurveto
          -5 -12 -9 -2 -11 hhcurveto
          5 8 14 5 vhcurveto
          420 13 rmoveto
          -28 11 -47 19 -12 32 rrcurveto
          -6 -3 -10 -2 -5 -33 -21 27 1 hhcurveto
          -2 -4 -16 -6 -2 hhcurveto
          -25 callgsubr
          1 vhcurveto
          -1 2 -5 8 2 vvcurveto
          -19 -52 -1 -1 -6 -8 1 7 -1 vhcurveto
          -25 -11 -9 -1 -18 -19 3 8 -14 hhcurveto
          -3 -3 -3 -8 -2 vvcurveto
          -3 9 -8 4 -1 vhcurveto
          -9 -6 -9 -4 -8 hhcurveto
          -27 -7 26 0 hvcurveto
          1 -25 callgsubr
          vvcurveto
          38 hlineto
          -12 10 rlineto
          1 65 35 6 3 9 -7 -5 3 vhcurveto
          20 25 -1 17 34 117 -8 -24 24 vhcurveto
          18 -18 42 -44 0 vvcurveto
          9 10 -1 -10 -10 -11 -9 -10 -11 -5 16 9 hvcurveto
          -401 6 rmoveto
          22 2 0 -6 19 hvcurveto
          -3 -9 -10 -4 vhcurveto
          -2 2 -18 7 -10 10 rrcurveto
          165 244 rmoveto
          -91 callsubr
          -92 callgsubr
        </CharString>
        <CharString name="Odieresis">
          4 callgsubr
          38 139 28 28 hstemhm
          31 87 99 90 34 90 126 23 39 49 -24 24 hintmask 1100111111110000
          -105 callsubr
          -102 callsubr
          hintmask 1010111111101000
          -62 callsubr
          hintmask 1001111111110000
          -14 -22 2 -8 vhcurveto
          -72 callsubr
          -21 -40 -17 -13 -7 -3 17 6 vhcurveto
          -515 16 rmoveto
          7 17 -8 -8 -12 -19 -5 -7 hvcurveto
          -1 -4 -56 callgsubr
          7 8 1 13 11 vvcurveto
          16 23 rmoveto
          8 3 11 10 callsubr
          -2 -1 -12 -7 -2 30 callsubr
          vhcurveto
          488 hmoveto
          9 7 24 -2 12 hhcurveto
          -4 -7 -19 -9 -5 hhcurveto
          -2 30 callsubr
          hvcurveto
          6 24 rmoveto
          0 -1 29 callgsubr
          7 23 20 1 vvcurveto
          -14 -2 -12 -13 hhcurveto
          9 3 5 4 7 vhcurveto
          -1 -11 callgsubr
          -2 -14 10 4 5 20 26 9 30 16 -68 -19 hvcurveto
          -50 hlineto
          -493 31 rmoveto
          3 12 -8 -5 3 hvcurveto
          -5 -8 -8 -2 -11 hhcurveto
          2 0 18 9 vhcurveto
          30 61 rmoveto
          3 14 -8 -4 2 hvcurveto
          -5 -12 -9 -2 -11 hhcurveto
          5 8 14 5 vhcurveto
          420 13 rmoveto
          -28 11 -47 19 -12 32 rrcurveto
          -6 -3 -10 -2 -5 -33 -21 27 1 hhcurveto
          -2 -4 -16 -6 -2 hhcurveto
          -25 callgsubr
          1 vhcurveto
          -1 2 -5 8 2 vvcurveto
          -19 -52 -1 -1 -6 -8 1 7 -1 vhcurveto
          -25 -11 -9 -1 -18 -19 3 8 -14 hhcurveto
          -3 -3 -3 -8 -2 vvcurveto
          -3 9 -8 4 -1 vhcurveto
          -9 -6 -9 -4 -8 hhcurveto
          -27 -7 26 0 hvcurveto
          1 -25 callgsubr
          vvcurveto
          38 hlineto
          -12 10 rlineto
          1 65 35 6 3 9 -7 -5 3 vhcurveto
          20 25 -1 17 34 117 -8 -24 24 vhcurveto
          18 -18 42 -44 0 vvcurveto
          9 10 -1 -10 -10 -11 -9 -10 -11 -5 16 9 hvcurveto
          -401 6 rmoveto
          22 2 0 -6 19 hvcurveto
          -3 -9 -10 -4 vhcurveto
          -2 2 -18 7 -10 10 rrcurveto
          80 265 -98 callsubr
          -96 callgsubr
        </CharString>
        <CharString name="Ograve">
          3 callsubr
          239 -20 hstemhm
          31 87 439 23 64 24 hintmask 1100111111000000
          -105 callsubr
          hhcurveto
          hintmask 1101011111000000
          -102 callsubr
          -96 callsubr
          -14 -22 2 -8 hvcurveto
          -72 callsubr
          hintmask 1110011111000000
          -21 -40 -17 -13 -7 -3 17 6 vhcurveto
          -515 16 rmoveto
          7 17 -8 -8 -12 -19 -5 -7 hvcurveto
          -1 -4 -56 callgsubr
          7 8 1 13 11 vvcurveto
          16 23 rmoveto
          8 3 11 10 callsubr
          -2 -1 -12 -7 -2 30 callsubr
          vhcurveto
          488 hmoveto
          9 7 24 -2 12 hhcurveto
          -4 -7 -19 -9 -5 hhcurveto
          -2 30 callsubr
          hvcurveto
          6 24 rmoveto
          0 -1 29 callgsubr
          7 23 20 1 vvcurveto
          -14 -2 -12 -13 hhcurveto
          9 3 5 4 7 vhcurveto
          -1 -11 callgsubr
          -2 -14 10 4 5 20 26 9 30 16 -68 -19 hvcurveto
          -50 hlineto
          -493 31 rmoveto
          3 12 -8 -5 3 hvcurveto
          -5 -8 -8 -2 -11 hhcurveto
          2 0 18 9 vhcurveto
          30 61 rmoveto
          hintmask 1100111111000000
          3 14 -8 -4 2 hvcurveto
          -5 -12 -9 -2 -11 hhcurveto
          5 8 14 5 vhcurveto
          420 13 rmoveto
          -28 11 -47 19 -12 32 rrcurveto
          -6 -3 -10 -2 -5 -33 -21 27 1 hhcurveto
          -2 -4 -16 -6 -2 hhcurveto
          -25 callgsubr
          1 vhcurveto
          -1 2 -5 8 2 vvcurveto
          -19 -52 -1 -1 -6 -8 1 7 -1 vhcurveto
          -25 -11 -9 -1 -18 -19 3 8 -14 hhcurveto
          -3 -3 -3 -8 -2 vvcurveto
          -3 9 -8 4 -1 vhcurveto
          -9 -6 -9 -4 -8 hhcurveto
          -27 -7 26 0 hvcurveto
          1 -25 callgsubr
          vvcurveto
          38 hlineto
          -12 10 rlineto
          1 65 35 6 3 9 -7 -5 3 vhcurveto
          20 25 -1 17 34 117 -8 -24 24 vhcurveto
          18 -18 42 -44 0 vvcurveto
          9 10 -1 -10 -10 -11 -9 -10 -11 -5 16 9 hvcurveto
          -401 6 rmoveto
          22 2 0 -6 19 hvcurveto
          -3 -9 -10 -4 vhcurveto
          -2 2 -18 7 -10 10 rrcurveto
          105 296 -99 callgsubr
        </CharString>
</ttFont>
